G75*
%MOIN*%
%OFA0B0*%
%FSLAX25Y25*%
%IPPOS*%
%LPD*%
%AMOC8*
5,1,8,0,0,1.08239X$1,22.5*
%
%ADD10C,0.09461*%
%ADD11C,0.04146*%
%ADD12C,0.05906*%
%ADD13C,0.06706*%
%ADD14C,0.06000*%
%ADD15C,0.06800*%
%ADD16R,0.05800X0.03300*%
%ADD17C,0.07400*%
%ADD18C,0.08200*%
%ADD19C,0.02362*%
%ADD20C,0.03839*%
%ADD21C,0.04639*%
%ADD22C,0.03150*%
%ADD23C,0.03950*%
%ADD24C,0.02559*%
%ADD25C,0.02480*%
D10*
X0186296Y0010343D03*
X0186296Y0152075D03*
D11*
X0187182Y0121366D03*
X0187182Y0109555D03*
D12*
X0154524Y0141661D03*
X0144524Y0141661D03*
X0134524Y0141661D03*
X0124524Y0141661D03*
X0114524Y0141661D03*
X0114524Y0151661D03*
X0124524Y0151661D03*
X0134524Y0151661D03*
X0144524Y0151661D03*
X0154524Y0151661D03*
D13*
X0154524Y0151661D03*
X0144524Y0151661D03*
X0134524Y0151661D03*
X0124524Y0151661D03*
X0114524Y0151661D03*
X0114524Y0141661D03*
X0124524Y0141661D03*
X0134524Y0141661D03*
X0144524Y0141661D03*
X0154524Y0141661D03*
D14*
X0070331Y0118000D03*
X0060331Y0118000D03*
X0060331Y0108000D03*
X0070331Y0108000D03*
X0070331Y0098000D03*
X0060331Y0098000D03*
X0060331Y0088000D03*
X0070331Y0088000D03*
X0070331Y0078000D03*
X0060331Y0078000D03*
X0060331Y0068000D03*
X0070331Y0068000D03*
X0070331Y0058000D03*
X0060331Y0058000D03*
X0060331Y0048000D03*
X0070331Y0048000D03*
X0070331Y0038000D03*
X0060331Y0038000D03*
X0060331Y0028000D03*
X0070331Y0028000D03*
X0070331Y0018000D03*
X0060331Y0018000D03*
X0060331Y0008000D03*
X0070331Y0008000D03*
X0080292Y0008000D03*
X0090292Y0008000D03*
X0100292Y0008000D03*
X0110292Y0008000D03*
X0120292Y0008000D03*
X0130292Y0008000D03*
X0130292Y0018000D03*
X0120292Y0018000D03*
X0110292Y0018000D03*
X0100292Y0018000D03*
X0090292Y0018000D03*
X0080292Y0018000D03*
D15*
X0080292Y0018000D03*
X0070331Y0018000D03*
X0060331Y0018000D03*
X0060331Y0028000D03*
X0070331Y0028000D03*
X0070331Y0038000D03*
X0060331Y0038000D03*
X0060331Y0048000D03*
X0070331Y0048000D03*
X0070331Y0058000D03*
X0060331Y0058000D03*
X0060331Y0068000D03*
X0070331Y0068000D03*
X0070331Y0078000D03*
X0060331Y0078000D03*
X0060331Y0088000D03*
X0070331Y0088000D03*
X0070331Y0098000D03*
X0060331Y0098000D03*
X0060331Y0108000D03*
X0070331Y0108000D03*
X0070331Y0118000D03*
X0060331Y0118000D03*
X0090292Y0018000D03*
X0100292Y0018000D03*
X0110292Y0018000D03*
X0120292Y0018000D03*
X0130292Y0018000D03*
X0130292Y0008000D03*
X0120292Y0008000D03*
X0110292Y0008000D03*
X0100292Y0008000D03*
X0090292Y0008000D03*
X0080292Y0008000D03*
X0070331Y0008000D03*
X0060331Y0008000D03*
D16*
X0079997Y0029437D03*
X0079997Y0032980D03*
X0088461Y0032980D03*
X0088461Y0029437D03*
X0096827Y0029437D03*
X0096827Y0032980D03*
X0105194Y0032980D03*
X0105194Y0029437D03*
D17*
X0186198Y0026386D03*
X0186198Y0036386D03*
D18*
X0186198Y0036386D03*
X0186198Y0026386D03*
D19*
X0020646Y0005815D03*
X0030489Y0005815D03*
X0040331Y0005815D03*
X0050174Y0005815D03*
X0050174Y0015559D03*
X0050174Y0025008D03*
X0050174Y0035047D03*
X0053717Y0044374D03*
X0043973Y0046713D03*
X0041788Y0049299D03*
X0041611Y0044374D03*
X0039249Y0041937D03*
X0036838Y0044546D03*
X0034446Y0041957D03*
X0032103Y0044536D03*
X0029761Y0041799D03*
X0027406Y0044488D03*
X0024386Y0050894D03*
X0020646Y0054831D03*
X0020646Y0061720D03*
X0020646Y0066051D03*
X0020646Y0069496D03*
X0027536Y0066051D03*
X0032654Y0066051D03*
X0027536Y0061524D03*
X0027453Y0058094D03*
X0032654Y0059555D03*
X0039741Y0059555D03*
X0044367Y0063295D03*
X0051060Y0062902D03*
X0051060Y0056406D03*
X0042694Y0071539D03*
X0042300Y0074795D03*
X0048304Y0081594D03*
X0050469Y0086524D03*
X0046532Y0094004D03*
X0040430Y0085835D03*
X0041512Y0082587D03*
X0036788Y0082980D03*
X0036788Y0088295D03*
X0036788Y0094004D03*
X0027536Y0094004D03*
X0020646Y0094004D03*
X0020646Y0109752D03*
X0036788Y0114949D03*
X0044859Y0122055D03*
X0046532Y0115264D03*
X0053127Y0107291D03*
X0054898Y0103157D03*
X0046532Y0104929D03*
X0052044Y0125795D03*
X0052044Y0132587D03*
X0052044Y0136130D03*
X0052142Y0139673D03*
X0046532Y0141248D03*
X0036788Y0135894D03*
X0020646Y0141248D03*
X0020646Y0156602D03*
X0036788Y0156602D03*
X0046434Y0156602D03*
X0058638Y0150598D03*
X0086591Y0150598D03*
X0090233Y0156602D03*
X0090233Y0141248D03*
X0090233Y0130520D03*
X0094662Y0121760D03*
X0095351Y0117035D03*
X0104800Y0114575D03*
X0108442Y0114575D03*
X0111788Y0114575D03*
X0115233Y0114575D03*
X0118186Y0113000D03*
X0120843Y0115067D03*
X0121237Y0108866D03*
X0112083Y0105323D03*
X0106178Y0105323D03*
X0100272Y0105323D03*
X0100272Y0099417D03*
X0100272Y0093512D03*
X0106178Y0093512D03*
X0106178Y0099417D03*
X0112083Y0099417D03*
X0112083Y0093512D03*
X0121335Y0094004D03*
X0124977Y0088098D03*
X0122320Y0086047D03*
X0128323Y0089476D03*
X0137674Y0090559D03*
X0138658Y0084358D03*
X0128028Y0078157D03*
X0117989Y0077862D03*
X0118087Y0081110D03*
X0117398Y0085539D03*
X0110509Y0080913D03*
X0107457Y0077173D03*
X0103225Y0071661D03*
X0107654Y0065165D03*
X0114150Y0069102D03*
X0117595Y0069102D03*
X0122320Y0068118D03*
X0114052Y0073433D03*
X0135705Y0066150D03*
X0135213Y0062902D03*
X0135705Y0059555D03*
X0140627Y0055717D03*
X0135312Y0053748D03*
X0133737Y0046465D03*
X0127339Y0043709D03*
X0122615Y0041740D03*
X0125371Y0035933D03*
X0114052Y0045480D03*
X0108540Y0044004D03*
X0104997Y0043906D03*
X0108638Y0039673D03*
X0099386Y0039197D03*
X0093678Y0039197D03*
X0087182Y0039197D03*
X0080390Y0039197D03*
X0087280Y0051287D03*
X0093973Y0051287D03*
X0099288Y0051287D03*
X0104111Y0053354D03*
X0092178Y0057701D03*
X0087965Y0057681D03*
X0083540Y0057685D03*
X0077757Y0057602D03*
X0077831Y0069890D03*
X0083540Y0069890D03*
X0088757Y0074417D03*
X0089150Y0078748D03*
X0083146Y0086720D03*
X0084426Y0089969D03*
X0092497Y0087606D03*
X0078127Y0078748D03*
X0080292Y0100598D03*
X0086198Y0102862D03*
X0078225Y0111327D03*
X0083442Y0122252D03*
X0099583Y0126976D03*
X0126355Y0124220D03*
X0138658Y0119693D03*
X0138855Y0124220D03*
X0154209Y0124122D03*
X0154209Y0120972D03*
X0154209Y0117823D03*
X0157556Y0117823D03*
X0157556Y0120972D03*
X0157556Y0124122D03*
X0164150Y0124122D03*
X0167595Y0124122D03*
X0167595Y0120972D03*
X0167595Y0117823D03*
X0164150Y0117823D03*
X0164150Y0120972D03*
X0169760Y0108669D03*
X0163953Y0104929D03*
X0163953Y0101386D03*
X0163953Y0098039D03*
X0156079Y0094791D03*
X0152635Y0089181D03*
X0150961Y0083965D03*
X0153914Y0079535D03*
X0151257Y0077567D03*
X0149091Y0075106D03*
X0147846Y0066032D03*
X0150346Y0063532D03*
X0147846Y0061032D03*
X0152846Y0061032D03*
X0152846Y0066032D03*
X0165922Y0071563D03*
X0171335Y0071465D03*
X0172418Y0064772D03*
X0172320Y0061031D03*
X0171827Y0055815D03*
X0179308Y0044594D03*
X0142103Y0046268D03*
X0126847Y0050205D03*
X0138264Y0073039D03*
X0137871Y0099417D03*
X0128225Y0099516D03*
X0121434Y0100402D03*
X0173993Y0101091D03*
X0173993Y0095579D03*
X0173993Y0091215D03*
X0173993Y0086819D03*
X0178914Y0081799D03*
X0186001Y0092823D03*
X0188461Y0132390D03*
X0020646Y0125500D03*
X0020646Y0038295D03*
X0020646Y0021760D03*
D20*
X0165823Y0054929D03*
X0165627Y0083472D03*
D21*
X0165627Y0083472D03*
X0165823Y0054929D03*
D22*
X0154603Y0049516D03*
D23*
X0154603Y0049516D03*
D24*
X0139446Y0069847D03*
X0103717Y0064870D03*
X0099879Y0064969D03*
X0053969Y0073827D03*
X0051453Y0076287D03*
X0051158Y0079732D03*
X0051060Y0071366D03*
D25*
X0135944Y0069496D03*
M02*
