G75*
%MOIN*%
%OFA0B0*%
%FSLAX25Y25*%
%IPPOS*%
%LPD*%
%AMOC8*
5,1,8,0,0,1.08239X$1,22.5*
%
%ADD10C,0.00000*%
D10*
X0017005Y0002469D02*
X0017005Y0159949D01*
X0194170Y0159949D01*
X0194170Y0002469D01*
X0017005Y0002469D01*
X0205981Y0136326D02*
X0205981Y0136366D01*
X0185509Y0121366D02*
X0185511Y0121447D01*
X0185517Y0121529D01*
X0185527Y0121610D01*
X0185541Y0121690D01*
X0185558Y0121769D01*
X0185580Y0121848D01*
X0185605Y0121925D01*
X0185634Y0122002D01*
X0185667Y0122076D01*
X0185704Y0122149D01*
X0185743Y0122220D01*
X0185787Y0122289D01*
X0185833Y0122356D01*
X0185883Y0122420D01*
X0185936Y0122482D01*
X0185992Y0122542D01*
X0186050Y0122598D01*
X0186112Y0122652D01*
X0186176Y0122703D01*
X0186242Y0122750D01*
X0186310Y0122794D01*
X0186381Y0122835D01*
X0186453Y0122872D01*
X0186528Y0122906D01*
X0186603Y0122936D01*
X0186681Y0122962D01*
X0186759Y0122985D01*
X0186838Y0123003D01*
X0186918Y0123018D01*
X0186999Y0123029D01*
X0187080Y0123036D01*
X0187162Y0123039D01*
X0187243Y0123038D01*
X0187324Y0123033D01*
X0187405Y0123024D01*
X0187486Y0123011D01*
X0187566Y0122994D01*
X0187644Y0122974D01*
X0187722Y0122949D01*
X0187799Y0122921D01*
X0187874Y0122889D01*
X0187947Y0122854D01*
X0188018Y0122815D01*
X0188088Y0122772D01*
X0188155Y0122727D01*
X0188221Y0122678D01*
X0188283Y0122626D01*
X0188343Y0122570D01*
X0188400Y0122512D01*
X0188455Y0122452D01*
X0188506Y0122388D01*
X0188554Y0122323D01*
X0188599Y0122255D01*
X0188641Y0122185D01*
X0188679Y0122113D01*
X0188714Y0122039D01*
X0188745Y0121964D01*
X0188772Y0121887D01*
X0188795Y0121809D01*
X0188815Y0121730D01*
X0188831Y0121650D01*
X0188843Y0121569D01*
X0188851Y0121488D01*
X0188855Y0121407D01*
X0188855Y0121325D01*
X0188851Y0121244D01*
X0188843Y0121163D01*
X0188831Y0121082D01*
X0188815Y0121002D01*
X0188795Y0120923D01*
X0188772Y0120845D01*
X0188745Y0120768D01*
X0188714Y0120693D01*
X0188679Y0120619D01*
X0188641Y0120547D01*
X0188599Y0120477D01*
X0188554Y0120409D01*
X0188506Y0120344D01*
X0188455Y0120280D01*
X0188400Y0120220D01*
X0188343Y0120162D01*
X0188283Y0120106D01*
X0188221Y0120054D01*
X0188155Y0120005D01*
X0188088Y0119960D01*
X0188019Y0119917D01*
X0187947Y0119878D01*
X0187874Y0119843D01*
X0187799Y0119811D01*
X0187722Y0119783D01*
X0187644Y0119758D01*
X0187566Y0119738D01*
X0187486Y0119721D01*
X0187405Y0119708D01*
X0187324Y0119699D01*
X0187243Y0119694D01*
X0187162Y0119693D01*
X0187080Y0119696D01*
X0186999Y0119703D01*
X0186918Y0119714D01*
X0186838Y0119729D01*
X0186759Y0119747D01*
X0186681Y0119770D01*
X0186603Y0119796D01*
X0186528Y0119826D01*
X0186453Y0119860D01*
X0186381Y0119897D01*
X0186310Y0119938D01*
X0186242Y0119982D01*
X0186176Y0120029D01*
X0186112Y0120080D01*
X0186050Y0120134D01*
X0185992Y0120190D01*
X0185936Y0120250D01*
X0185883Y0120312D01*
X0185833Y0120376D01*
X0185787Y0120443D01*
X0185743Y0120512D01*
X0185704Y0120583D01*
X0185667Y0120656D01*
X0185634Y0120730D01*
X0185605Y0120807D01*
X0185580Y0120884D01*
X0185558Y0120963D01*
X0185541Y0121042D01*
X0185527Y0121122D01*
X0185517Y0121203D01*
X0185511Y0121285D01*
X0185509Y0121366D01*
X0185509Y0109555D02*
X0185511Y0109636D01*
X0185517Y0109718D01*
X0185527Y0109799D01*
X0185541Y0109879D01*
X0185558Y0109958D01*
X0185580Y0110037D01*
X0185605Y0110114D01*
X0185634Y0110191D01*
X0185667Y0110265D01*
X0185704Y0110338D01*
X0185743Y0110409D01*
X0185787Y0110478D01*
X0185833Y0110545D01*
X0185883Y0110609D01*
X0185936Y0110671D01*
X0185992Y0110731D01*
X0186050Y0110787D01*
X0186112Y0110841D01*
X0186176Y0110892D01*
X0186242Y0110939D01*
X0186310Y0110983D01*
X0186381Y0111024D01*
X0186453Y0111061D01*
X0186528Y0111095D01*
X0186603Y0111125D01*
X0186681Y0111151D01*
X0186759Y0111174D01*
X0186838Y0111192D01*
X0186918Y0111207D01*
X0186999Y0111218D01*
X0187080Y0111225D01*
X0187162Y0111228D01*
X0187243Y0111227D01*
X0187324Y0111222D01*
X0187405Y0111213D01*
X0187486Y0111200D01*
X0187566Y0111183D01*
X0187644Y0111163D01*
X0187722Y0111138D01*
X0187799Y0111110D01*
X0187874Y0111078D01*
X0187947Y0111043D01*
X0188018Y0111004D01*
X0188088Y0110961D01*
X0188155Y0110916D01*
X0188221Y0110867D01*
X0188283Y0110815D01*
X0188343Y0110759D01*
X0188400Y0110701D01*
X0188455Y0110641D01*
X0188506Y0110577D01*
X0188554Y0110512D01*
X0188599Y0110444D01*
X0188641Y0110374D01*
X0188679Y0110302D01*
X0188714Y0110228D01*
X0188745Y0110153D01*
X0188772Y0110076D01*
X0188795Y0109998D01*
X0188815Y0109919D01*
X0188831Y0109839D01*
X0188843Y0109758D01*
X0188851Y0109677D01*
X0188855Y0109596D01*
X0188855Y0109514D01*
X0188851Y0109433D01*
X0188843Y0109352D01*
X0188831Y0109271D01*
X0188815Y0109191D01*
X0188795Y0109112D01*
X0188772Y0109034D01*
X0188745Y0108957D01*
X0188714Y0108882D01*
X0188679Y0108808D01*
X0188641Y0108736D01*
X0188599Y0108666D01*
X0188554Y0108598D01*
X0188506Y0108533D01*
X0188455Y0108469D01*
X0188400Y0108409D01*
X0188343Y0108351D01*
X0188283Y0108295D01*
X0188221Y0108243D01*
X0188155Y0108194D01*
X0188088Y0108149D01*
X0188019Y0108106D01*
X0187947Y0108067D01*
X0187874Y0108032D01*
X0187799Y0108000D01*
X0187722Y0107972D01*
X0187644Y0107947D01*
X0187566Y0107927D01*
X0187486Y0107910D01*
X0187405Y0107897D01*
X0187324Y0107888D01*
X0187243Y0107883D01*
X0187162Y0107882D01*
X0187080Y0107885D01*
X0186999Y0107892D01*
X0186918Y0107903D01*
X0186838Y0107918D01*
X0186759Y0107936D01*
X0186681Y0107959D01*
X0186603Y0107985D01*
X0186528Y0108015D01*
X0186453Y0108049D01*
X0186381Y0108086D01*
X0186310Y0108127D01*
X0186242Y0108171D01*
X0186176Y0108218D01*
X0186112Y0108269D01*
X0186050Y0108323D01*
X0185992Y0108379D01*
X0185936Y0108439D01*
X0185883Y0108501D01*
X0185833Y0108565D01*
X0185787Y0108632D01*
X0185743Y0108701D01*
X0185704Y0108772D01*
X0185667Y0108845D01*
X0185634Y0108919D01*
X0185605Y0108996D01*
X0185580Y0109073D01*
X0185558Y0109152D01*
X0185541Y0109231D01*
X0185527Y0109311D01*
X0185517Y0109392D01*
X0185511Y0109474D01*
X0185509Y0109555D01*
X0181965Y0152075D02*
X0181967Y0152206D01*
X0181973Y0152338D01*
X0181983Y0152469D01*
X0181997Y0152600D01*
X0182015Y0152730D01*
X0182037Y0152859D01*
X0182062Y0152988D01*
X0182092Y0153116D01*
X0182126Y0153243D01*
X0182163Y0153370D01*
X0182204Y0153494D01*
X0182249Y0153618D01*
X0182298Y0153740D01*
X0182350Y0153861D01*
X0182406Y0153979D01*
X0182466Y0154097D01*
X0182529Y0154212D01*
X0182596Y0154325D01*
X0182666Y0154437D01*
X0182739Y0154546D01*
X0182815Y0154652D01*
X0182895Y0154757D01*
X0182978Y0154859D01*
X0183064Y0154958D01*
X0183153Y0155055D01*
X0183245Y0155149D01*
X0183340Y0155240D01*
X0183437Y0155329D01*
X0183537Y0155414D01*
X0183640Y0155496D01*
X0183745Y0155575D01*
X0183852Y0155651D01*
X0183962Y0155723D01*
X0184074Y0155792D01*
X0184188Y0155858D01*
X0184303Y0155920D01*
X0184421Y0155979D01*
X0184540Y0156034D01*
X0184661Y0156086D01*
X0184784Y0156133D01*
X0184908Y0156177D01*
X0185033Y0156218D01*
X0185159Y0156254D01*
X0185287Y0156287D01*
X0185415Y0156315D01*
X0185544Y0156340D01*
X0185674Y0156361D01*
X0185804Y0156378D01*
X0185935Y0156391D01*
X0186066Y0156400D01*
X0186197Y0156405D01*
X0186329Y0156406D01*
X0186460Y0156403D01*
X0186592Y0156396D01*
X0186723Y0156385D01*
X0186853Y0156370D01*
X0186983Y0156351D01*
X0187113Y0156328D01*
X0187241Y0156302D01*
X0187369Y0156271D01*
X0187496Y0156236D01*
X0187622Y0156198D01*
X0187746Y0156156D01*
X0187870Y0156110D01*
X0187991Y0156060D01*
X0188111Y0156007D01*
X0188230Y0155950D01*
X0188347Y0155890D01*
X0188461Y0155826D01*
X0188574Y0155758D01*
X0188685Y0155687D01*
X0188794Y0155613D01*
X0188900Y0155536D01*
X0189004Y0155455D01*
X0189105Y0155372D01*
X0189204Y0155285D01*
X0189300Y0155195D01*
X0189393Y0155102D01*
X0189484Y0155007D01*
X0189571Y0154909D01*
X0189656Y0154808D01*
X0189737Y0154705D01*
X0189815Y0154599D01*
X0189890Y0154491D01*
X0189962Y0154381D01*
X0190030Y0154269D01*
X0190095Y0154155D01*
X0190156Y0154038D01*
X0190214Y0153920D01*
X0190268Y0153800D01*
X0190319Y0153679D01*
X0190366Y0153556D01*
X0190409Y0153432D01*
X0190448Y0153307D01*
X0190484Y0153180D01*
X0190515Y0153052D01*
X0190543Y0152924D01*
X0190567Y0152795D01*
X0190587Y0152665D01*
X0190603Y0152534D01*
X0190615Y0152403D01*
X0190623Y0152272D01*
X0190627Y0152141D01*
X0190627Y0152009D01*
X0190623Y0151878D01*
X0190615Y0151747D01*
X0190603Y0151616D01*
X0190587Y0151485D01*
X0190567Y0151355D01*
X0190543Y0151226D01*
X0190515Y0151098D01*
X0190484Y0150970D01*
X0190448Y0150843D01*
X0190409Y0150718D01*
X0190366Y0150594D01*
X0190319Y0150471D01*
X0190268Y0150350D01*
X0190214Y0150230D01*
X0190156Y0150112D01*
X0190095Y0149995D01*
X0190030Y0149881D01*
X0189962Y0149769D01*
X0189890Y0149659D01*
X0189815Y0149551D01*
X0189737Y0149445D01*
X0189656Y0149342D01*
X0189571Y0149241D01*
X0189484Y0149143D01*
X0189393Y0149048D01*
X0189300Y0148955D01*
X0189204Y0148865D01*
X0189105Y0148778D01*
X0189004Y0148695D01*
X0188900Y0148614D01*
X0188794Y0148537D01*
X0188685Y0148463D01*
X0188574Y0148392D01*
X0188462Y0148324D01*
X0188347Y0148260D01*
X0188230Y0148200D01*
X0188111Y0148143D01*
X0187991Y0148090D01*
X0187870Y0148040D01*
X0187746Y0147994D01*
X0187622Y0147952D01*
X0187496Y0147914D01*
X0187369Y0147879D01*
X0187241Y0147848D01*
X0187113Y0147822D01*
X0186983Y0147799D01*
X0186853Y0147780D01*
X0186723Y0147765D01*
X0186592Y0147754D01*
X0186460Y0147747D01*
X0186329Y0147744D01*
X0186197Y0147745D01*
X0186066Y0147750D01*
X0185935Y0147759D01*
X0185804Y0147772D01*
X0185674Y0147789D01*
X0185544Y0147810D01*
X0185415Y0147835D01*
X0185287Y0147863D01*
X0185159Y0147896D01*
X0185033Y0147932D01*
X0184908Y0147973D01*
X0184784Y0148017D01*
X0184661Y0148064D01*
X0184540Y0148116D01*
X0184421Y0148171D01*
X0184303Y0148230D01*
X0184188Y0148292D01*
X0184074Y0148358D01*
X0183962Y0148427D01*
X0183852Y0148499D01*
X0183745Y0148575D01*
X0183640Y0148654D01*
X0183537Y0148736D01*
X0183437Y0148821D01*
X0183340Y0148910D01*
X0183245Y0149001D01*
X0183153Y0149095D01*
X0183064Y0149192D01*
X0182978Y0149291D01*
X0182895Y0149393D01*
X0182815Y0149498D01*
X0182739Y0149604D01*
X0182666Y0149713D01*
X0182596Y0149825D01*
X0182529Y0149938D01*
X0182466Y0150053D01*
X0182406Y0150171D01*
X0182350Y0150289D01*
X0182298Y0150410D01*
X0182249Y0150532D01*
X0182204Y0150656D01*
X0182163Y0150780D01*
X0182126Y0150907D01*
X0182092Y0151034D01*
X0182062Y0151162D01*
X0182037Y0151291D01*
X0182015Y0151420D01*
X0181997Y0151550D01*
X0181983Y0151681D01*
X0181973Y0151812D01*
X0181967Y0151944D01*
X0181965Y0152075D01*
X0181965Y0010343D02*
X0181967Y0010474D01*
X0181973Y0010606D01*
X0181983Y0010737D01*
X0181997Y0010868D01*
X0182015Y0010998D01*
X0182037Y0011127D01*
X0182062Y0011256D01*
X0182092Y0011384D01*
X0182126Y0011511D01*
X0182163Y0011638D01*
X0182204Y0011762D01*
X0182249Y0011886D01*
X0182298Y0012008D01*
X0182350Y0012129D01*
X0182406Y0012247D01*
X0182466Y0012365D01*
X0182529Y0012480D01*
X0182596Y0012593D01*
X0182666Y0012705D01*
X0182739Y0012814D01*
X0182815Y0012920D01*
X0182895Y0013025D01*
X0182978Y0013127D01*
X0183064Y0013226D01*
X0183153Y0013323D01*
X0183245Y0013417D01*
X0183340Y0013508D01*
X0183437Y0013597D01*
X0183537Y0013682D01*
X0183640Y0013764D01*
X0183745Y0013843D01*
X0183852Y0013919D01*
X0183962Y0013991D01*
X0184074Y0014060D01*
X0184188Y0014126D01*
X0184303Y0014188D01*
X0184421Y0014247D01*
X0184540Y0014302D01*
X0184661Y0014354D01*
X0184784Y0014401D01*
X0184908Y0014445D01*
X0185033Y0014486D01*
X0185159Y0014522D01*
X0185287Y0014555D01*
X0185415Y0014583D01*
X0185544Y0014608D01*
X0185674Y0014629D01*
X0185804Y0014646D01*
X0185935Y0014659D01*
X0186066Y0014668D01*
X0186197Y0014673D01*
X0186329Y0014674D01*
X0186460Y0014671D01*
X0186592Y0014664D01*
X0186723Y0014653D01*
X0186853Y0014638D01*
X0186983Y0014619D01*
X0187113Y0014596D01*
X0187241Y0014570D01*
X0187369Y0014539D01*
X0187496Y0014504D01*
X0187622Y0014466D01*
X0187746Y0014424D01*
X0187870Y0014378D01*
X0187991Y0014328D01*
X0188111Y0014275D01*
X0188230Y0014218D01*
X0188347Y0014158D01*
X0188461Y0014094D01*
X0188574Y0014026D01*
X0188685Y0013955D01*
X0188794Y0013881D01*
X0188900Y0013804D01*
X0189004Y0013723D01*
X0189105Y0013640D01*
X0189204Y0013553D01*
X0189300Y0013463D01*
X0189393Y0013370D01*
X0189484Y0013275D01*
X0189571Y0013177D01*
X0189656Y0013076D01*
X0189737Y0012973D01*
X0189815Y0012867D01*
X0189890Y0012759D01*
X0189962Y0012649D01*
X0190030Y0012537D01*
X0190095Y0012423D01*
X0190156Y0012306D01*
X0190214Y0012188D01*
X0190268Y0012068D01*
X0190319Y0011947D01*
X0190366Y0011824D01*
X0190409Y0011700D01*
X0190448Y0011575D01*
X0190484Y0011448D01*
X0190515Y0011320D01*
X0190543Y0011192D01*
X0190567Y0011063D01*
X0190587Y0010933D01*
X0190603Y0010802D01*
X0190615Y0010671D01*
X0190623Y0010540D01*
X0190627Y0010409D01*
X0190627Y0010277D01*
X0190623Y0010146D01*
X0190615Y0010015D01*
X0190603Y0009884D01*
X0190587Y0009753D01*
X0190567Y0009623D01*
X0190543Y0009494D01*
X0190515Y0009366D01*
X0190484Y0009238D01*
X0190448Y0009111D01*
X0190409Y0008986D01*
X0190366Y0008862D01*
X0190319Y0008739D01*
X0190268Y0008618D01*
X0190214Y0008498D01*
X0190156Y0008380D01*
X0190095Y0008263D01*
X0190030Y0008149D01*
X0189962Y0008037D01*
X0189890Y0007927D01*
X0189815Y0007819D01*
X0189737Y0007713D01*
X0189656Y0007610D01*
X0189571Y0007509D01*
X0189484Y0007411D01*
X0189393Y0007316D01*
X0189300Y0007223D01*
X0189204Y0007133D01*
X0189105Y0007046D01*
X0189004Y0006963D01*
X0188900Y0006882D01*
X0188794Y0006805D01*
X0188685Y0006731D01*
X0188574Y0006660D01*
X0188462Y0006592D01*
X0188347Y0006528D01*
X0188230Y0006468D01*
X0188111Y0006411D01*
X0187991Y0006358D01*
X0187870Y0006308D01*
X0187746Y0006262D01*
X0187622Y0006220D01*
X0187496Y0006182D01*
X0187369Y0006147D01*
X0187241Y0006116D01*
X0187113Y0006090D01*
X0186983Y0006067D01*
X0186853Y0006048D01*
X0186723Y0006033D01*
X0186592Y0006022D01*
X0186460Y0006015D01*
X0186329Y0006012D01*
X0186197Y0006013D01*
X0186066Y0006018D01*
X0185935Y0006027D01*
X0185804Y0006040D01*
X0185674Y0006057D01*
X0185544Y0006078D01*
X0185415Y0006103D01*
X0185287Y0006131D01*
X0185159Y0006164D01*
X0185033Y0006200D01*
X0184908Y0006241D01*
X0184784Y0006285D01*
X0184661Y0006332D01*
X0184540Y0006384D01*
X0184421Y0006439D01*
X0184303Y0006498D01*
X0184188Y0006560D01*
X0184074Y0006626D01*
X0183962Y0006695D01*
X0183852Y0006767D01*
X0183745Y0006843D01*
X0183640Y0006922D01*
X0183537Y0007004D01*
X0183437Y0007089D01*
X0183340Y0007178D01*
X0183245Y0007269D01*
X0183153Y0007363D01*
X0183064Y0007460D01*
X0182978Y0007559D01*
X0182895Y0007661D01*
X0182815Y0007766D01*
X0182739Y0007872D01*
X0182666Y0007981D01*
X0182596Y0008093D01*
X0182529Y0008206D01*
X0182466Y0008321D01*
X0182406Y0008439D01*
X0182350Y0008557D01*
X0182298Y0008678D01*
X0182249Y0008800D01*
X0182204Y0008924D01*
X0182163Y0009048D01*
X0182126Y0009175D01*
X0182092Y0009302D01*
X0182062Y0009430D01*
X0182037Y0009559D01*
X0182015Y0009688D01*
X0181997Y0009818D01*
X0181983Y0009949D01*
X0181973Y0010080D01*
X0181967Y0010212D01*
X0181965Y0010343D01*
M02*
