%
M48
M72
T01C0.01181
T02C0.01299
T03C0.01378
T04C0.01969
T05C0.02559
T06C0.03346
T07C0.03937
T08C0.04000
T09C0.08661
%
T01
X20646Y5815
X30489Y5815
X40331Y5815
X50174Y5815
X50174Y15559
X50174Y25008
X50174Y35047
X53717Y44374
X43973Y46713
X41788Y49299
X41611Y44374
X39249Y41937
X36838Y44546
X34446Y41957
X32103Y44536
X29761Y41799
X27406Y44488
X24386Y50894
X20646Y54831
X20646Y61720
X20646Y66051
X20646Y69496
X27536Y66051
X32654Y66051
X27536Y61524
X27453Y58094
X32654Y59555
X39741Y59555
X44367Y63295
X51060Y62902
X51060Y56406
X42694Y71539
X42300Y74795
X48304Y81594
X50469Y86524
X46532Y94004
X40430Y85835
X41512Y82587
X36788Y82980
X36788Y88295
X36788Y94004
X27536Y94004
X20646Y94004
X20646Y109752
X36788Y114949
X44859Y122055
X46532Y115264
X53127Y107291
X54898Y103157
X46532Y104929
X52044Y125795
X52044Y132587
X52044Y136130
X52142Y139673
X46532Y141248
X36788Y135894
X20646Y141248
X20646Y156602
X36788Y156602
X46434Y156602
X58638Y150598
X86591Y150598
X90233Y156602
X90233Y141248
X90233Y130520
X94662Y121760
X95351Y117035
X104800Y114575
X108442Y114575
X111788Y114575
X115233Y114575
X118186Y113000
X120843Y115067
X121237Y108866
X112083Y105323
X106178Y105323
X100272Y105323
X100272Y99417
X100272Y93512
X106178Y93512
X106178Y99417
X112083Y99417
X112083Y93512
X121335Y94004
X124977Y88098
X122320Y86047
X128323Y89476
X137674Y90559
X138658Y84358
X128028Y78157
X117989Y77862
X118087Y81110
X117398Y85539
X110509Y80913
X107457Y77173
X103225Y71661
X107654Y65165
X114150Y69102
X117595Y69102
X122320Y68118
X114052Y73433
X135705Y66150
X135213Y62902
X135705Y59555
X140627Y55717
X135312Y53748
X133737Y46465
X127339Y43709
X122615Y41740
X125371Y35933
X114052Y45480
X108540Y44004
X104997Y43906
X108638Y39673
X99386Y39197
X93678Y39197
X87182Y39197
X80390Y39197
X87280Y51287
X93973Y51287
X99288Y51287
X104111Y53354
X92178Y57701
X87965Y57681
X83540Y57685
X77757Y57602
X77831Y69890
X83540Y69890
X88757Y74417
X89150Y78748
X83146Y86720
X84426Y89969
X92497Y87606
X78127Y78748
X80292Y100598
X86198Y102862
X78225Y111327
X83442Y122252
X99583Y126976
X126355Y124220
X138658Y119693
X138855Y124220
X154209Y124122
X154209Y120972
X154209Y117823
X157556Y117823
X157556Y120972
X157556Y124122
X164150Y124122
X167595Y124122
X167595Y120972
X167595Y117823
X164150Y117823
X164150Y120972
X169760Y108669
X163953Y104929
X163953Y101386
X163953Y98039
X156079Y94791
X152635Y89181
X150961Y83965
X153914Y79535
X151257Y77567
X149091Y75106
X147846Y66032
X150346Y63532
X147846Y61032
X152846Y61032
X152846Y66032
X165922Y71563
X171335Y71465
X172418Y64772
X172320Y61031
X171827Y55815
X179308Y44594
X142103Y46268
X126847Y50205
X138264Y73039
X137871Y99417
X128225Y99516
X121434Y100402
X173993Y101091
X173993Y95579
X173993Y91215
X173993Y86819
X178914Y81799
X186001Y92823
X188461Y132390
X20646Y125500
X20646Y38295
X20646Y21760
T02
X135944Y69496
T03
X139446Y69847
X103717Y64870
X99879Y64969
X53969Y73827
X51453Y76287
X51158Y79732
X51060Y71366
T04
X154603Y49516
T05
X165823Y54929
X165627Y83472
T06
X187182Y109555
X187182Y121366
T07
X154524Y141661
X144524Y141661
X134524Y141661
X124524Y141661
X114524Y141661
X114524Y151661
X124524Y151661
X134524Y151661
X144524Y151661
X154524Y151661
T08
X70331Y118000
X60331Y118000
X60331Y108000
X70331Y108000
X70331Y98000
X60331Y98000
X60331Y88000
X70331Y88000
X70331Y78000
X60331Y78000
X60331Y68000
X70331Y68000
X70331Y58000
X60331Y58000
X60331Y48000
X70331Y48000
X70331Y38000
X60331Y38000
X60331Y28000
X70331Y28000
X70331Y18000
X60331Y18000
X60331Y8000
X70331Y8000
X80292Y8000
X90292Y8000
X100292Y8000
X110292Y8000
X120292Y8000
X130292Y8000
X130292Y18000
X120292Y18000
X110292Y18000
X100292Y18000
X90292Y18000
X80292Y18000
X186198Y26386
X186198Y36386
T09
X186296Y10343
X186296Y152075
M30
