G75*
%MOIN*%
%OFA0B0*%
%FSLAX25Y25*%
%IPPOS*%
%LPD*%
%AMOC8*
5,1,8,0,0,1.08239X$1,22.5*
%
%ADD10C,0.00200*%
%ADD11R,0.00100X0.00900*%
%ADD12R,0.00100X0.01200*%
%ADD13R,0.00100X0.00800*%
%ADD14R,0.00100X0.01000*%
%ADD15R,0.00100X0.00100*%
%ADD16R,0.00100X0.02700*%
%ADD17R,0.00100X0.02600*%
%ADD18R,0.00100X0.02100*%
%ADD19R,0.00100X0.00300*%
%ADD20R,0.00100X0.00200*%
%ADD21R,0.00100X0.02900*%
%ADD22R,0.00100X0.02800*%
%ADD23R,0.00100X0.02500*%
%ADD24R,0.00100X0.03000*%
%ADD25R,0.00100X0.01100*%
%ADD26R,0.00100X0.03100*%
%ADD27R,0.00100X0.01300*%
%ADD28R,0.00100X0.01400*%
%ADD29R,0.00100X0.01500*%
%ADD30R,0.00100X0.01700*%
%ADD31R,0.00100X0.00700*%
%ADD32R,0.00100X0.03200*%
%ADD33R,0.00100X0.02300*%
%ADD34R,0.00100X0.02400*%
%ADD35R,0.00100X0.01600*%
%ADD36R,0.00100X0.02200*%
%ADD37R,0.00100X0.01800*%
%ADD38R,0.00100X0.00600*%
%ADD39R,0.00100X0.01900*%
%ADD40R,0.00100X0.02000*%
%ADD41R,0.00100X0.00400*%
%ADD42R,0.00100X0.00500*%
%ADD43R,0.00100X0.03300*%
%ADD44R,0.00100X0.03400*%
%ADD45R,0.00100X0.03800*%
%ADD46R,0.00100X0.03900*%
%ADD47R,0.00100X0.03600*%
%ADD48R,0.00100X0.04200*%
%ADD49R,0.00100X0.04100*%
%ADD50R,0.00100X0.05100*%
%ADD51R,0.00100X0.04400*%
%ADD52R,0.00100X0.03500*%
%ADD53R,0.00100X0.04300*%
%ADD54R,0.00100X0.04000*%
%ADD55C,0.00100*%
%ADD56C,0.00300*%
%ADD57C,0.00800*%
D10*
X0044043Y0007687D02*
X0045511Y0007687D01*
X0044777Y0007687D02*
X0044777Y0009888D01*
X0045511Y0009155D01*
X0046253Y0007687D02*
X0047721Y0007687D01*
X0046987Y0007687D02*
X0046987Y0009888D01*
X0047721Y0009155D01*
X0048463Y0009522D02*
X0048830Y0009888D01*
X0049931Y0009888D01*
X0049931Y0007687D01*
X0048830Y0007687D01*
X0048463Y0008054D01*
X0048463Y0009522D01*
X0048418Y0010639D02*
X0049886Y0010639D01*
X0049152Y0010639D02*
X0049152Y0012841D01*
X0049886Y0012107D01*
X0050628Y0012474D02*
X0050995Y0012841D01*
X0052096Y0012841D01*
X0052096Y0010639D01*
X0050995Y0010639D01*
X0050628Y0011006D01*
X0050628Y0012474D01*
X0052838Y0012474D02*
X0053205Y0012841D01*
X0054306Y0012841D01*
X0054306Y0010639D01*
X0054306Y0011373D02*
X0053205Y0011373D01*
X0052838Y0011740D01*
X0052838Y0012474D01*
X0052141Y0009888D02*
X0051040Y0009888D01*
X0050673Y0009522D01*
X0050673Y0008788D01*
X0051040Y0008421D01*
X0052141Y0008421D01*
X0052141Y0007687D02*
X0052141Y0009888D01*
X0047677Y0011006D02*
X0046209Y0012474D01*
X0046209Y0011006D01*
X0046576Y0010639D01*
X0047310Y0010639D01*
X0047677Y0011006D01*
X0047677Y0012474D01*
X0047310Y0012841D01*
X0046576Y0012841D01*
X0046209Y0012474D01*
X0046620Y0017726D02*
X0046253Y0018093D01*
X0046253Y0019561D01*
X0046620Y0019928D01*
X0047354Y0019928D01*
X0047721Y0019561D01*
X0047721Y0019194D01*
X0047354Y0018827D01*
X0046253Y0018827D01*
X0046620Y0017726D02*
X0047354Y0017726D01*
X0047721Y0018093D01*
X0048463Y0018093D02*
X0048463Y0019561D01*
X0048830Y0019928D01*
X0049931Y0019928D01*
X0049931Y0017726D01*
X0048830Y0017726D01*
X0048463Y0018093D01*
X0050673Y0018827D02*
X0051040Y0018460D01*
X0052141Y0018460D01*
X0052141Y0017726D02*
X0052141Y0019928D01*
X0051040Y0019928D01*
X0050673Y0019561D01*
X0050673Y0018827D01*
X0050995Y0020679D02*
X0050628Y0021046D01*
X0050628Y0022514D01*
X0050995Y0022881D01*
X0052096Y0022881D01*
X0052096Y0020679D01*
X0050995Y0020679D01*
X0049886Y0020679D02*
X0048418Y0020679D01*
X0049152Y0020679D02*
X0049152Y0022881D01*
X0049886Y0022147D01*
X0047677Y0022514D02*
X0047310Y0022881D01*
X0046576Y0022881D01*
X0046209Y0022514D01*
X0046209Y0022147D01*
X0047677Y0020679D01*
X0046209Y0020679D01*
X0052838Y0021780D02*
X0053205Y0021413D01*
X0054306Y0021413D01*
X0054306Y0020679D02*
X0054306Y0022881D01*
X0053205Y0022881D01*
X0052838Y0022514D01*
X0052838Y0021780D01*
X0052141Y0027765D02*
X0052141Y0029967D01*
X0051040Y0029967D01*
X0050673Y0029600D01*
X0050673Y0028866D01*
X0051040Y0028499D01*
X0052141Y0028499D01*
X0049931Y0027765D02*
X0049931Y0029967D01*
X0048830Y0029967D01*
X0048463Y0029600D01*
X0048463Y0028132D01*
X0048830Y0027765D01*
X0049931Y0027765D01*
X0047721Y0027765D02*
X0046253Y0027765D01*
X0046987Y0027765D02*
X0046987Y0029967D01*
X0047721Y0029233D01*
X0048418Y0030718D02*
X0049886Y0030718D01*
X0049152Y0030718D02*
X0049152Y0032920D01*
X0049886Y0032186D01*
X0050628Y0032553D02*
X0050995Y0032920D01*
X0052096Y0032920D01*
X0052096Y0030718D01*
X0050995Y0030718D01*
X0050628Y0031085D01*
X0050628Y0032553D01*
X0052838Y0032553D02*
X0052838Y0031819D01*
X0053205Y0031452D01*
X0054306Y0031452D01*
X0054306Y0030718D02*
X0054306Y0032920D01*
X0053205Y0032920D01*
X0052838Y0032553D01*
X0051944Y0037411D02*
X0051944Y0039613D01*
X0050843Y0039613D01*
X0050476Y0039246D01*
X0050476Y0038512D01*
X0050843Y0038145D01*
X0051944Y0038145D01*
X0049734Y0037411D02*
X0048633Y0037411D01*
X0048266Y0037778D01*
X0048266Y0039246D01*
X0048633Y0039613D01*
X0049734Y0039613D01*
X0049734Y0037411D01*
X0047524Y0037411D02*
X0046056Y0037411D01*
X0046790Y0037411D02*
X0046790Y0039613D01*
X0047524Y0038879D01*
X0048589Y0040561D02*
X0049323Y0040561D01*
X0049690Y0040928D01*
X0048222Y0042396D01*
X0048222Y0040928D01*
X0048589Y0040561D01*
X0049690Y0040928D02*
X0049690Y0042396D01*
X0049323Y0042763D01*
X0048589Y0042763D01*
X0048222Y0042396D01*
X0050432Y0042029D02*
X0050432Y0040561D01*
X0050432Y0041662D02*
X0051899Y0041662D01*
X0051899Y0042029D02*
X0051165Y0042763D01*
X0050432Y0042029D01*
X0051899Y0042029D02*
X0051899Y0040561D01*
X0052641Y0041662D02*
X0053008Y0041295D01*
X0054109Y0041295D01*
X0054109Y0040561D02*
X0054109Y0042763D01*
X0053008Y0042763D01*
X0052641Y0042396D01*
X0052641Y0041662D01*
X0051944Y0045876D02*
X0051944Y0048077D01*
X0050843Y0048077D01*
X0050476Y0047710D01*
X0050476Y0046977D01*
X0050843Y0046610D01*
X0051944Y0046610D01*
X0051899Y0048631D02*
X0051899Y0050099D01*
X0051165Y0050833D01*
X0050432Y0050099D01*
X0050432Y0048631D01*
X0049690Y0048631D02*
X0048222Y0050099D01*
X0048222Y0050466D01*
X0048589Y0050833D01*
X0049323Y0050833D01*
X0049690Y0050466D01*
X0050432Y0049732D02*
X0051899Y0049732D01*
X0052641Y0049732D02*
X0053008Y0049365D01*
X0054109Y0049365D01*
X0054109Y0048631D02*
X0054109Y0050833D01*
X0053008Y0050833D01*
X0052641Y0050466D01*
X0052641Y0049732D01*
X0049690Y0048631D02*
X0048222Y0048631D01*
X0049000Y0048077D02*
X0048266Y0047344D01*
X0048266Y0045876D01*
X0047524Y0045876D02*
X0046056Y0045876D01*
X0046790Y0045876D02*
X0046790Y0048077D01*
X0047524Y0047344D01*
X0048266Y0046977D02*
X0049734Y0046977D01*
X0049734Y0047344D02*
X0049000Y0048077D01*
X0049734Y0047344D02*
X0049734Y0045876D01*
X0045314Y0039613D02*
X0045314Y0038512D01*
X0044580Y0038879D01*
X0044213Y0038879D01*
X0043846Y0038512D01*
X0043846Y0037778D01*
X0044213Y0037411D01*
X0044947Y0037411D01*
X0045314Y0037778D01*
X0045314Y0039613D02*
X0043846Y0039613D01*
X0046576Y0032920D02*
X0047677Y0031819D01*
X0046209Y0031819D01*
X0046576Y0030718D02*
X0046576Y0032920D01*
X0045144Y0029967D02*
X0044410Y0029967D01*
X0044043Y0029600D01*
X0044043Y0029233D01*
X0044410Y0028866D01*
X0044043Y0028499D01*
X0044043Y0028132D01*
X0044410Y0027765D01*
X0045144Y0027765D01*
X0045511Y0028132D01*
X0044777Y0028866D02*
X0044410Y0028866D01*
X0045511Y0029600D02*
X0045144Y0029967D01*
X0045117Y0055521D02*
X0045117Y0056989D01*
X0045851Y0057723D01*
X0046584Y0056989D01*
X0046584Y0055521D01*
X0046584Y0056622D02*
X0045117Y0056622D01*
X0044375Y0056622D02*
X0042907Y0056622D01*
X0043274Y0055521D02*
X0043274Y0057723D01*
X0044375Y0056622D01*
X0047326Y0056622D02*
X0047326Y0057356D01*
X0047693Y0057723D01*
X0048794Y0057723D01*
X0048794Y0055521D01*
X0048794Y0056255D02*
X0047693Y0056255D01*
X0047326Y0056622D01*
X0048589Y0058671D02*
X0049323Y0058671D01*
X0049690Y0059038D01*
X0050432Y0058671D02*
X0050432Y0060139D01*
X0051165Y0060873D01*
X0051899Y0060139D01*
X0051899Y0058671D01*
X0051899Y0059772D02*
X0050432Y0059772D01*
X0049690Y0060506D02*
X0049323Y0060873D01*
X0048589Y0060873D01*
X0048222Y0060506D01*
X0048222Y0060139D01*
X0048589Y0059772D01*
X0048222Y0059405D01*
X0048222Y0059038D01*
X0048589Y0058671D01*
X0048589Y0059772D02*
X0048956Y0059772D01*
X0052641Y0059772D02*
X0053008Y0059405D01*
X0054109Y0059405D01*
X0054109Y0058671D02*
X0054109Y0060873D01*
X0053008Y0060873D01*
X0052641Y0060506D01*
X0052641Y0059772D01*
X0051577Y0064773D02*
X0051944Y0065140D01*
X0051577Y0064773D02*
X0050843Y0064773D01*
X0050476Y0065140D01*
X0050476Y0065507D01*
X0050843Y0065874D01*
X0051577Y0065874D01*
X0051944Y0066241D01*
X0051944Y0066608D01*
X0051577Y0066975D01*
X0050843Y0066975D01*
X0050476Y0066608D01*
X0049734Y0066608D02*
X0049734Y0065140D01*
X0049367Y0064773D01*
X0048633Y0064773D01*
X0048266Y0065140D01*
X0047524Y0064773D02*
X0047524Y0066975D01*
X0048266Y0066608D02*
X0048633Y0066975D01*
X0049367Y0066975D01*
X0049734Y0066608D01*
X0049690Y0067529D02*
X0049690Y0068997D01*
X0048956Y0069731D01*
X0048222Y0068997D01*
X0048222Y0067529D01*
X0048222Y0068630D02*
X0049690Y0068630D01*
X0050432Y0067896D02*
X0050432Y0069364D01*
X0050798Y0069731D01*
X0051899Y0069731D01*
X0051899Y0067529D01*
X0050798Y0067529D01*
X0050432Y0067896D01*
X0052641Y0067896D02*
X0053008Y0067529D01*
X0053742Y0067529D01*
X0054109Y0067896D01*
X0053742Y0068630D02*
X0054109Y0068997D01*
X0054109Y0069364D01*
X0053742Y0069731D01*
X0053008Y0069731D01*
X0052641Y0069364D01*
X0053008Y0068630D02*
X0052641Y0068263D01*
X0052641Y0067896D01*
X0053008Y0068630D02*
X0053742Y0068630D01*
X0047524Y0064773D02*
X0046056Y0064773D01*
X0046226Y0088198D02*
X0045859Y0088565D01*
X0045859Y0090033D01*
X0046226Y0090400D01*
X0047327Y0090400D01*
X0047327Y0088198D01*
X0046226Y0088198D01*
X0048069Y0088198D02*
X0048069Y0090400D01*
X0048392Y0090954D02*
X0049126Y0090954D01*
X0049493Y0091321D01*
X0050235Y0091688D02*
X0050235Y0093156D01*
X0049493Y0092789D02*
X0049126Y0093156D01*
X0048392Y0093156D01*
X0048025Y0092789D01*
X0048025Y0092422D01*
X0048392Y0092055D01*
X0048025Y0091688D01*
X0048025Y0091321D01*
X0048392Y0090954D01*
X0048392Y0092055D02*
X0048759Y0092055D01*
X0050235Y0091688D02*
X0050969Y0090954D01*
X0051703Y0091688D01*
X0051703Y0093156D01*
X0052445Y0092789D02*
X0052445Y0092422D01*
X0052812Y0092055D01*
X0052445Y0091688D01*
X0052445Y0091321D01*
X0052812Y0090954D01*
X0053545Y0090954D01*
X0053912Y0091321D01*
X0053179Y0092055D02*
X0052812Y0092055D01*
X0052445Y0092789D02*
X0052812Y0093156D01*
X0053545Y0093156D01*
X0053912Y0092789D01*
X0051380Y0090400D02*
X0051747Y0090033D01*
X0051747Y0088565D01*
X0051380Y0088198D01*
X0050646Y0088198D01*
X0050279Y0088565D01*
X0050279Y0089299D01*
X0051013Y0089299D01*
X0050279Y0090033D02*
X0050646Y0090400D01*
X0051380Y0090400D01*
X0049537Y0090400D02*
X0048069Y0088198D01*
X0049537Y0088198D02*
X0049537Y0090400D01*
X0045073Y0090954D02*
X0043605Y0092422D01*
X0042863Y0092789D02*
X0042496Y0093156D01*
X0041762Y0093156D01*
X0041395Y0092789D01*
X0041395Y0092422D01*
X0042863Y0090954D01*
X0041395Y0090954D01*
X0040698Y0090033D02*
X0040331Y0090400D01*
X0039597Y0090400D01*
X0039230Y0090033D01*
X0039230Y0089666D01*
X0040698Y0088198D01*
X0039230Y0088198D01*
X0041440Y0088198D02*
X0042908Y0089666D01*
X0043605Y0090954D02*
X0045073Y0092422D01*
X0041440Y0089666D02*
X0042908Y0088198D01*
X0042862Y0097254D02*
X0043963Y0098354D01*
X0044330Y0097987D02*
X0042862Y0099455D01*
X0042818Y0100206D02*
X0043919Y0101307D01*
X0044286Y0100940D02*
X0042818Y0102408D01*
X0044286Y0102408D02*
X0044286Y0100206D01*
X0045028Y0100206D02*
X0046495Y0100206D01*
X0046495Y0102408D01*
X0047237Y0102041D02*
X0047604Y0102408D01*
X0048338Y0102408D01*
X0048705Y0102041D01*
X0048705Y0100573D01*
X0048338Y0100206D01*
X0047604Y0100206D01*
X0047237Y0100573D01*
X0047649Y0099455D02*
X0047282Y0099088D01*
X0047649Y0099455D02*
X0048383Y0099455D01*
X0048750Y0099088D01*
X0048750Y0097621D01*
X0048383Y0097254D01*
X0047649Y0097254D01*
X0047282Y0097621D01*
X0046540Y0097254D02*
X0045072Y0097254D01*
X0044330Y0097254D02*
X0044330Y0099455D01*
X0046540Y0099455D02*
X0046540Y0097254D01*
X0049492Y0097621D02*
X0049859Y0097254D01*
X0050960Y0097254D01*
X0050960Y0099455D01*
X0049859Y0099455D01*
X0049492Y0099088D01*
X0049492Y0098721D01*
X0049859Y0098354D01*
X0050960Y0098354D01*
X0049859Y0098354D02*
X0049492Y0097987D01*
X0049492Y0097621D01*
X0049447Y0100206D02*
X0050181Y0100940D01*
X0049814Y0100940D02*
X0050915Y0100940D01*
X0050915Y0100206D02*
X0050915Y0102408D01*
X0049814Y0102408D01*
X0049447Y0102041D01*
X0049447Y0101307D01*
X0049814Y0100940D01*
X0051657Y0100206D02*
X0053125Y0100206D01*
X0053125Y0102408D01*
X0051157Y0107490D02*
X0051157Y0108958D01*
X0050423Y0109692D01*
X0049689Y0108958D01*
X0049689Y0107490D01*
X0048947Y0107490D02*
X0048947Y0109692D01*
X0047846Y0109692D01*
X0047479Y0109325D01*
X0047479Y0107857D01*
X0047846Y0107490D01*
X0048947Y0107490D01*
X0049689Y0108591D02*
X0051157Y0108591D01*
X0047873Y0110469D02*
X0046405Y0110469D01*
X0046370Y0109692D02*
X0046737Y0109325D01*
X0046737Y0107857D01*
X0046370Y0107490D01*
X0045636Y0107490D01*
X0045269Y0107857D01*
X0044527Y0107123D02*
X0043059Y0107123D01*
X0042317Y0107857D02*
X0041950Y0107490D01*
X0041216Y0107490D01*
X0040849Y0107857D01*
X0040849Y0108224D01*
X0041216Y0108591D01*
X0041950Y0108591D01*
X0042317Y0108958D01*
X0042317Y0109325D01*
X0041950Y0109692D01*
X0041216Y0109692D01*
X0040849Y0109325D01*
X0040107Y0109692D02*
X0039006Y0109692D01*
X0038639Y0109325D01*
X0038639Y0107857D01*
X0039006Y0107490D01*
X0040107Y0107490D01*
X0040107Y0109692D01*
X0039776Y0110836D02*
X0039776Y0112304D01*
X0040510Y0113038D01*
X0041244Y0112304D01*
X0041244Y0110836D01*
X0041986Y0111203D02*
X0041986Y0112671D01*
X0042353Y0113038D01*
X0043454Y0113038D01*
X0043454Y0110836D01*
X0042353Y0110836D01*
X0041986Y0111203D01*
X0041244Y0111937D02*
X0039776Y0111937D01*
X0039034Y0113038D02*
X0037566Y0113038D01*
X0038300Y0113038D02*
X0038300Y0110836D01*
X0036824Y0110836D02*
X0036824Y0112304D01*
X0036090Y0113038D01*
X0035356Y0112304D01*
X0035356Y0110836D01*
X0035356Y0111937D02*
X0036824Y0111937D01*
X0037163Y0109692D02*
X0036429Y0108958D01*
X0036429Y0107490D01*
X0036429Y0108591D02*
X0037897Y0108591D01*
X0037897Y0108958D02*
X0037897Y0107490D01*
X0037897Y0108958D02*
X0037163Y0109692D01*
X0035687Y0109692D02*
X0034219Y0109692D01*
X0034953Y0109692D02*
X0034953Y0107490D01*
X0033478Y0107490D02*
X0033478Y0108958D01*
X0032744Y0109692D01*
X0032010Y0108958D01*
X0032010Y0107490D01*
X0031268Y0107857D02*
X0029800Y0109325D01*
X0029800Y0107857D01*
X0030167Y0107490D01*
X0030901Y0107490D01*
X0031268Y0107857D01*
X0031268Y0109325D01*
X0030901Y0109692D01*
X0030167Y0109692D01*
X0029800Y0109325D01*
X0032010Y0108591D02*
X0033478Y0108591D01*
X0033728Y0117529D02*
X0033728Y0119731D01*
X0034462Y0118997D01*
X0035204Y0118997D02*
X0035204Y0117529D01*
X0034462Y0117529D02*
X0032994Y0117529D01*
X0035204Y0118630D02*
X0036672Y0118630D01*
X0036672Y0118997D02*
X0035938Y0119731D01*
X0035204Y0118997D01*
X0036672Y0118997D02*
X0036672Y0117529D01*
X0038148Y0117529D02*
X0038148Y0119731D01*
X0038882Y0119731D02*
X0037414Y0119731D01*
X0039623Y0118997D02*
X0039623Y0117529D01*
X0039623Y0118630D02*
X0041091Y0118630D01*
X0041091Y0118997D02*
X0040357Y0119731D01*
X0039623Y0118997D01*
X0041091Y0118997D02*
X0041091Y0117529D01*
X0041833Y0117896D02*
X0041833Y0119364D01*
X0042200Y0119731D01*
X0043301Y0119731D01*
X0043301Y0117529D01*
X0042200Y0117529D01*
X0041833Y0117896D01*
X0044043Y0117896D02*
X0044410Y0117529D01*
X0045144Y0117529D01*
X0045511Y0117896D01*
X0046253Y0117896D02*
X0046620Y0117529D01*
X0047354Y0117529D01*
X0047721Y0117896D01*
X0047721Y0119364D01*
X0047354Y0119731D01*
X0046620Y0119731D01*
X0046253Y0119364D01*
X0045511Y0119364D02*
X0045144Y0119731D01*
X0044410Y0119731D01*
X0044043Y0119364D01*
X0044410Y0118630D02*
X0044043Y0118263D01*
X0044043Y0117896D01*
X0044410Y0118630D02*
X0045144Y0118630D01*
X0045511Y0118997D01*
X0045511Y0119364D01*
X0046405Y0120679D02*
X0047506Y0121780D01*
X0047873Y0121413D02*
X0046405Y0122881D01*
X0047873Y0122881D02*
X0047873Y0120679D01*
X0048615Y0120679D02*
X0050083Y0120679D01*
X0050083Y0122881D01*
X0050825Y0122514D02*
X0051192Y0122881D01*
X0051926Y0122881D01*
X0052293Y0122514D01*
X0052293Y0121046D01*
X0051926Y0120679D01*
X0051192Y0120679D01*
X0050825Y0121046D01*
X0051407Y0119731D02*
X0050673Y0118997D01*
X0050673Y0117529D01*
X0049931Y0117529D02*
X0048830Y0117529D01*
X0048463Y0117896D01*
X0048463Y0119364D01*
X0048830Y0119731D01*
X0049931Y0119731D01*
X0049931Y0117529D01*
X0050673Y0118630D02*
X0052141Y0118630D01*
X0052141Y0118997D02*
X0051407Y0119731D01*
X0052141Y0118997D02*
X0052141Y0117529D01*
X0053035Y0120679D02*
X0053035Y0122881D01*
X0053769Y0122147D01*
X0054503Y0122881D01*
X0054503Y0120679D01*
X0054503Y0113038D02*
X0053402Y0113038D01*
X0053035Y0112671D01*
X0053035Y0111203D01*
X0053402Y0110836D01*
X0054503Y0110836D01*
X0054503Y0113038D01*
X0052293Y0112304D02*
X0052293Y0110836D01*
X0052293Y0111937D02*
X0050825Y0111937D01*
X0050825Y0112304D02*
X0050825Y0110836D01*
X0050083Y0111203D02*
X0049716Y0110836D01*
X0048982Y0110836D01*
X0048615Y0111203D01*
X0048615Y0112671D02*
X0048982Y0113038D01*
X0049716Y0113038D01*
X0050083Y0112671D01*
X0050083Y0111203D01*
X0050825Y0112304D02*
X0051559Y0113038D01*
X0052293Y0112304D01*
X0046370Y0109692D02*
X0045636Y0109692D01*
X0045269Y0109325D01*
X0045297Y0110836D02*
X0045663Y0111203D01*
X0045297Y0110836D02*
X0044563Y0110836D01*
X0044196Y0111203D01*
X0044196Y0111570D01*
X0044563Y0111937D01*
X0045297Y0111937D01*
X0045663Y0112304D01*
X0045663Y0112671D01*
X0045297Y0113038D01*
X0044563Y0113038D01*
X0044196Y0112671D01*
X0118325Y0032418D02*
X0118325Y0030950D01*
X0120527Y0030950D01*
X0120527Y0030208D02*
X0120527Y0028740D01*
X0120527Y0029474D02*
X0118325Y0029474D01*
X0118692Y0027998D02*
X0120527Y0027998D01*
X0120527Y0026530D02*
X0118692Y0026530D01*
X0118325Y0026897D01*
X0118325Y0027631D01*
X0118692Y0027998D01*
X0118692Y0025788D02*
X0120160Y0025788D01*
X0120527Y0025421D01*
X0120527Y0024687D01*
X0120160Y0024320D01*
X0118692Y0024320D01*
X0118325Y0024687D01*
X0118325Y0025421D01*
X0118692Y0025788D01*
X0112849Y0025932D02*
X0112116Y0025932D01*
X0112482Y0025932D02*
X0112482Y0023730D01*
X0112116Y0023730D02*
X0112849Y0023730D01*
X0111376Y0023730D02*
X0111376Y0025932D01*
X0109908Y0023730D01*
X0109908Y0025932D01*
X0109166Y0025565D02*
X0108799Y0025932D01*
X0108065Y0025932D01*
X0107698Y0025565D01*
X0107698Y0025198D01*
X0108065Y0024831D01*
X0107698Y0024464D01*
X0107698Y0024097D01*
X0108065Y0023730D01*
X0108799Y0023730D01*
X0109166Y0024097D01*
X0108432Y0024831D02*
X0108065Y0024831D01*
X0102849Y0025932D02*
X0102116Y0025932D01*
X0102482Y0025932D02*
X0102482Y0023730D01*
X0102116Y0023730D02*
X0102849Y0023730D01*
X0101376Y0023730D02*
X0101376Y0025932D01*
X0099908Y0023730D01*
X0099908Y0025932D01*
X0099166Y0025565D02*
X0098799Y0025932D01*
X0098065Y0025932D01*
X0097698Y0025565D01*
X0097698Y0025198D01*
X0099166Y0023730D01*
X0097698Y0023730D01*
X0092849Y0023730D02*
X0092116Y0023730D01*
X0092482Y0023730D02*
X0092482Y0025932D01*
X0092116Y0025932D02*
X0092849Y0025932D01*
X0091376Y0025932D02*
X0089908Y0023730D01*
X0089908Y0025932D01*
X0089166Y0025198D02*
X0088432Y0025932D01*
X0088432Y0023730D01*
X0089166Y0023730D02*
X0087698Y0023730D01*
X0091376Y0023730D02*
X0091376Y0025932D01*
X0082849Y0025932D02*
X0082116Y0025932D01*
X0082482Y0025932D02*
X0082482Y0023730D01*
X0082116Y0023730D02*
X0082849Y0023730D01*
X0081376Y0023730D02*
X0081376Y0025932D01*
X0079908Y0023730D01*
X0079908Y0025932D01*
X0079166Y0025565D02*
X0078799Y0025932D01*
X0078065Y0025932D01*
X0077698Y0025565D01*
X0079166Y0024097D01*
X0078799Y0023730D01*
X0078065Y0023730D01*
X0077698Y0024097D01*
X0077698Y0025565D01*
X0079166Y0025565D02*
X0079166Y0024097D01*
X0128325Y0024687D02*
X0128325Y0025421D01*
X0128692Y0025788D01*
X0130160Y0025788D01*
X0130527Y0025421D01*
X0130527Y0024687D01*
X0130160Y0024320D01*
X0128692Y0024320D01*
X0128325Y0024687D01*
X0128692Y0026530D02*
X0128325Y0026897D01*
X0128325Y0027631D01*
X0128692Y0027998D01*
X0130527Y0027998D01*
X0130527Y0028740D02*
X0130527Y0030208D01*
X0130527Y0029474D02*
X0128325Y0029474D01*
X0128325Y0030950D02*
X0130527Y0030950D01*
X0130527Y0032051D01*
X0130160Y0032418D01*
X0129426Y0032418D01*
X0129059Y0032051D01*
X0129059Y0030950D01*
X0129059Y0031684D02*
X0128325Y0032418D01*
X0128692Y0026530D02*
X0130527Y0026530D01*
X0136899Y0008925D02*
X0137633Y0008559D01*
X0138366Y0007825D01*
X0137266Y0007825D01*
X0136899Y0007458D01*
X0136899Y0007091D01*
X0137266Y0006724D01*
X0138000Y0006724D01*
X0138366Y0007091D01*
X0138366Y0007825D01*
X0139108Y0008192D02*
X0140576Y0006724D01*
X0140576Y0008192D02*
X0139108Y0006724D01*
X0143528Y0007091D02*
X0143528Y0008559D01*
X0143895Y0008925D01*
X0144996Y0008925D01*
X0144996Y0006724D01*
X0143895Y0006724D01*
X0143528Y0007091D01*
X0145738Y0006724D02*
X0145738Y0008925D01*
X0147206Y0008925D02*
X0145738Y0006724D01*
X0147206Y0006724D02*
X0147206Y0008925D01*
X0147948Y0008559D02*
X0148315Y0008925D01*
X0149049Y0008925D01*
X0149416Y0008559D01*
X0149416Y0007091D01*
X0149049Y0006724D01*
X0148315Y0006724D01*
X0147948Y0007091D01*
X0147948Y0007825D01*
X0148682Y0007825D01*
X0185319Y0102372D02*
X0185319Y0104574D01*
X0183852Y0104574D01*
X0184586Y0103473D02*
X0185319Y0103473D01*
X0186061Y0104574D02*
X0187529Y0104574D01*
X0187529Y0102372D01*
X0188271Y0102739D02*
X0188271Y0104207D01*
X0188638Y0104574D01*
X0189372Y0104574D01*
X0189739Y0104207D01*
X0189739Y0102739D01*
X0189372Y0102372D01*
X0188638Y0102372D01*
X0188271Y0102739D01*
X0187529Y0103473D02*
X0186795Y0103473D01*
X0186742Y0126191D02*
X0186742Y0128392D01*
X0185274Y0126191D01*
X0185274Y0128392D01*
X0187484Y0128025D02*
X0187851Y0128392D01*
X0188585Y0128392D01*
X0188952Y0128025D01*
X0188952Y0126558D01*
X0188585Y0126191D01*
X0187851Y0126191D01*
X0187484Y0126558D01*
X0187484Y0128025D01*
D11*
X0168609Y0046128D03*
X0168409Y0046128D03*
X0167609Y0046128D03*
X0167409Y0046128D03*
X0167209Y0043928D03*
X0167609Y0043828D03*
X0167809Y0043828D03*
X0168009Y0043828D03*
X0168209Y0043828D03*
X0168409Y0043828D03*
X0168809Y0043928D03*
X0168609Y0042428D03*
X0168409Y0042428D03*
X0168209Y0042428D03*
X0168009Y0042428D03*
X0167809Y0042428D03*
X0167609Y0042428D03*
X0167409Y0042428D03*
X0166209Y0042428D03*
X0167409Y0040228D03*
X0167609Y0040228D03*
X0167809Y0040228D03*
X0168009Y0040228D03*
X0168209Y0040228D03*
X0168409Y0040228D03*
X0168609Y0040228D03*
X0168409Y0038928D03*
X0168809Y0038828D03*
X0167609Y0038928D03*
X0167209Y0038828D03*
X0167209Y0036728D03*
X0167409Y0036628D03*
X0167609Y0036628D03*
X0167609Y0035228D03*
X0167809Y0035228D03*
X0168009Y0035228D03*
X0168209Y0035228D03*
X0168409Y0035228D03*
X0168609Y0035228D03*
X0168809Y0035228D03*
X0169009Y0035228D03*
X0169209Y0035228D03*
X0169409Y0035228D03*
X0169609Y0035228D03*
X0169809Y0035228D03*
X0173209Y0035028D03*
X0173009Y0036728D03*
X0174809Y0036728D03*
X0174409Y0038828D03*
X0174809Y0038928D03*
X0174809Y0040228D03*
X0175009Y0040228D03*
X0175209Y0040228D03*
X0175409Y0040228D03*
X0175609Y0040228D03*
X0175809Y0040228D03*
X0174609Y0040228D03*
X0174409Y0040228D03*
X0174209Y0040228D03*
X0174009Y0040228D03*
X0173809Y0040228D03*
X0173609Y0040228D03*
X0173409Y0040228D03*
X0173209Y0040228D03*
X0173209Y0042428D03*
X0173409Y0042428D03*
X0173609Y0042428D03*
X0173809Y0042428D03*
X0174009Y0042428D03*
X0174209Y0042428D03*
X0174409Y0042428D03*
X0174609Y0042428D03*
X0174809Y0042428D03*
X0175009Y0042428D03*
X0175209Y0042428D03*
X0175409Y0042428D03*
X0175609Y0042428D03*
X0175809Y0042428D03*
X0172209Y0042428D03*
X0172009Y0042428D03*
X0171809Y0042428D03*
X0171609Y0042428D03*
X0171409Y0042428D03*
X0171209Y0042428D03*
X0171009Y0042428D03*
X0170809Y0042428D03*
X0170609Y0042428D03*
X0170409Y0042428D03*
X0170209Y0042428D03*
X0170009Y0042428D03*
X0169809Y0042428D03*
X0167409Y0035228D03*
X0166209Y0035228D03*
X0167409Y0033028D03*
X0167409Y0029928D03*
X0167209Y0029928D03*
X0168809Y0027728D03*
X0169009Y0027828D03*
X0168609Y0026528D03*
X0168409Y0026528D03*
X0167609Y0026528D03*
X0167409Y0026528D03*
X0167409Y0024328D03*
X0167609Y0024228D03*
X0167809Y0024228D03*
X0168009Y0024228D03*
X0168209Y0024228D03*
X0168409Y0024228D03*
X0168809Y0024328D03*
X0168609Y0022828D03*
X0168409Y0022828D03*
X0168209Y0022828D03*
X0168009Y0022828D03*
X0167809Y0022828D03*
X0167609Y0022828D03*
X0167409Y0022828D03*
X0167209Y0022828D03*
X0167009Y0022828D03*
X0166809Y0022828D03*
X0166609Y0022828D03*
X0166409Y0022828D03*
X0166209Y0022828D03*
X0166209Y0020628D03*
X0166409Y0020628D03*
X0166609Y0020628D03*
X0166809Y0020628D03*
X0167009Y0020628D03*
X0167209Y0020628D03*
X0167409Y0020628D03*
X0167609Y0020628D03*
X0167809Y0020628D03*
X0168009Y0020628D03*
X0168209Y0020628D03*
X0168409Y0020628D03*
X0168609Y0020628D03*
X0169809Y0020628D03*
X0169809Y0019028D03*
X0169609Y0019028D03*
X0169409Y0019028D03*
X0169209Y0019028D03*
X0169009Y0019028D03*
X0168809Y0019028D03*
X0168609Y0019028D03*
X0168409Y0019028D03*
X0168209Y0019028D03*
X0168009Y0019028D03*
X0167809Y0019028D03*
X0167609Y0019028D03*
X0167409Y0019028D03*
X0166209Y0019028D03*
X0167409Y0016528D03*
X0167609Y0016528D03*
X0167209Y0016428D03*
X0168409Y0016528D03*
X0168609Y0016528D03*
X0168809Y0016428D03*
X0168609Y0013328D03*
X0168809Y0013228D03*
X0167409Y0013328D03*
X0167209Y0013228D03*
X0167209Y0011128D03*
X0167409Y0011028D03*
X0167609Y0011028D03*
X0172009Y0016228D03*
X0173009Y0017228D03*
X0173209Y0017328D03*
X0174609Y0017328D03*
X0173409Y0015128D03*
X0173209Y0015128D03*
X0173209Y0019928D03*
X0173409Y0019928D03*
X0173409Y0021528D03*
X0173209Y0021528D03*
X0173009Y0021528D03*
X0174409Y0021528D03*
X0174609Y0021528D03*
X0174809Y0021528D03*
X0175809Y0021528D03*
X0174409Y0023728D03*
X0174009Y0025228D03*
X0173409Y0025028D03*
X0173009Y0024928D03*
X0172809Y0024828D03*
X0172609Y0024828D03*
X0172409Y0024728D03*
X0172009Y0024628D03*
X0175609Y0025728D03*
X0175609Y0028028D03*
X0173809Y0028628D03*
X0173409Y0028728D03*
X0173209Y0028828D03*
X0173009Y0028828D03*
X0172809Y0028928D03*
X0172609Y0028928D03*
X0172409Y0029028D03*
X0172209Y0029128D03*
X0172009Y0029128D03*
X0172009Y0030328D03*
X0172209Y0030328D03*
X0171809Y0030328D03*
X0171609Y0030328D03*
X0171409Y0030328D03*
X0171209Y0030328D03*
X0171009Y0030328D03*
X0170809Y0030328D03*
X0170609Y0030328D03*
X0173409Y0030328D03*
X0173609Y0030328D03*
X0173809Y0030328D03*
X0174009Y0030328D03*
X0174209Y0030328D03*
X0174409Y0030328D03*
X0174609Y0030328D03*
X0175809Y0030328D03*
X0174609Y0032528D03*
X0174409Y0032528D03*
X0174209Y0032528D03*
X0174009Y0032528D03*
X0173809Y0032528D03*
X0173609Y0032528D03*
X0173409Y0032528D03*
X0173209Y0032528D03*
X0172409Y0026928D03*
X0163009Y0037028D03*
X0160809Y0032528D03*
X0160609Y0032428D03*
X0160209Y0032328D03*
X0160009Y0032228D03*
X0159809Y0032128D03*
X0159609Y0032028D03*
X0159409Y0031928D03*
X0159009Y0031828D03*
X0158809Y0031728D03*
X0158609Y0031628D03*
X0158409Y0031528D03*
X0158209Y0031428D03*
X0157809Y0031328D03*
X0157609Y0031228D03*
X0157409Y0031128D03*
X0157209Y0031028D03*
X0156609Y0030828D03*
X0156409Y0030728D03*
X0156209Y0030628D03*
X0153209Y0032728D03*
X0153009Y0032828D03*
X0152809Y0032828D03*
X0152609Y0032828D03*
X0151609Y0032828D03*
X0151409Y0032828D03*
X0151009Y0032728D03*
X0150809Y0032628D03*
X0150609Y0032628D03*
X0150409Y0032528D03*
X0150209Y0032428D03*
X0146809Y0037328D03*
X0146609Y0037328D03*
X0141809Y0030828D03*
X0141609Y0030728D03*
X0141409Y0030728D03*
X0141209Y0030728D03*
X0141009Y0030628D03*
X0140809Y0030628D03*
X0140609Y0030628D03*
X0140409Y0030528D03*
X0140209Y0030528D03*
X0140009Y0030428D03*
X0139809Y0030428D03*
X0139609Y0030428D03*
X0139409Y0030328D03*
X0139209Y0030328D03*
X0139209Y0026828D03*
X0139409Y0026828D03*
X0139609Y0026828D03*
X0139809Y0026728D03*
X0140009Y0026728D03*
X0140209Y0026728D03*
X0140409Y0026628D03*
X0140609Y0026628D03*
X0140809Y0026528D03*
X0141009Y0026528D03*
X0141209Y0026528D03*
X0141409Y0026428D03*
X0141609Y0026428D03*
X0143809Y0023328D03*
X0146609Y0019828D03*
X0146809Y0019828D03*
X0147009Y0019828D03*
X0150409Y0024728D03*
X0150609Y0024628D03*
X0150809Y0024528D03*
X0151209Y0024428D03*
X0151809Y0024328D03*
X0152009Y0024328D03*
X0152209Y0024328D03*
X0152409Y0024328D03*
X0152609Y0024328D03*
X0153009Y0024428D03*
X0153209Y0024428D03*
X0153409Y0024528D03*
X0156209Y0026528D03*
X0156609Y0026428D03*
X0156809Y0026328D03*
X0157009Y0026228D03*
X0157209Y0026128D03*
X0157409Y0026028D03*
X0157809Y0025928D03*
X0158009Y0025828D03*
X0158209Y0025728D03*
X0158409Y0025628D03*
X0158609Y0025528D03*
X0159009Y0025428D03*
X0159209Y0025328D03*
X0159409Y0025228D03*
X0159609Y0025128D03*
X0160009Y0025028D03*
X0160209Y0024928D03*
X0160409Y0024828D03*
X0160609Y0024728D03*
X0160809Y0024628D03*
X0157609Y0019728D03*
X0157409Y0019728D03*
X0157209Y0019728D03*
X0157009Y0019628D03*
X0156809Y0019528D03*
X0156609Y0019428D03*
X0156409Y0019328D03*
X0156009Y0019228D03*
X0155809Y0019128D03*
X0155609Y0019028D03*
X0155409Y0018928D03*
X0155009Y0018828D03*
X0153409Y0015028D03*
X0153209Y0015028D03*
X0153009Y0015028D03*
X0152809Y0015028D03*
X0152609Y0015028D03*
X0152409Y0015028D03*
X0152209Y0015028D03*
X0152009Y0015028D03*
X0151809Y0015028D03*
X0151609Y0015028D03*
X0151409Y0015028D03*
X0151209Y0015028D03*
X0151009Y0015028D03*
X0157409Y0037428D03*
X0157609Y0037428D03*
X0157209Y0037528D03*
X0157009Y0037628D03*
X0156609Y0037728D03*
X0156409Y0037828D03*
X0156209Y0037928D03*
X0156009Y0038028D03*
X0155609Y0038128D03*
X0155409Y0038228D03*
X0155209Y0038328D03*
X0155009Y0038428D03*
D12*
X0158609Y0037978D03*
X0159209Y0038378D03*
X0159609Y0038678D03*
X0160209Y0039078D03*
X0160809Y0039078D03*
X0161009Y0038878D03*
X0161209Y0038678D03*
X0161409Y0038478D03*
X0161609Y0038278D03*
X0161809Y0038078D03*
X0162009Y0037878D03*
X0162209Y0037678D03*
X0167009Y0035078D03*
X0167009Y0033178D03*
X0172809Y0036878D03*
X0175809Y0037978D03*
X0169009Y0042278D03*
X0167009Y0042278D03*
X0167009Y0044078D03*
X0154809Y0031878D03*
X0154609Y0032078D03*
X0149209Y0031678D03*
X0149009Y0031478D03*
X0154809Y0025278D03*
X0156009Y0026478D03*
X0161609Y0024178D03*
X0167009Y0024478D03*
X0169009Y0022678D03*
X0169009Y0020778D03*
X0167009Y0018878D03*
X0167009Y0016278D03*
X0169009Y0016278D03*
X0172809Y0015478D03*
X0172809Y0017078D03*
X0175009Y0017078D03*
X0175809Y0016178D03*
X0175809Y0022878D03*
X0172009Y0022678D03*
X0175209Y0025778D03*
X0172809Y0026878D03*
X0162209Y0019478D03*
X0162009Y0019278D03*
X0161809Y0019078D03*
X0161609Y0018878D03*
X0161409Y0018678D03*
X0161209Y0018478D03*
X0161009Y0018278D03*
X0160809Y0018078D03*
X0160409Y0017978D03*
X0160009Y0018278D03*
X0159409Y0018678D03*
X0158809Y0019078D03*
X0143609Y0017978D03*
X0143609Y0039178D03*
D13*
X0151009Y0042178D03*
X0151209Y0042178D03*
X0151409Y0042178D03*
X0151609Y0042178D03*
X0151809Y0042178D03*
X0152009Y0042178D03*
X0152209Y0042178D03*
X0152409Y0042178D03*
X0152609Y0042178D03*
X0152809Y0042178D03*
X0153009Y0042178D03*
X0153209Y0042178D03*
X0153409Y0042178D03*
X0152409Y0032878D03*
X0152209Y0032878D03*
X0152009Y0032878D03*
X0151809Y0032878D03*
X0151209Y0032778D03*
X0151009Y0024478D03*
X0151409Y0024378D03*
X0151609Y0024378D03*
X0152809Y0024378D03*
X0161809Y0032878D03*
X0167609Y0032978D03*
X0167809Y0032978D03*
X0168009Y0032978D03*
X0168209Y0032978D03*
X0168409Y0032978D03*
X0168609Y0032978D03*
X0168809Y0032978D03*
X0169009Y0032978D03*
X0169209Y0032978D03*
X0169409Y0032978D03*
X0169609Y0032978D03*
X0169809Y0032978D03*
X0172009Y0033778D03*
X0172009Y0035078D03*
X0172209Y0035078D03*
X0173409Y0035078D03*
X0173609Y0035078D03*
X0173809Y0035078D03*
X0174009Y0035078D03*
X0174209Y0035078D03*
X0174409Y0035078D03*
X0174609Y0035078D03*
X0174809Y0035078D03*
X0175009Y0035078D03*
X0175209Y0035078D03*
X0175409Y0035078D03*
X0175609Y0035078D03*
X0175809Y0035078D03*
X0175809Y0036678D03*
X0174609Y0036678D03*
X0174409Y0036678D03*
X0173409Y0036678D03*
X0173209Y0036678D03*
X0174609Y0038978D03*
X0172009Y0041078D03*
X0168609Y0038878D03*
X0167409Y0038878D03*
X0167409Y0043878D03*
X0168609Y0043878D03*
X0168209Y0046178D03*
X0168009Y0046178D03*
X0167809Y0046178D03*
X0172009Y0031678D03*
X0173609Y0028678D03*
X0174009Y0028578D03*
X0174209Y0028478D03*
X0174409Y0028478D03*
X0174409Y0027578D03*
X0174009Y0027478D03*
X0173809Y0027378D03*
X0173809Y0026378D03*
X0174009Y0026278D03*
X0174209Y0026278D03*
X0174209Y0025278D03*
X0173809Y0025178D03*
X0173609Y0025078D03*
X0173209Y0024978D03*
X0172809Y0023378D03*
X0174609Y0023778D03*
X0174809Y0023778D03*
X0175809Y0025778D03*
X0175809Y0027978D03*
X0172209Y0026878D03*
X0168609Y0027778D03*
X0168209Y0026578D03*
X0168009Y0026578D03*
X0167809Y0026578D03*
X0168609Y0024278D03*
X0172009Y0019978D03*
X0172209Y0019978D03*
X0173609Y0019978D03*
X0173809Y0019978D03*
X0174009Y0019978D03*
X0174209Y0019978D03*
X0174409Y0019978D03*
X0174609Y0019978D03*
X0174809Y0019978D03*
X0175009Y0019978D03*
X0175209Y0019978D03*
X0175409Y0019978D03*
X0175609Y0019978D03*
X0175809Y0019978D03*
X0172009Y0018578D03*
X0173409Y0017378D03*
X0174409Y0017378D03*
X0175009Y0015378D03*
X0168409Y0013378D03*
X0167609Y0013378D03*
X0167009Y0014478D03*
X0167809Y0016578D03*
X0168009Y0016578D03*
X0168209Y0016578D03*
X0169009Y0029978D03*
D14*
X0167009Y0029878D03*
X0167209Y0033078D03*
X0167209Y0035178D03*
X0167009Y0038678D03*
X0167209Y0040278D03*
X0168809Y0040278D03*
X0169009Y0040378D03*
X0169009Y0038678D03*
X0168809Y0042378D03*
X0167209Y0042378D03*
X0167209Y0046078D03*
X0168809Y0046078D03*
X0175009Y0038778D03*
X0173009Y0034978D03*
X0174809Y0032478D03*
X0175809Y0031678D03*
X0173209Y0030378D03*
X0175409Y0027978D03*
X0175409Y0025778D03*
X0175009Y0023678D03*
X0172209Y0024678D03*
X0172609Y0026878D03*
X0168809Y0026478D03*
X0167209Y0026478D03*
X0167209Y0024378D03*
X0168809Y0022778D03*
X0168809Y0020678D03*
X0167209Y0018978D03*
X0163009Y0020178D03*
X0157809Y0019678D03*
X0156209Y0019278D03*
X0155209Y0018878D03*
X0154809Y0018678D03*
X0149209Y0018878D03*
X0149009Y0018978D03*
X0148809Y0019078D03*
X0148609Y0019178D03*
X0148409Y0019278D03*
X0148209Y0019378D03*
X0148009Y0019378D03*
X0147809Y0019478D03*
X0147609Y0019578D03*
X0147409Y0019678D03*
X0147209Y0019778D03*
X0146409Y0019778D03*
X0146209Y0019578D03*
X0146009Y0019478D03*
X0145809Y0019378D03*
X0145609Y0019178D03*
X0145409Y0019078D03*
X0145009Y0018778D03*
X0144809Y0018678D03*
X0144409Y0018378D03*
X0144209Y0018278D03*
X0144009Y0018078D03*
X0143809Y0017978D03*
X0141209Y0020178D03*
X0141809Y0026378D03*
X0149609Y0025178D03*
X0150009Y0024878D03*
X0150209Y0024778D03*
X0153609Y0024578D03*
X0153809Y0024678D03*
X0154009Y0024778D03*
X0154209Y0024878D03*
X0156409Y0026478D03*
X0157609Y0025978D03*
X0158809Y0025478D03*
X0159809Y0025078D03*
X0156809Y0030878D03*
X0157009Y0030978D03*
X0158009Y0031378D03*
X0159209Y0031878D03*
X0160409Y0032378D03*
X0157809Y0037478D03*
X0156809Y0037678D03*
X0155809Y0038078D03*
X0154809Y0038478D03*
X0149209Y0038278D03*
X0149009Y0038178D03*
X0148809Y0038078D03*
X0148609Y0038078D03*
X0148409Y0037978D03*
X0148209Y0037878D03*
X0148009Y0037778D03*
X0147809Y0037678D03*
X0147609Y0037578D03*
X0147409Y0037478D03*
X0147209Y0037478D03*
X0147009Y0037378D03*
X0146409Y0037478D03*
X0146209Y0037578D03*
X0145809Y0037878D03*
X0145609Y0037978D03*
X0145209Y0038278D03*
X0145009Y0038378D03*
X0144809Y0038578D03*
X0144609Y0038678D03*
X0144409Y0038778D03*
X0144209Y0038978D03*
X0144009Y0039078D03*
X0143809Y0033878D03*
X0149809Y0032178D03*
X0150009Y0032278D03*
X0153409Y0032678D03*
X0153609Y0032578D03*
X0153809Y0032478D03*
X0173009Y0015278D03*
X0174809Y0017278D03*
D15*
X0174909Y0017228D03*
X0174909Y0017028D03*
X0174909Y0016828D03*
X0175309Y0016828D03*
X0175309Y0016628D03*
X0175309Y0016428D03*
X0175309Y0016228D03*
X0175309Y0016028D03*
X0175309Y0015828D03*
X0175309Y0015628D03*
X0175309Y0015428D03*
X0175309Y0015228D03*
X0175309Y0015028D03*
X0175309Y0014828D03*
X0174909Y0015228D03*
X0174909Y0015428D03*
X0175709Y0015428D03*
X0175709Y0015628D03*
X0175709Y0015828D03*
X0175709Y0016028D03*
X0175709Y0016228D03*
X0175709Y0016428D03*
X0175709Y0016628D03*
X0175709Y0016828D03*
X0175309Y0017028D03*
X0175309Y0017228D03*
X0175309Y0017428D03*
X0174909Y0017428D03*
X0174909Y0017628D03*
X0174509Y0017628D03*
X0174509Y0017428D03*
X0174509Y0017228D03*
X0174509Y0017028D03*
X0174309Y0017028D03*
X0174109Y0017028D03*
X0174109Y0016828D03*
X0174109Y0016628D03*
X0174109Y0016428D03*
X0174109Y0016228D03*
X0174109Y0016028D03*
X0174109Y0015828D03*
X0174109Y0015628D03*
X0174109Y0015428D03*
X0174109Y0015228D03*
X0174109Y0015028D03*
X0174109Y0014828D03*
X0173709Y0014828D03*
X0173709Y0015028D03*
X0173709Y0015228D03*
X0173709Y0015428D03*
X0173709Y0015628D03*
X0173709Y0015828D03*
X0173709Y0016028D03*
X0173709Y0016228D03*
X0173709Y0016428D03*
X0173709Y0016628D03*
X0173709Y0016828D03*
X0173709Y0017028D03*
X0173709Y0017228D03*
X0173709Y0017428D03*
X0173709Y0017628D03*
X0173709Y0017828D03*
X0173909Y0017828D03*
X0174109Y0017828D03*
X0174109Y0017628D03*
X0174109Y0017428D03*
X0174109Y0017228D03*
X0173509Y0017028D03*
X0173309Y0017028D03*
X0173309Y0017228D03*
X0173309Y0017428D03*
X0173309Y0017628D03*
X0172909Y0017628D03*
X0172909Y0017428D03*
X0172909Y0017228D03*
X0172909Y0017028D03*
X0172909Y0016828D03*
X0172509Y0016828D03*
X0172509Y0016628D03*
X0172509Y0016428D03*
X0172509Y0016228D03*
X0172509Y0016028D03*
X0172509Y0015828D03*
X0172509Y0015628D03*
X0172509Y0015428D03*
X0172509Y0015228D03*
X0172509Y0015028D03*
X0172309Y0015228D03*
X0172109Y0015628D03*
X0172109Y0015828D03*
X0172109Y0016028D03*
X0172109Y0016228D03*
X0172109Y0016428D03*
X0172109Y0016628D03*
X0172109Y0016828D03*
X0172509Y0017028D03*
X0172509Y0017228D03*
X0172509Y0017428D03*
X0172509Y0018028D03*
X0172509Y0018228D03*
X0172509Y0018428D03*
X0172509Y0018628D03*
X0172509Y0018828D03*
X0172509Y0019028D03*
X0172509Y0019228D03*
X0172509Y0019428D03*
X0172509Y0019628D03*
X0172509Y0019828D03*
X0172509Y0020028D03*
X0172509Y0020228D03*
X0172909Y0020228D03*
X0172909Y0020028D03*
X0172909Y0019828D03*
X0172909Y0019628D03*
X0172909Y0019428D03*
X0172909Y0019228D03*
X0173309Y0019628D03*
X0173309Y0019828D03*
X0173309Y0020028D03*
X0173309Y0020228D03*
X0173709Y0020228D03*
X0173709Y0020028D03*
X0173709Y0019828D03*
X0173709Y0019628D03*
X0173909Y0019628D03*
X0174109Y0019628D03*
X0174109Y0019828D03*
X0174109Y0020028D03*
X0174109Y0020228D03*
X0174509Y0020228D03*
X0174509Y0020028D03*
X0174509Y0019828D03*
X0174509Y0019628D03*
X0174709Y0019628D03*
X0174909Y0019628D03*
X0174909Y0019828D03*
X0174909Y0020028D03*
X0174909Y0020228D03*
X0175309Y0020228D03*
X0175309Y0020028D03*
X0175309Y0019828D03*
X0175309Y0019628D03*
X0175509Y0019628D03*
X0175709Y0019628D03*
X0175709Y0019828D03*
X0175709Y0020028D03*
X0175709Y0020228D03*
X0175709Y0021228D03*
X0175709Y0021428D03*
X0175709Y0021628D03*
X0175709Y0021828D03*
X0175709Y0022228D03*
X0175709Y0022428D03*
X0175709Y0022628D03*
X0175709Y0022828D03*
X0175709Y0023028D03*
X0175709Y0023228D03*
X0175709Y0023428D03*
X0175709Y0023628D03*
X0175309Y0023628D03*
X0175309Y0023428D03*
X0175309Y0023228D03*
X0175309Y0023028D03*
X0175309Y0022828D03*
X0175309Y0022628D03*
X0175309Y0022428D03*
X0175309Y0022228D03*
X0175309Y0022028D03*
X0175309Y0021828D03*
X0175309Y0021628D03*
X0175309Y0021428D03*
X0175309Y0021228D03*
X0174909Y0021228D03*
X0174909Y0021428D03*
X0174909Y0021628D03*
X0174909Y0021828D03*
X0174909Y0022028D03*
X0174509Y0021828D03*
X0174509Y0021628D03*
X0174509Y0021428D03*
X0174509Y0021228D03*
X0174109Y0021228D03*
X0174109Y0021428D03*
X0174109Y0021628D03*
X0174109Y0021828D03*
X0174109Y0022028D03*
X0174109Y0022228D03*
X0174109Y0022428D03*
X0174109Y0022628D03*
X0174109Y0022828D03*
X0174109Y0023028D03*
X0174109Y0023228D03*
X0174109Y0023428D03*
X0174109Y0023628D03*
X0174109Y0023828D03*
X0174109Y0024028D03*
X0174509Y0024028D03*
X0174509Y0023828D03*
X0174509Y0023628D03*
X0174509Y0023428D03*
X0174909Y0023428D03*
X0174909Y0023628D03*
X0174909Y0023828D03*
X0174909Y0024028D03*
X0175309Y0024028D03*
X0175309Y0023828D03*
X0175309Y0025228D03*
X0175309Y0025428D03*
X0175309Y0025628D03*
X0175309Y0025828D03*
X0175309Y0026028D03*
X0175309Y0026228D03*
X0175509Y0026228D03*
X0175709Y0026028D03*
X0175709Y0025828D03*
X0175709Y0025628D03*
X0175709Y0025428D03*
X0174909Y0025428D03*
X0174909Y0025228D03*
X0174909Y0025628D03*
X0174909Y0025828D03*
X0174909Y0026028D03*
X0174909Y0026228D03*
X0174509Y0026228D03*
X0174509Y0026028D03*
X0174509Y0025828D03*
X0174509Y0025628D03*
X0174509Y0025428D03*
X0174509Y0025228D03*
X0174509Y0025028D03*
X0174109Y0025028D03*
X0174109Y0024828D03*
X0173909Y0024828D03*
X0173709Y0024828D03*
X0173709Y0025028D03*
X0173709Y0025228D03*
X0173709Y0025428D03*
X0174109Y0025428D03*
X0174109Y0025228D03*
X0174109Y0025628D03*
X0174309Y0025628D03*
X0174309Y0025828D03*
X0174109Y0026028D03*
X0174109Y0026228D03*
X0174109Y0026428D03*
X0174109Y0026628D03*
X0173909Y0026628D03*
X0173709Y0026628D03*
X0173709Y0026428D03*
X0173709Y0026228D03*
X0173709Y0026028D03*
X0173909Y0026028D03*
X0173309Y0026228D03*
X0173309Y0026428D03*
X0173309Y0026628D03*
X0173309Y0026828D03*
X0173309Y0027028D03*
X0173309Y0027228D03*
X0173309Y0027428D03*
X0173309Y0027628D03*
X0173509Y0027628D03*
X0173709Y0027628D03*
X0173709Y0027428D03*
X0173709Y0027228D03*
X0173709Y0027028D03*
X0174109Y0027228D03*
X0174109Y0027428D03*
X0174109Y0027628D03*
X0174109Y0027828D03*
X0174509Y0027828D03*
X0174509Y0027628D03*
X0174509Y0027428D03*
X0174509Y0027228D03*
X0174909Y0027428D03*
X0175109Y0027428D03*
X0175309Y0027628D03*
X0175309Y0027828D03*
X0175309Y0028028D03*
X0175309Y0028228D03*
X0175309Y0028428D03*
X0175709Y0028428D03*
X0175709Y0028228D03*
X0175709Y0028028D03*
X0175709Y0027828D03*
X0175709Y0027628D03*
X0174909Y0027628D03*
X0174909Y0027828D03*
X0174909Y0028028D03*
X0174909Y0028228D03*
X0174909Y0028428D03*
X0174909Y0028628D03*
X0174509Y0028628D03*
X0174509Y0028428D03*
X0174509Y0028228D03*
X0174509Y0028028D03*
X0174109Y0028228D03*
X0174109Y0028428D03*
X0174109Y0028628D03*
X0174109Y0028828D03*
X0174309Y0028828D03*
X0173709Y0028828D03*
X0173709Y0028628D03*
X0173709Y0028428D03*
X0173709Y0028228D03*
X0173309Y0028428D03*
X0173309Y0028628D03*
X0173309Y0028828D03*
X0173309Y0029028D03*
X0173709Y0029028D03*
X0172909Y0029028D03*
X0172909Y0028828D03*
X0172909Y0028628D03*
X0173109Y0028428D03*
X0172509Y0028628D03*
X0172509Y0028828D03*
X0172509Y0029028D03*
X0172509Y0029228D03*
X0172509Y0029428D03*
X0172309Y0029428D03*
X0172109Y0029428D03*
X0172109Y0029228D03*
X0172109Y0029028D03*
X0172109Y0028828D03*
X0172909Y0029228D03*
X0172909Y0030028D03*
X0172909Y0030228D03*
X0172909Y0030428D03*
X0172909Y0030628D03*
X0172909Y0030828D03*
X0172909Y0031028D03*
X0172509Y0031028D03*
X0172509Y0030828D03*
X0172509Y0030628D03*
X0172509Y0030428D03*
X0172509Y0030228D03*
X0172509Y0030028D03*
X0172109Y0030028D03*
X0172109Y0030228D03*
X0172109Y0030428D03*
X0172109Y0030628D03*
X0171709Y0030628D03*
X0171709Y0030428D03*
X0171709Y0030228D03*
X0171709Y0030028D03*
X0171309Y0030028D03*
X0171309Y0030228D03*
X0171309Y0030428D03*
X0171309Y0030628D03*
X0170909Y0030628D03*
X0170909Y0030428D03*
X0170909Y0030228D03*
X0170909Y0030028D03*
X0170509Y0030028D03*
X0170509Y0030228D03*
X0170509Y0030428D03*
X0170509Y0030628D03*
X0169709Y0030028D03*
X0169709Y0029828D03*
X0169709Y0029628D03*
X0169709Y0029428D03*
X0169709Y0029228D03*
X0169709Y0029028D03*
X0169709Y0028828D03*
X0169709Y0028628D03*
X0169709Y0028428D03*
X0169709Y0028228D03*
X0169709Y0028028D03*
X0169709Y0027828D03*
X0169309Y0027828D03*
X0169309Y0027628D03*
X0169309Y0028028D03*
X0169309Y0028228D03*
X0169309Y0028428D03*
X0169309Y0028628D03*
X0169309Y0028828D03*
X0169309Y0029028D03*
X0169309Y0029228D03*
X0169309Y0029428D03*
X0169309Y0029628D03*
X0169309Y0029828D03*
X0169309Y0030028D03*
X0169309Y0030228D03*
X0169309Y0030428D03*
X0168909Y0030228D03*
X0168909Y0030028D03*
X0168909Y0029828D03*
X0168709Y0030028D03*
X0168109Y0029828D03*
X0168109Y0029628D03*
X0168109Y0029428D03*
X0168109Y0029228D03*
X0168109Y0029028D03*
X0168109Y0028828D03*
X0168109Y0028628D03*
X0168109Y0028428D03*
X0168109Y0028228D03*
X0168109Y0028028D03*
X0168109Y0027828D03*
X0168109Y0027628D03*
X0168509Y0027628D03*
X0168509Y0027428D03*
X0168909Y0027428D03*
X0168909Y0027628D03*
X0168909Y0027828D03*
X0168909Y0028028D03*
X0168909Y0028228D03*
X0168509Y0028228D03*
X0168509Y0028028D03*
X0168509Y0027828D03*
X0167709Y0028028D03*
X0167709Y0028228D03*
X0167709Y0028428D03*
X0167709Y0028628D03*
X0167709Y0028828D03*
X0167709Y0029028D03*
X0167709Y0029228D03*
X0167709Y0029428D03*
X0167709Y0029628D03*
X0167709Y0029828D03*
X0167709Y0030028D03*
X0167709Y0030228D03*
X0167309Y0030228D03*
X0167309Y0030028D03*
X0167309Y0029828D03*
X0167309Y0029628D03*
X0166909Y0029628D03*
X0166909Y0029428D03*
X0166909Y0029828D03*
X0166909Y0030028D03*
X0166909Y0030228D03*
X0166709Y0030228D03*
X0166509Y0030028D03*
X0166509Y0029828D03*
X0166509Y0029628D03*
X0166509Y0029428D03*
X0166509Y0029228D03*
X0166509Y0029028D03*
X0166509Y0028828D03*
X0166509Y0028628D03*
X0166509Y0028428D03*
X0166509Y0028228D03*
X0166509Y0028028D03*
X0166509Y0027828D03*
X0166509Y0027628D03*
X0166309Y0027828D03*
X0166909Y0027828D03*
X0167109Y0027828D03*
X0166909Y0027628D03*
X0166909Y0028028D03*
X0166909Y0028228D03*
X0166909Y0028428D03*
X0166109Y0028428D03*
X0166109Y0028628D03*
X0166109Y0028828D03*
X0166109Y0029028D03*
X0166109Y0029228D03*
X0166109Y0029428D03*
X0166909Y0026828D03*
X0167109Y0026828D03*
X0167309Y0026828D03*
X0167309Y0026628D03*
X0167309Y0026428D03*
X0167309Y0026228D03*
X0167709Y0026228D03*
X0167909Y0026228D03*
X0168109Y0026228D03*
X0168109Y0026428D03*
X0168109Y0026628D03*
X0168109Y0026828D03*
X0168509Y0026828D03*
X0168509Y0026628D03*
X0168509Y0026428D03*
X0168509Y0026228D03*
X0168909Y0026228D03*
X0168909Y0026028D03*
X0169309Y0026028D03*
X0169309Y0025828D03*
X0169309Y0025628D03*
X0169309Y0025428D03*
X0169309Y0025228D03*
X0169309Y0025028D03*
X0169309Y0024828D03*
X0169309Y0024628D03*
X0169309Y0024428D03*
X0169309Y0024228D03*
X0169509Y0024228D03*
X0169709Y0024628D03*
X0169709Y0024828D03*
X0169709Y0025028D03*
X0169709Y0025228D03*
X0169709Y0025428D03*
X0169709Y0025628D03*
X0169709Y0025828D03*
X0169709Y0026028D03*
X0169709Y0026228D03*
X0169309Y0026228D03*
X0169309Y0026428D03*
X0169309Y0026628D03*
X0168909Y0026628D03*
X0168909Y0026428D03*
X0168909Y0026828D03*
X0167709Y0026828D03*
X0167709Y0026628D03*
X0167709Y0026428D03*
X0166909Y0026428D03*
X0166909Y0026228D03*
X0166909Y0026028D03*
X0166909Y0025828D03*
X0166909Y0025628D03*
X0166909Y0025428D03*
X0166909Y0025228D03*
X0166909Y0025028D03*
X0166909Y0024828D03*
X0167109Y0024828D03*
X0167309Y0024628D03*
X0167509Y0024628D03*
X0167709Y0024628D03*
X0167709Y0024428D03*
X0167709Y0024228D03*
X0167709Y0024028D03*
X0167709Y0023828D03*
X0167909Y0023828D03*
X0168109Y0023828D03*
X0168109Y0024028D03*
X0168109Y0024228D03*
X0168109Y0024428D03*
X0168109Y0024628D03*
X0168309Y0024628D03*
X0168509Y0024628D03*
X0168509Y0024428D03*
X0168509Y0024228D03*
X0168509Y0024028D03*
X0168909Y0024028D03*
X0169109Y0024028D03*
X0168909Y0024228D03*
X0168909Y0024428D03*
X0168909Y0024628D03*
X0168909Y0024828D03*
X0169109Y0025628D03*
X0167309Y0024428D03*
X0167309Y0024228D03*
X0167309Y0024028D03*
X0166909Y0024028D03*
X0166909Y0024228D03*
X0166909Y0024428D03*
X0166909Y0024628D03*
X0166509Y0024628D03*
X0166509Y0024428D03*
X0166509Y0024828D03*
X0166509Y0025028D03*
X0166509Y0025228D03*
X0166509Y0025428D03*
X0166509Y0025628D03*
X0166509Y0025828D03*
X0166509Y0026028D03*
X0166509Y0026228D03*
X0166509Y0026428D03*
X0166909Y0026628D03*
X0166109Y0025828D03*
X0166109Y0025628D03*
X0166109Y0025428D03*
X0166109Y0025228D03*
X0166109Y0025028D03*
X0166109Y0023228D03*
X0166309Y0023228D03*
X0166509Y0023228D03*
X0166509Y0023028D03*
X0166509Y0022828D03*
X0166509Y0022628D03*
X0166509Y0022428D03*
X0166709Y0022428D03*
X0166909Y0022428D03*
X0166909Y0022628D03*
X0166909Y0022828D03*
X0166909Y0023028D03*
X0166909Y0023228D03*
X0167109Y0023228D03*
X0167309Y0023228D03*
X0167309Y0023028D03*
X0167309Y0022828D03*
X0167309Y0022628D03*
X0167309Y0022428D03*
X0167509Y0022428D03*
X0167709Y0022428D03*
X0167709Y0022628D03*
X0167709Y0022828D03*
X0167709Y0023028D03*
X0167709Y0023228D03*
X0167909Y0023228D03*
X0168109Y0023228D03*
X0168109Y0023028D03*
X0168109Y0022828D03*
X0168109Y0022628D03*
X0168109Y0022428D03*
X0168309Y0022428D03*
X0168509Y0022428D03*
X0168509Y0022628D03*
X0168509Y0022828D03*
X0168509Y0023028D03*
X0168509Y0023228D03*
X0168709Y0023228D03*
X0168909Y0023228D03*
X0168909Y0023028D03*
X0168909Y0022828D03*
X0168909Y0022628D03*
X0168909Y0022428D03*
X0168909Y0022228D03*
X0169309Y0022228D03*
X0169309Y0022028D03*
X0169309Y0021828D03*
X0169309Y0021628D03*
X0169309Y0021428D03*
X0169309Y0021228D03*
X0169309Y0021028D03*
X0169309Y0020828D03*
X0169309Y0020628D03*
X0169309Y0020428D03*
X0169309Y0020228D03*
X0169509Y0020228D03*
X0169709Y0020228D03*
X0169709Y0020428D03*
X0169709Y0020628D03*
X0169709Y0020828D03*
X0169709Y0021028D03*
X0169909Y0021028D03*
X0169709Y0021228D03*
X0169709Y0021428D03*
X0169709Y0021628D03*
X0169709Y0021828D03*
X0169709Y0022028D03*
X0169709Y0022228D03*
X0169709Y0022428D03*
X0169709Y0022628D03*
X0169309Y0022628D03*
X0169309Y0022428D03*
X0169309Y0022828D03*
X0169309Y0023028D03*
X0168909Y0021228D03*
X0168909Y0021028D03*
X0168909Y0020828D03*
X0168909Y0020628D03*
X0168909Y0020428D03*
X0168909Y0020228D03*
X0168709Y0020228D03*
X0168509Y0020228D03*
X0168509Y0020428D03*
X0168509Y0020628D03*
X0168509Y0020828D03*
X0168509Y0021028D03*
X0168309Y0021028D03*
X0168109Y0021028D03*
X0168109Y0020828D03*
X0168109Y0020628D03*
X0168109Y0020428D03*
X0168109Y0020228D03*
X0167909Y0020228D03*
X0167709Y0020228D03*
X0167709Y0020428D03*
X0167709Y0020628D03*
X0167709Y0020828D03*
X0167709Y0021028D03*
X0167509Y0021028D03*
X0167309Y0021028D03*
X0167309Y0020828D03*
X0167309Y0020628D03*
X0167309Y0020428D03*
X0167309Y0020228D03*
X0167109Y0020228D03*
X0166909Y0020228D03*
X0166909Y0020428D03*
X0166909Y0020628D03*
X0166909Y0020828D03*
X0166909Y0021028D03*
X0166709Y0021028D03*
X0166509Y0021028D03*
X0166509Y0020828D03*
X0166509Y0020628D03*
X0166509Y0020428D03*
X0166509Y0020228D03*
X0166309Y0020228D03*
X0166109Y0020228D03*
X0166109Y0020428D03*
X0166109Y0020628D03*
X0166109Y0020828D03*
X0166109Y0021028D03*
X0166109Y0022428D03*
X0166109Y0022628D03*
X0166109Y0022828D03*
X0166109Y0023028D03*
X0166109Y0019428D03*
X0166109Y0019228D03*
X0166109Y0019028D03*
X0166109Y0018828D03*
X0166109Y0018628D03*
X0166309Y0018628D03*
X0166509Y0018628D03*
X0166509Y0018428D03*
X0166509Y0018228D03*
X0166509Y0018028D03*
X0166509Y0017828D03*
X0166509Y0017628D03*
X0166509Y0017428D03*
X0166509Y0017228D03*
X0166509Y0017028D03*
X0166709Y0016628D03*
X0166909Y0016628D03*
X0166909Y0016428D03*
X0166909Y0016228D03*
X0166909Y0016028D03*
X0166909Y0015828D03*
X0166909Y0015628D03*
X0166909Y0015428D03*
X0166909Y0015228D03*
X0166909Y0015028D03*
X0166909Y0014828D03*
X0166909Y0014628D03*
X0166909Y0014428D03*
X0166909Y0014228D03*
X0167109Y0014228D03*
X0166909Y0014028D03*
X0167109Y0013628D03*
X0167309Y0013628D03*
X0167309Y0013428D03*
X0167309Y0013228D03*
X0167309Y0013028D03*
X0167709Y0013028D03*
X0167709Y0012828D03*
X0167709Y0012628D03*
X0167709Y0012428D03*
X0167709Y0012228D03*
X0167709Y0012028D03*
X0167709Y0011828D03*
X0167709Y0011628D03*
X0167709Y0011428D03*
X0167709Y0011228D03*
X0167709Y0011028D03*
X0167709Y0010828D03*
X0167709Y0010628D03*
X0167909Y0010628D03*
X0168109Y0010628D03*
X0168109Y0010828D03*
X0168109Y0011028D03*
X0168109Y0011228D03*
X0168109Y0011428D03*
X0168109Y0011628D03*
X0168109Y0011828D03*
X0168109Y0012028D03*
X0168109Y0012228D03*
X0168109Y0012428D03*
X0168109Y0012628D03*
X0168109Y0012828D03*
X0168109Y0013028D03*
X0168109Y0013228D03*
X0168109Y0013428D03*
X0168109Y0013628D03*
X0168509Y0013628D03*
X0168509Y0013428D03*
X0168509Y0013228D03*
X0168509Y0013028D03*
X0168909Y0013028D03*
X0168909Y0012828D03*
X0169309Y0012828D03*
X0169309Y0012628D03*
X0169309Y0012428D03*
X0169309Y0012228D03*
X0169309Y0012028D03*
X0169309Y0011828D03*
X0169309Y0011628D03*
X0169309Y0011428D03*
X0169309Y0011228D03*
X0169309Y0011028D03*
X0169309Y0010828D03*
X0169709Y0011228D03*
X0169709Y0011428D03*
X0169709Y0011628D03*
X0169709Y0011828D03*
X0169709Y0012028D03*
X0169709Y0012228D03*
X0169709Y0012428D03*
X0169709Y0012628D03*
X0169909Y0012628D03*
X0169709Y0012828D03*
X0169709Y0013028D03*
X0169309Y0013028D03*
X0169309Y0013228D03*
X0169309Y0013428D03*
X0168909Y0013428D03*
X0168909Y0013228D03*
X0168909Y0013628D03*
X0169109Y0014028D03*
X0169309Y0014028D03*
X0169309Y0014228D03*
X0169309Y0014428D03*
X0169309Y0014628D03*
X0169309Y0014828D03*
X0169309Y0015028D03*
X0169309Y0015228D03*
X0169309Y0015428D03*
X0169309Y0015628D03*
X0169309Y0015828D03*
X0169309Y0016028D03*
X0169309Y0016228D03*
X0169309Y0016428D03*
X0169509Y0016428D03*
X0169709Y0016228D03*
X0169709Y0016028D03*
X0169709Y0015828D03*
X0169909Y0015828D03*
X0169709Y0015628D03*
X0169709Y0015428D03*
X0169709Y0015228D03*
X0169709Y0015028D03*
X0169709Y0014828D03*
X0169909Y0014828D03*
X0169709Y0014628D03*
X0169709Y0014428D03*
X0168909Y0014428D03*
X0168909Y0014628D03*
X0169109Y0015028D03*
X0168909Y0016028D03*
X0168909Y0016228D03*
X0168909Y0016428D03*
X0168909Y0016628D03*
X0168909Y0016828D03*
X0168509Y0016828D03*
X0168509Y0016628D03*
X0168509Y0016428D03*
X0168509Y0016228D03*
X0168109Y0016228D03*
X0168109Y0016428D03*
X0168109Y0016628D03*
X0168109Y0016828D03*
X0167709Y0016828D03*
X0167709Y0016628D03*
X0167709Y0016428D03*
X0167709Y0016228D03*
X0167909Y0016228D03*
X0167309Y0016228D03*
X0167309Y0016028D03*
X0167309Y0016428D03*
X0167309Y0016628D03*
X0167309Y0016828D03*
X0167109Y0016828D03*
X0166909Y0017228D03*
X0166909Y0017428D03*
X0166909Y0017628D03*
X0166909Y0017828D03*
X0166909Y0018028D03*
X0166909Y0018228D03*
X0166909Y0018428D03*
X0166909Y0018628D03*
X0166909Y0018828D03*
X0166909Y0019028D03*
X0166909Y0019228D03*
X0166909Y0019428D03*
X0166709Y0019428D03*
X0166509Y0019428D03*
X0166509Y0019228D03*
X0166509Y0019028D03*
X0166509Y0018828D03*
X0166309Y0018428D03*
X0166109Y0018028D03*
X0166109Y0017828D03*
X0166109Y0017628D03*
X0166109Y0017428D03*
X0166509Y0016428D03*
X0166509Y0016228D03*
X0166509Y0016028D03*
X0166509Y0015828D03*
X0166509Y0015628D03*
X0166509Y0015428D03*
X0166509Y0015228D03*
X0166509Y0015028D03*
X0166509Y0014828D03*
X0166509Y0014628D03*
X0166509Y0014428D03*
X0166509Y0014228D03*
X0166109Y0014828D03*
X0166109Y0015028D03*
X0166109Y0015228D03*
X0166109Y0015428D03*
X0166109Y0015628D03*
X0166709Y0013428D03*
X0166909Y0013428D03*
X0166909Y0013228D03*
X0166909Y0013028D03*
X0166909Y0012828D03*
X0166909Y0012628D03*
X0166509Y0012628D03*
X0166509Y0012428D03*
X0166509Y0012228D03*
X0166509Y0012028D03*
X0166509Y0011828D03*
X0166509Y0011628D03*
X0166509Y0011428D03*
X0166509Y0011228D03*
X0166909Y0011228D03*
X0166909Y0011028D03*
X0166909Y0010828D03*
X0167309Y0010828D03*
X0167309Y0011028D03*
X0167309Y0011228D03*
X0167309Y0011428D03*
X0167509Y0011428D03*
X0167109Y0011628D03*
X0166909Y0011628D03*
X0166909Y0011428D03*
X0166909Y0011828D03*
X0166109Y0011828D03*
X0166109Y0012028D03*
X0166109Y0012228D03*
X0166109Y0012428D03*
X0166109Y0012628D03*
X0166509Y0012828D03*
X0166509Y0013028D03*
X0166509Y0013228D03*
X0167709Y0013228D03*
X0167709Y0013428D03*
X0167709Y0013628D03*
X0169109Y0012428D03*
X0168909Y0011428D03*
X0168909Y0011228D03*
X0172909Y0014828D03*
X0172909Y0015028D03*
X0172909Y0015228D03*
X0172909Y0015428D03*
X0172909Y0015628D03*
X0172909Y0015828D03*
X0173309Y0015428D03*
X0173309Y0015228D03*
X0173309Y0015028D03*
X0173309Y0014828D03*
X0172109Y0018028D03*
X0172109Y0018228D03*
X0172109Y0018428D03*
X0172109Y0018628D03*
X0172109Y0018828D03*
X0172109Y0019028D03*
X0172109Y0019228D03*
X0172109Y0019628D03*
X0172109Y0019828D03*
X0172109Y0020028D03*
X0172109Y0020228D03*
X0172509Y0021428D03*
X0172509Y0021628D03*
X0172509Y0021828D03*
X0172509Y0022028D03*
X0172509Y0022228D03*
X0172509Y0022428D03*
X0172509Y0022628D03*
X0172509Y0022828D03*
X0172509Y0023028D03*
X0172509Y0023228D03*
X0172509Y0023428D03*
X0172509Y0023628D03*
X0172509Y0023828D03*
X0172509Y0024028D03*
X0172309Y0023828D03*
X0172109Y0023428D03*
X0172109Y0023228D03*
X0172109Y0023028D03*
X0172109Y0022828D03*
X0172109Y0022628D03*
X0172109Y0022428D03*
X0172109Y0022228D03*
X0172109Y0022028D03*
X0172109Y0021828D03*
X0172909Y0021828D03*
X0172909Y0021628D03*
X0172909Y0021428D03*
X0172909Y0021228D03*
X0173309Y0021228D03*
X0173309Y0021428D03*
X0173309Y0021628D03*
X0173309Y0021828D03*
X0173709Y0021828D03*
X0173709Y0021628D03*
X0173709Y0021428D03*
X0173709Y0021228D03*
X0173709Y0022028D03*
X0173709Y0022228D03*
X0173709Y0022428D03*
X0173709Y0022628D03*
X0173709Y0022828D03*
X0173709Y0023028D03*
X0173709Y0023228D03*
X0173709Y0023428D03*
X0173709Y0023628D03*
X0172909Y0023628D03*
X0172909Y0023428D03*
X0172909Y0023228D03*
X0172909Y0022028D03*
X0172109Y0024228D03*
X0172109Y0024428D03*
X0172109Y0024628D03*
X0172109Y0024828D03*
X0172109Y0025028D03*
X0172509Y0025028D03*
X0172509Y0024828D03*
X0172509Y0024628D03*
X0172509Y0024428D03*
X0172909Y0024628D03*
X0172909Y0024828D03*
X0172909Y0025028D03*
X0172909Y0025228D03*
X0172709Y0025228D03*
X0173309Y0025228D03*
X0173309Y0025028D03*
X0173309Y0024828D03*
X0173309Y0024628D03*
X0173309Y0025428D03*
X0172909Y0026428D03*
X0172909Y0026628D03*
X0172909Y0026828D03*
X0172909Y0027028D03*
X0172909Y0027228D03*
X0172909Y0027428D03*
X0172509Y0027228D03*
X0172509Y0027028D03*
X0172509Y0026828D03*
X0172509Y0026628D03*
X0172509Y0026428D03*
X0172109Y0026628D03*
X0172109Y0026828D03*
X0172109Y0027028D03*
X0172109Y0027228D03*
X0174509Y0026428D03*
X0174509Y0030028D03*
X0174509Y0030228D03*
X0174509Y0030428D03*
X0174509Y0030628D03*
X0174909Y0030628D03*
X0174909Y0030428D03*
X0174909Y0030228D03*
X0174909Y0030028D03*
X0175309Y0030028D03*
X0175309Y0030228D03*
X0175309Y0030428D03*
X0175309Y0030628D03*
X0175309Y0030828D03*
X0175309Y0031028D03*
X0175309Y0031228D03*
X0175309Y0031428D03*
X0175309Y0031628D03*
X0175309Y0031828D03*
X0175309Y0032028D03*
X0175309Y0032228D03*
X0175309Y0032428D03*
X0175309Y0032628D03*
X0175109Y0032828D03*
X0174909Y0032828D03*
X0174909Y0032628D03*
X0174909Y0032428D03*
X0174909Y0032228D03*
X0174909Y0032028D03*
X0174709Y0032028D03*
X0174509Y0032228D03*
X0174509Y0032428D03*
X0174509Y0032628D03*
X0174509Y0032828D03*
X0174109Y0032828D03*
X0174109Y0032628D03*
X0174109Y0032428D03*
X0174109Y0032228D03*
X0173709Y0032228D03*
X0173709Y0032428D03*
X0173709Y0032628D03*
X0173709Y0032828D03*
X0173309Y0032828D03*
X0173309Y0032628D03*
X0173309Y0032428D03*
X0173309Y0032228D03*
X0173109Y0032028D03*
X0172909Y0032028D03*
X0172909Y0031828D03*
X0172909Y0032228D03*
X0172909Y0032428D03*
X0172909Y0032628D03*
X0172909Y0032828D03*
X0172709Y0032828D03*
X0172509Y0032628D03*
X0172509Y0032428D03*
X0172509Y0032228D03*
X0172509Y0032028D03*
X0172509Y0031828D03*
X0172509Y0031628D03*
X0172509Y0031428D03*
X0172509Y0031228D03*
X0172109Y0031228D03*
X0172109Y0031428D03*
X0172109Y0031628D03*
X0172109Y0031828D03*
X0172109Y0032028D03*
X0172109Y0032228D03*
X0172509Y0033028D03*
X0172509Y0033228D03*
X0172509Y0033428D03*
X0172509Y0033628D03*
X0172509Y0033828D03*
X0172509Y0034028D03*
X0172509Y0034228D03*
X0172509Y0034428D03*
X0172509Y0034628D03*
X0172509Y0034828D03*
X0172509Y0035028D03*
X0172509Y0035228D03*
X0172509Y0035428D03*
X0172309Y0035428D03*
X0172109Y0035428D03*
X0172109Y0035228D03*
X0172109Y0035028D03*
X0172109Y0034828D03*
X0172109Y0034228D03*
X0172109Y0034028D03*
X0172109Y0033828D03*
X0172109Y0033628D03*
X0172109Y0033428D03*
X0172109Y0033228D03*
X0172909Y0033428D03*
X0172909Y0033628D03*
X0172909Y0034428D03*
X0172909Y0034628D03*
X0172909Y0034828D03*
X0172909Y0035028D03*
X0172909Y0035228D03*
X0172909Y0035428D03*
X0173109Y0035428D03*
X0173309Y0035428D03*
X0173309Y0035228D03*
X0173309Y0035028D03*
X0173309Y0034828D03*
X0173309Y0034628D03*
X0173709Y0034828D03*
X0173709Y0035028D03*
X0173709Y0035228D03*
X0173709Y0035428D03*
X0173909Y0035428D03*
X0174109Y0035428D03*
X0174109Y0035228D03*
X0174109Y0035028D03*
X0174109Y0034828D03*
X0174509Y0034828D03*
X0174509Y0035028D03*
X0174509Y0035228D03*
X0174509Y0035428D03*
X0174709Y0035428D03*
X0174909Y0035428D03*
X0174909Y0035228D03*
X0174909Y0035028D03*
X0174909Y0034828D03*
X0175309Y0034828D03*
X0175309Y0035028D03*
X0175309Y0035228D03*
X0175309Y0035428D03*
X0175509Y0035428D03*
X0175709Y0035428D03*
X0175709Y0035228D03*
X0175709Y0035028D03*
X0175709Y0034828D03*
X0175709Y0036428D03*
X0175709Y0036628D03*
X0175709Y0036828D03*
X0175709Y0037028D03*
X0175709Y0037228D03*
X0175709Y0037428D03*
X0175709Y0037628D03*
X0175709Y0037828D03*
X0175709Y0038028D03*
X0175709Y0038228D03*
X0175709Y0038428D03*
X0175709Y0038628D03*
X0175309Y0038628D03*
X0175309Y0038428D03*
X0175309Y0038228D03*
X0175309Y0038028D03*
X0175309Y0037828D03*
X0175309Y0037628D03*
X0175309Y0037428D03*
X0175309Y0037228D03*
X0175309Y0037028D03*
X0175309Y0036828D03*
X0175309Y0036628D03*
X0175309Y0036428D03*
X0174909Y0036428D03*
X0174909Y0036628D03*
X0174909Y0036828D03*
X0174909Y0037028D03*
X0174709Y0037028D03*
X0174509Y0037028D03*
X0174509Y0036828D03*
X0174509Y0036628D03*
X0174509Y0036428D03*
X0174109Y0036428D03*
X0174109Y0036628D03*
X0174109Y0036828D03*
X0174109Y0037028D03*
X0174109Y0037228D03*
X0174109Y0037428D03*
X0174109Y0037628D03*
X0174109Y0037828D03*
X0174109Y0038028D03*
X0174109Y0038228D03*
X0174109Y0038428D03*
X0174109Y0038628D03*
X0174109Y0038828D03*
X0174109Y0039028D03*
X0173909Y0039028D03*
X0173709Y0038828D03*
X0173709Y0038628D03*
X0173709Y0038428D03*
X0173709Y0038228D03*
X0173709Y0038028D03*
X0173709Y0037828D03*
X0173709Y0037628D03*
X0173709Y0037428D03*
X0173709Y0037228D03*
X0173709Y0037028D03*
X0173709Y0036828D03*
X0173709Y0036628D03*
X0173709Y0036428D03*
X0173309Y0036428D03*
X0173309Y0036628D03*
X0173309Y0036828D03*
X0173309Y0037028D03*
X0173109Y0037028D03*
X0172909Y0037028D03*
X0172909Y0036828D03*
X0172909Y0036628D03*
X0172909Y0036428D03*
X0172509Y0036428D03*
X0172509Y0036628D03*
X0172509Y0036828D03*
X0172509Y0037028D03*
X0172509Y0037228D03*
X0172509Y0037428D03*
X0172509Y0037628D03*
X0172509Y0037828D03*
X0172509Y0038028D03*
X0172509Y0038228D03*
X0172509Y0038428D03*
X0172509Y0038628D03*
X0172509Y0038828D03*
X0172509Y0039028D03*
X0172909Y0038628D03*
X0172909Y0038428D03*
X0172109Y0038428D03*
X0172109Y0038228D03*
X0172109Y0038028D03*
X0172109Y0037828D03*
X0172109Y0037628D03*
X0172109Y0037428D03*
X0172109Y0037228D03*
X0172109Y0037028D03*
X0172909Y0037228D03*
X0172109Y0038628D03*
X0172909Y0039828D03*
X0172909Y0040028D03*
X0172909Y0040228D03*
X0172909Y0040428D03*
X0172909Y0040628D03*
X0172909Y0040828D03*
X0172509Y0040828D03*
X0172509Y0040628D03*
X0172509Y0040428D03*
X0172509Y0040228D03*
X0172509Y0040028D03*
X0172109Y0040628D03*
X0172109Y0040828D03*
X0172109Y0041028D03*
X0172109Y0041228D03*
X0172109Y0041428D03*
X0172109Y0041628D03*
X0172509Y0041628D03*
X0172509Y0041428D03*
X0172509Y0041228D03*
X0172509Y0041028D03*
X0172509Y0041828D03*
X0172509Y0042028D03*
X0172509Y0042228D03*
X0172509Y0042428D03*
X0172509Y0042628D03*
X0172509Y0042828D03*
X0172709Y0042828D03*
X0172909Y0042828D03*
X0172909Y0042628D03*
X0172909Y0042428D03*
X0172909Y0042228D03*
X0172909Y0042028D03*
X0172909Y0041828D03*
X0173309Y0042028D03*
X0173309Y0042228D03*
X0173309Y0042428D03*
X0173309Y0042628D03*
X0173309Y0042828D03*
X0173509Y0042828D03*
X0173709Y0042828D03*
X0173709Y0042628D03*
X0173709Y0042428D03*
X0173709Y0042228D03*
X0173709Y0042028D03*
X0173909Y0042028D03*
X0174109Y0042028D03*
X0174109Y0042228D03*
X0174109Y0042428D03*
X0174109Y0042628D03*
X0174109Y0042828D03*
X0174309Y0042828D03*
X0174509Y0042828D03*
X0174509Y0042628D03*
X0174509Y0042428D03*
X0174509Y0042228D03*
X0174509Y0042028D03*
X0174709Y0042028D03*
X0174909Y0042028D03*
X0174909Y0042228D03*
X0174909Y0042428D03*
X0174909Y0042628D03*
X0174909Y0042828D03*
X0175109Y0042828D03*
X0175309Y0042828D03*
X0175309Y0042628D03*
X0175309Y0042428D03*
X0175309Y0042228D03*
X0175309Y0042028D03*
X0175509Y0042028D03*
X0175709Y0042028D03*
X0175709Y0042228D03*
X0175709Y0042428D03*
X0175709Y0042628D03*
X0175709Y0042828D03*
X0172109Y0042828D03*
X0172109Y0042628D03*
X0172109Y0042428D03*
X0172109Y0042228D03*
X0172109Y0042028D03*
X0171709Y0042028D03*
X0171709Y0042228D03*
X0171709Y0042428D03*
X0171709Y0042628D03*
X0171709Y0042828D03*
X0171909Y0042828D03*
X0171309Y0042828D03*
X0171309Y0042628D03*
X0171309Y0042428D03*
X0171309Y0042228D03*
X0171309Y0042028D03*
X0171509Y0042028D03*
X0170909Y0042028D03*
X0170909Y0042228D03*
X0170909Y0042428D03*
X0170909Y0042628D03*
X0170909Y0042828D03*
X0171109Y0042828D03*
X0170509Y0042828D03*
X0170509Y0042628D03*
X0170509Y0042428D03*
X0170509Y0042228D03*
X0170509Y0042028D03*
X0170709Y0042028D03*
X0170109Y0042028D03*
X0170109Y0042228D03*
X0170109Y0042428D03*
X0170109Y0042628D03*
X0170109Y0042828D03*
X0170309Y0042828D03*
X0169709Y0042828D03*
X0169709Y0042628D03*
X0169709Y0042428D03*
X0169709Y0042228D03*
X0169709Y0042028D03*
X0169909Y0042028D03*
X0169709Y0041828D03*
X0169709Y0041628D03*
X0169709Y0041428D03*
X0169709Y0041228D03*
X0169709Y0041028D03*
X0169709Y0040828D03*
X0169709Y0040628D03*
X0169709Y0040428D03*
X0169309Y0040428D03*
X0169309Y0040228D03*
X0169309Y0040028D03*
X0168909Y0040028D03*
X0168909Y0039828D03*
X0168709Y0039828D03*
X0168509Y0039828D03*
X0168509Y0040028D03*
X0168509Y0040228D03*
X0168509Y0040428D03*
X0168509Y0040628D03*
X0168309Y0040628D03*
X0168109Y0040628D03*
X0168109Y0040428D03*
X0168109Y0040228D03*
X0168109Y0040028D03*
X0168109Y0039828D03*
X0167909Y0039828D03*
X0167709Y0039828D03*
X0167709Y0040028D03*
X0167709Y0040228D03*
X0167709Y0040428D03*
X0167709Y0040628D03*
X0167509Y0040628D03*
X0167309Y0040628D03*
X0167309Y0040428D03*
X0167309Y0040228D03*
X0167309Y0040028D03*
X0167309Y0039828D03*
X0167109Y0039828D03*
X0166909Y0040028D03*
X0166909Y0040228D03*
X0166909Y0040428D03*
X0166909Y0040628D03*
X0166909Y0040828D03*
X0167109Y0040828D03*
X0166909Y0041028D03*
X0166909Y0041228D03*
X0166909Y0041428D03*
X0166909Y0041628D03*
X0166909Y0041828D03*
X0167109Y0041828D03*
X0167309Y0042028D03*
X0167509Y0042028D03*
X0167709Y0042028D03*
X0167709Y0042228D03*
X0167709Y0042428D03*
X0167709Y0042628D03*
X0167709Y0042828D03*
X0167909Y0042828D03*
X0168109Y0042828D03*
X0168109Y0042628D03*
X0168109Y0042428D03*
X0168109Y0042228D03*
X0168109Y0042028D03*
X0168309Y0042028D03*
X0168509Y0042028D03*
X0168509Y0042228D03*
X0168509Y0042428D03*
X0168509Y0042628D03*
X0168509Y0042828D03*
X0168709Y0042828D03*
X0168909Y0042828D03*
X0168909Y0042628D03*
X0168909Y0042428D03*
X0168909Y0042228D03*
X0168909Y0042028D03*
X0168909Y0041828D03*
X0169309Y0041828D03*
X0169309Y0041628D03*
X0169309Y0041428D03*
X0169309Y0041228D03*
X0169309Y0041028D03*
X0169309Y0040828D03*
X0169309Y0040628D03*
X0168909Y0040628D03*
X0168909Y0040428D03*
X0168909Y0040228D03*
X0168909Y0039228D03*
X0168909Y0039028D03*
X0168909Y0038828D03*
X0168909Y0038628D03*
X0168909Y0038428D03*
X0169309Y0038428D03*
X0169309Y0038228D03*
X0169309Y0038028D03*
X0169309Y0037828D03*
X0169309Y0037628D03*
X0169309Y0037428D03*
X0169309Y0037228D03*
X0169309Y0037028D03*
X0169309Y0036828D03*
X0169309Y0036628D03*
X0169309Y0036428D03*
X0169709Y0036828D03*
X0169709Y0037028D03*
X0169709Y0037228D03*
X0169709Y0037428D03*
X0169709Y0037628D03*
X0169709Y0037828D03*
X0169709Y0038028D03*
X0169709Y0038228D03*
X0169909Y0038228D03*
X0169709Y0038428D03*
X0169709Y0038628D03*
X0169509Y0038828D03*
X0169309Y0038828D03*
X0169309Y0038628D03*
X0169309Y0039028D03*
X0168709Y0039228D03*
X0168509Y0039228D03*
X0168509Y0039028D03*
X0168509Y0038828D03*
X0168509Y0038628D03*
X0168109Y0038628D03*
X0168109Y0038428D03*
X0168109Y0038228D03*
X0168109Y0038028D03*
X0168109Y0037828D03*
X0168109Y0037628D03*
X0168109Y0037428D03*
X0168109Y0037228D03*
X0168109Y0037028D03*
X0168109Y0036828D03*
X0168109Y0036628D03*
X0168109Y0036428D03*
X0168109Y0036228D03*
X0167909Y0036228D03*
X0167709Y0036228D03*
X0167709Y0036428D03*
X0167709Y0036628D03*
X0167709Y0036828D03*
X0167709Y0037028D03*
X0167709Y0037228D03*
X0167709Y0037428D03*
X0167709Y0037628D03*
X0167709Y0037828D03*
X0167709Y0038028D03*
X0167709Y0038228D03*
X0167709Y0038428D03*
X0167709Y0038628D03*
X0167709Y0038828D03*
X0167709Y0039028D03*
X0167709Y0039228D03*
X0168109Y0039228D03*
X0168109Y0039028D03*
X0168109Y0038828D03*
X0167309Y0038828D03*
X0167309Y0038628D03*
X0167309Y0039028D03*
X0167309Y0039228D03*
X0167109Y0039228D03*
X0166909Y0039028D03*
X0166909Y0038828D03*
X0166909Y0038628D03*
X0166909Y0038428D03*
X0166909Y0038228D03*
X0166909Y0038028D03*
X0166509Y0038028D03*
X0166509Y0037828D03*
X0166509Y0037628D03*
X0166509Y0037428D03*
X0166509Y0037228D03*
X0166509Y0037028D03*
X0166509Y0036828D03*
X0166509Y0036628D03*
X0166909Y0036628D03*
X0166909Y0036428D03*
X0167309Y0036428D03*
X0167309Y0036228D03*
X0167309Y0036628D03*
X0167309Y0036828D03*
X0167309Y0037028D03*
X0167509Y0037028D03*
X0167109Y0037228D03*
X0166909Y0037228D03*
X0166909Y0037028D03*
X0166909Y0036828D03*
X0166909Y0037428D03*
X0166109Y0037428D03*
X0166109Y0037628D03*
X0166109Y0037828D03*
X0166109Y0038028D03*
X0166109Y0038228D03*
X0166509Y0038228D03*
X0166509Y0038428D03*
X0166509Y0038628D03*
X0166509Y0038828D03*
X0166709Y0039028D03*
X0166709Y0040028D03*
X0166509Y0040228D03*
X0166509Y0040428D03*
X0166509Y0040628D03*
X0166509Y0040828D03*
X0166509Y0041028D03*
X0166509Y0041228D03*
X0166509Y0041428D03*
X0166509Y0041628D03*
X0166509Y0041828D03*
X0166509Y0042028D03*
X0166509Y0042228D03*
X0166509Y0042428D03*
X0166509Y0042628D03*
X0166509Y0042828D03*
X0166309Y0042828D03*
X0166109Y0042828D03*
X0166109Y0042628D03*
X0166109Y0042428D03*
X0166109Y0042228D03*
X0166109Y0042028D03*
X0166109Y0041428D03*
X0166109Y0041228D03*
X0166109Y0041028D03*
X0166109Y0040828D03*
X0166909Y0042028D03*
X0166909Y0042228D03*
X0166909Y0042428D03*
X0166909Y0042628D03*
X0166909Y0042828D03*
X0167109Y0042828D03*
X0167309Y0042828D03*
X0167309Y0042628D03*
X0167309Y0042428D03*
X0167309Y0042228D03*
X0167709Y0043428D03*
X0167909Y0043428D03*
X0168109Y0043428D03*
X0168109Y0043628D03*
X0168109Y0043828D03*
X0168109Y0044028D03*
X0168109Y0044228D03*
X0168309Y0044228D03*
X0168509Y0044228D03*
X0168509Y0044028D03*
X0168509Y0043828D03*
X0168509Y0043628D03*
X0168509Y0043428D03*
X0168909Y0043628D03*
X0169109Y0043628D03*
X0169309Y0043828D03*
X0169509Y0043828D03*
X0169309Y0044028D03*
X0169309Y0044228D03*
X0169309Y0044428D03*
X0169309Y0044628D03*
X0169309Y0044828D03*
X0169309Y0045028D03*
X0169309Y0045228D03*
X0169309Y0045428D03*
X0169309Y0045628D03*
X0169309Y0045828D03*
X0169309Y0046028D03*
X0168909Y0046028D03*
X0168909Y0045828D03*
X0168909Y0045628D03*
X0168509Y0045828D03*
X0168509Y0046028D03*
X0168109Y0046028D03*
X0168109Y0045828D03*
X0167909Y0045828D03*
X0167709Y0045828D03*
X0167709Y0046028D03*
X0167309Y0046028D03*
X0167309Y0045828D03*
X0166909Y0045828D03*
X0166909Y0045628D03*
X0166909Y0045428D03*
X0166909Y0045228D03*
X0166909Y0045028D03*
X0166909Y0044828D03*
X0166909Y0044628D03*
X0166909Y0044428D03*
X0167109Y0044428D03*
X0167309Y0044228D03*
X0167509Y0044228D03*
X0167709Y0044228D03*
X0167709Y0044028D03*
X0167709Y0043828D03*
X0167709Y0043628D03*
X0167309Y0043628D03*
X0167309Y0043828D03*
X0167309Y0044028D03*
X0166909Y0044028D03*
X0166909Y0043828D03*
X0166909Y0043628D03*
X0166509Y0044028D03*
X0166509Y0044228D03*
X0166509Y0044428D03*
X0166509Y0044628D03*
X0166509Y0044828D03*
X0166509Y0045028D03*
X0166509Y0045228D03*
X0166509Y0045428D03*
X0166509Y0045628D03*
X0166509Y0045828D03*
X0166509Y0046028D03*
X0166909Y0046028D03*
X0166109Y0045428D03*
X0166109Y0045228D03*
X0166109Y0045028D03*
X0166109Y0044828D03*
X0166109Y0044628D03*
X0166909Y0044228D03*
X0168909Y0044228D03*
X0168909Y0044028D03*
X0168909Y0043828D03*
X0168909Y0044428D03*
X0169709Y0044428D03*
X0169709Y0044228D03*
X0169709Y0044628D03*
X0169709Y0044828D03*
X0169709Y0045028D03*
X0169709Y0045228D03*
X0169709Y0045428D03*
X0169709Y0045628D03*
X0169709Y0045828D03*
X0169509Y0042828D03*
X0169309Y0042828D03*
X0169309Y0042628D03*
X0169309Y0042428D03*
X0169309Y0042228D03*
X0169309Y0042028D03*
X0169109Y0038028D03*
X0168909Y0036828D03*
X0168909Y0035628D03*
X0168909Y0035428D03*
X0168909Y0035228D03*
X0168909Y0035028D03*
X0168909Y0034828D03*
X0169109Y0034828D03*
X0169309Y0034828D03*
X0169309Y0035028D03*
X0169309Y0035228D03*
X0169309Y0035428D03*
X0169309Y0035628D03*
X0169509Y0035628D03*
X0169709Y0035628D03*
X0169709Y0035428D03*
X0169709Y0035228D03*
X0169709Y0035028D03*
X0169709Y0034828D03*
X0169909Y0034828D03*
X0168509Y0034828D03*
X0168509Y0035028D03*
X0168509Y0035228D03*
X0168509Y0035428D03*
X0168509Y0035628D03*
X0168709Y0035628D03*
X0168109Y0035628D03*
X0168109Y0035428D03*
X0168109Y0035228D03*
X0168109Y0035028D03*
X0168109Y0034828D03*
X0168309Y0034828D03*
X0167709Y0034828D03*
X0167709Y0035028D03*
X0167709Y0035228D03*
X0167709Y0035428D03*
X0167709Y0035628D03*
X0167909Y0035628D03*
X0167309Y0035628D03*
X0167309Y0035428D03*
X0167309Y0035228D03*
X0167309Y0035028D03*
X0167309Y0034828D03*
X0167509Y0034828D03*
X0167109Y0034628D03*
X0166909Y0034628D03*
X0166909Y0034428D03*
X0166909Y0034228D03*
X0166909Y0034028D03*
X0166909Y0033828D03*
X0166909Y0033628D03*
X0166909Y0033428D03*
X0166909Y0033228D03*
X0166909Y0033028D03*
X0166909Y0032828D03*
X0166909Y0032628D03*
X0167109Y0032628D03*
X0167309Y0032628D03*
X0167309Y0032828D03*
X0167309Y0033028D03*
X0167309Y0033228D03*
X0167309Y0033428D03*
X0167709Y0033228D03*
X0167709Y0033028D03*
X0167709Y0032828D03*
X0167709Y0032628D03*
X0167909Y0032628D03*
X0168109Y0032628D03*
X0168109Y0032828D03*
X0168109Y0033028D03*
X0168109Y0033228D03*
X0168509Y0033228D03*
X0168509Y0033028D03*
X0168509Y0032828D03*
X0168509Y0032628D03*
X0168709Y0032628D03*
X0168909Y0032628D03*
X0168909Y0032828D03*
X0168909Y0033028D03*
X0168909Y0033228D03*
X0169309Y0033228D03*
X0169309Y0033028D03*
X0169309Y0032828D03*
X0169309Y0032628D03*
X0169509Y0032628D03*
X0169709Y0032628D03*
X0169709Y0032828D03*
X0169709Y0033028D03*
X0169709Y0033228D03*
X0166509Y0033228D03*
X0166509Y0033028D03*
X0166509Y0033428D03*
X0166509Y0033628D03*
X0166509Y0033828D03*
X0166509Y0034028D03*
X0166509Y0034228D03*
X0166509Y0034428D03*
X0166509Y0034628D03*
X0166509Y0034828D03*
X0166509Y0035028D03*
X0166509Y0035228D03*
X0166509Y0035428D03*
X0166509Y0035628D03*
X0166309Y0035628D03*
X0166109Y0035628D03*
X0166109Y0035428D03*
X0166109Y0035228D03*
X0166109Y0035028D03*
X0166109Y0034828D03*
X0166109Y0034228D03*
X0166109Y0034028D03*
X0166109Y0033828D03*
X0166109Y0033628D03*
X0166909Y0034828D03*
X0166909Y0035028D03*
X0166909Y0035228D03*
X0166909Y0035428D03*
X0166909Y0035628D03*
X0167109Y0035628D03*
X0162909Y0036428D03*
X0162909Y0036628D03*
X0162909Y0036828D03*
X0162909Y0037028D03*
X0162909Y0037228D03*
X0162909Y0037428D03*
X0162509Y0037428D03*
X0162509Y0037228D03*
X0162509Y0037028D03*
X0162509Y0036828D03*
X0162509Y0036628D03*
X0162509Y0036428D03*
X0162509Y0036228D03*
X0162509Y0036028D03*
X0162109Y0036028D03*
X0162109Y0035828D03*
X0162109Y0035628D03*
X0162109Y0035428D03*
X0161709Y0035428D03*
X0161709Y0035228D03*
X0161709Y0035028D03*
X0161709Y0034828D03*
X0161309Y0034828D03*
X0161309Y0034628D03*
X0161309Y0034428D03*
X0161309Y0034228D03*
X0161309Y0034028D03*
X0161309Y0033828D03*
X0161309Y0033628D03*
X0161309Y0033428D03*
X0161309Y0033228D03*
X0161309Y0033028D03*
X0161309Y0032828D03*
X0161309Y0032628D03*
X0161309Y0032428D03*
X0160909Y0032428D03*
X0160909Y0032228D03*
X0160909Y0032628D03*
X0160909Y0032828D03*
X0160909Y0033028D03*
X0160909Y0033228D03*
X0160909Y0033428D03*
X0160909Y0033628D03*
X0160909Y0033828D03*
X0160909Y0034028D03*
X0160909Y0034228D03*
X0160909Y0034428D03*
X0160909Y0034628D03*
X0160909Y0034828D03*
X0161309Y0035028D03*
X0161309Y0035228D03*
X0161309Y0035428D03*
X0161709Y0035628D03*
X0161709Y0035828D03*
X0161709Y0036028D03*
X0162109Y0036228D03*
X0162109Y0036428D03*
X0162109Y0036628D03*
X0162109Y0037228D03*
X0162109Y0037428D03*
X0162109Y0037628D03*
X0162109Y0037828D03*
X0162109Y0038028D03*
X0162109Y0038228D03*
X0161709Y0038228D03*
X0161709Y0038028D03*
X0161709Y0037828D03*
X0161709Y0037628D03*
X0161509Y0037828D03*
X0161309Y0038028D03*
X0161309Y0038228D03*
X0161309Y0038428D03*
X0161309Y0038628D03*
X0161309Y0038828D03*
X0161309Y0039028D03*
X0160909Y0039028D03*
X0160909Y0038828D03*
X0160909Y0038628D03*
X0160909Y0038428D03*
X0160709Y0038628D03*
X0160509Y0038828D03*
X0160509Y0039028D03*
X0160509Y0039228D03*
X0160509Y0039428D03*
X0160509Y0039628D03*
X0160909Y0039428D03*
X0160909Y0039228D03*
X0160109Y0039228D03*
X0160109Y0039028D03*
X0160109Y0038828D03*
X0160109Y0038628D03*
X0159709Y0038628D03*
X0159709Y0038428D03*
X0159709Y0038228D03*
X0159509Y0038028D03*
X0159309Y0038028D03*
X0159309Y0038228D03*
X0159309Y0038428D03*
X0159309Y0038628D03*
X0159309Y0038828D03*
X0159109Y0038828D03*
X0158909Y0038628D03*
X0158909Y0038428D03*
X0158909Y0038228D03*
X0158909Y0038028D03*
X0158909Y0037828D03*
X0159109Y0037828D03*
X0158909Y0037628D03*
X0158509Y0037628D03*
X0158509Y0037428D03*
X0158509Y0037828D03*
X0158509Y0038028D03*
X0158509Y0038228D03*
X0158509Y0038428D03*
X0158109Y0038028D03*
X0158109Y0037828D03*
X0158109Y0037628D03*
X0158109Y0037428D03*
X0158109Y0037228D03*
X0157709Y0037228D03*
X0157709Y0037028D03*
X0157509Y0037028D03*
X0157309Y0037028D03*
X0157309Y0037228D03*
X0157309Y0037428D03*
X0157309Y0037628D03*
X0157309Y0037828D03*
X0157709Y0037828D03*
X0157709Y0037628D03*
X0157709Y0037428D03*
X0156909Y0037428D03*
X0156909Y0037228D03*
X0156909Y0037628D03*
X0156909Y0037828D03*
X0156909Y0038028D03*
X0156509Y0038028D03*
X0156509Y0037828D03*
X0156509Y0037628D03*
X0156509Y0037428D03*
X0156109Y0037628D03*
X0156109Y0037828D03*
X0156109Y0038028D03*
X0156109Y0038228D03*
X0155909Y0038428D03*
X0155709Y0038428D03*
X0155709Y0038228D03*
X0155709Y0038028D03*
X0155709Y0037828D03*
X0155309Y0037828D03*
X0155309Y0038028D03*
X0155309Y0038228D03*
X0155309Y0038428D03*
X0155309Y0038628D03*
X0155509Y0038628D03*
X0154909Y0038628D03*
X0154909Y0038428D03*
X0154909Y0038228D03*
X0154909Y0038028D03*
X0154509Y0038228D03*
X0154509Y0038428D03*
X0154509Y0038628D03*
X0154509Y0038828D03*
X0154509Y0039028D03*
X0154709Y0039028D03*
X0154909Y0038828D03*
X0154509Y0039228D03*
X0154509Y0039428D03*
X0154509Y0039628D03*
X0154509Y0039828D03*
X0154509Y0040028D03*
X0154109Y0040028D03*
X0154109Y0039828D03*
X0154109Y0039628D03*
X0154109Y0039428D03*
X0154109Y0039228D03*
X0154109Y0039028D03*
X0154109Y0038828D03*
X0154109Y0038628D03*
X0154109Y0040228D03*
X0154109Y0040428D03*
X0154109Y0040628D03*
X0154109Y0040828D03*
X0154109Y0041028D03*
X0154109Y0041228D03*
X0154109Y0041428D03*
X0154109Y0041628D03*
X0154109Y0041828D03*
X0154109Y0042028D03*
X0154109Y0042228D03*
X0153709Y0042228D03*
X0153709Y0042028D03*
X0153709Y0041828D03*
X0153709Y0041628D03*
X0153709Y0041428D03*
X0153709Y0041228D03*
X0153709Y0041028D03*
X0153709Y0040828D03*
X0153709Y0040628D03*
X0153709Y0040428D03*
X0153709Y0040228D03*
X0153309Y0041828D03*
X0153309Y0042028D03*
X0153309Y0042228D03*
X0153309Y0042428D03*
X0153709Y0042428D03*
X0152909Y0042428D03*
X0152909Y0042228D03*
X0152909Y0042028D03*
X0152909Y0041828D03*
X0152709Y0041828D03*
X0152509Y0041828D03*
X0152509Y0042028D03*
X0152509Y0042228D03*
X0152509Y0042428D03*
X0152109Y0042428D03*
X0152109Y0042228D03*
X0152109Y0042028D03*
X0152109Y0041828D03*
X0151909Y0041828D03*
X0151709Y0041828D03*
X0151709Y0042028D03*
X0151709Y0042228D03*
X0151709Y0042428D03*
X0151309Y0042428D03*
X0151309Y0042228D03*
X0151309Y0042028D03*
X0151309Y0041828D03*
X0151109Y0041828D03*
X0150909Y0041828D03*
X0150909Y0042028D03*
X0150909Y0042228D03*
X0150909Y0042428D03*
X0150509Y0042428D03*
X0150509Y0042228D03*
X0150509Y0042028D03*
X0150509Y0041828D03*
X0150509Y0041628D03*
X0150509Y0041428D03*
X0150509Y0041228D03*
X0150509Y0041028D03*
X0150509Y0040828D03*
X0150509Y0040628D03*
X0150509Y0040428D03*
X0150509Y0040228D03*
X0150509Y0040028D03*
X0150509Y0039828D03*
X0150509Y0039628D03*
X0150109Y0039628D03*
X0150109Y0039428D03*
X0150109Y0039228D03*
X0150109Y0039028D03*
X0150109Y0038828D03*
X0150109Y0038628D03*
X0150309Y0038628D03*
X0150109Y0038428D03*
X0149709Y0038428D03*
X0149709Y0038228D03*
X0149709Y0038028D03*
X0149309Y0038028D03*
X0149309Y0038228D03*
X0149309Y0038428D03*
X0149309Y0038628D03*
X0149309Y0038828D03*
X0149709Y0038828D03*
X0149709Y0038628D03*
X0149709Y0039028D03*
X0149709Y0039228D03*
X0149709Y0039428D03*
X0149709Y0039628D03*
X0149709Y0039828D03*
X0149709Y0040028D03*
X0149709Y0040228D03*
X0150109Y0040228D03*
X0150109Y0040028D03*
X0150109Y0039828D03*
X0150109Y0040428D03*
X0150109Y0040628D03*
X0150109Y0040828D03*
X0150109Y0041028D03*
X0150109Y0041228D03*
X0150109Y0041428D03*
X0150109Y0041628D03*
X0150109Y0041828D03*
X0150109Y0042028D03*
X0150109Y0042228D03*
X0150109Y0042428D03*
X0149909Y0041428D03*
X0148909Y0038628D03*
X0148909Y0038428D03*
X0148909Y0038228D03*
X0148909Y0038028D03*
X0148909Y0037828D03*
X0148509Y0037828D03*
X0148509Y0037628D03*
X0148509Y0038028D03*
X0148509Y0038228D03*
X0148509Y0038428D03*
X0148109Y0038228D03*
X0148109Y0038028D03*
X0148109Y0037828D03*
X0148109Y0037628D03*
X0148109Y0037428D03*
X0147709Y0037428D03*
X0147709Y0037228D03*
X0147709Y0037628D03*
X0147709Y0037828D03*
X0147709Y0038028D03*
X0147309Y0037828D03*
X0147309Y0037628D03*
X0147309Y0037428D03*
X0147309Y0037228D03*
X0147309Y0037028D03*
X0146909Y0037028D03*
X0146909Y0037228D03*
X0146909Y0037428D03*
X0146909Y0037628D03*
X0146509Y0037628D03*
X0146509Y0037428D03*
X0146509Y0037228D03*
X0146509Y0037028D03*
X0146309Y0037028D03*
X0146109Y0037228D03*
X0146109Y0037428D03*
X0146109Y0037628D03*
X0146109Y0037828D03*
X0146109Y0038028D03*
X0145909Y0038228D03*
X0145709Y0038228D03*
X0145709Y0038028D03*
X0145709Y0037828D03*
X0145709Y0037628D03*
X0145709Y0037428D03*
X0145309Y0037828D03*
X0145309Y0038028D03*
X0145309Y0038228D03*
X0145309Y0038428D03*
X0145309Y0038628D03*
X0144909Y0038628D03*
X0144909Y0038428D03*
X0144909Y0038228D03*
X0144909Y0038028D03*
X0144509Y0038428D03*
X0144509Y0038628D03*
X0144509Y0038828D03*
X0144509Y0039028D03*
X0144509Y0039228D03*
X0144109Y0039228D03*
X0144109Y0039028D03*
X0144109Y0038828D03*
X0144109Y0038628D03*
X0144309Y0038428D03*
X0144909Y0038828D03*
X0145709Y0038428D03*
X0146509Y0037828D03*
X0144109Y0039428D03*
X0143909Y0039628D03*
X0143709Y0039628D03*
X0143709Y0039428D03*
X0143709Y0039228D03*
X0143709Y0039028D03*
X0143709Y0038828D03*
X0143309Y0038828D03*
X0143309Y0038628D03*
X0143309Y0038428D03*
X0142909Y0038428D03*
X0142909Y0038228D03*
X0142909Y0038028D03*
X0142509Y0038028D03*
X0142509Y0037828D03*
X0142509Y0037628D03*
X0142109Y0037628D03*
X0142109Y0037428D03*
X0142109Y0037228D03*
X0142109Y0036828D03*
X0142109Y0036628D03*
X0142109Y0036428D03*
X0142109Y0036228D03*
X0142109Y0036028D03*
X0142109Y0035828D03*
X0142109Y0035628D03*
X0142109Y0035428D03*
X0142109Y0035228D03*
X0142509Y0035228D03*
X0142509Y0035028D03*
X0142509Y0034828D03*
X0142509Y0034628D03*
X0142909Y0034628D03*
X0142909Y0034428D03*
X0142909Y0034228D03*
X0142909Y0034028D03*
X0143309Y0034028D03*
X0143309Y0033828D03*
X0143309Y0033628D03*
X0143309Y0033428D03*
X0143309Y0033228D03*
X0143309Y0033028D03*
X0143309Y0032828D03*
X0143309Y0032628D03*
X0143309Y0032428D03*
X0143309Y0032228D03*
X0142909Y0032228D03*
X0142909Y0032028D03*
X0142909Y0031828D03*
X0142909Y0031628D03*
X0142909Y0031428D03*
X0142909Y0031228D03*
X0142509Y0031228D03*
X0142509Y0031028D03*
X0142509Y0030828D03*
X0142709Y0030828D03*
X0142509Y0030628D03*
X0142109Y0030628D03*
X0142109Y0030428D03*
X0141909Y0030428D03*
X0141709Y0030428D03*
X0141709Y0030628D03*
X0141709Y0030828D03*
X0141709Y0031028D03*
X0141709Y0031228D03*
X0142109Y0031228D03*
X0142109Y0031028D03*
X0142109Y0030828D03*
X0142109Y0031428D03*
X0142109Y0031628D03*
X0142509Y0031628D03*
X0142509Y0031428D03*
X0142509Y0031828D03*
X0142509Y0032028D03*
X0142509Y0032228D03*
X0142509Y0032428D03*
X0142509Y0032628D03*
X0142909Y0032628D03*
X0142909Y0032428D03*
X0142909Y0032828D03*
X0142909Y0033028D03*
X0142909Y0033228D03*
X0142909Y0033428D03*
X0142909Y0033628D03*
X0143309Y0034228D03*
X0143309Y0034428D03*
X0143309Y0034628D03*
X0143309Y0034828D03*
X0143309Y0035028D03*
X0142909Y0035028D03*
X0142909Y0034828D03*
X0142909Y0035228D03*
X0142909Y0035428D03*
X0142909Y0035628D03*
X0142509Y0035628D03*
X0142509Y0035428D03*
X0142509Y0035828D03*
X0142509Y0036028D03*
X0142509Y0036228D03*
X0141709Y0036228D03*
X0141709Y0036028D03*
X0141709Y0035828D03*
X0141709Y0036428D03*
X0141709Y0036628D03*
X0141709Y0036828D03*
X0141709Y0037028D03*
X0141709Y0037228D03*
X0141709Y0037428D03*
X0141709Y0037628D03*
X0141709Y0037828D03*
X0141709Y0038028D03*
X0141909Y0038228D03*
X0142109Y0038228D03*
X0142109Y0038028D03*
X0142109Y0037828D03*
X0142509Y0038228D03*
X0142509Y0038428D03*
X0142509Y0038628D03*
X0142509Y0038828D03*
X0142709Y0039028D03*
X0142909Y0039028D03*
X0142909Y0038828D03*
X0142909Y0038628D03*
X0143309Y0039028D03*
X0143309Y0039228D03*
X0143309Y0039428D03*
X0143309Y0039628D03*
X0142909Y0039228D03*
X0142109Y0038428D03*
X0141309Y0037628D03*
X0141309Y0037428D03*
X0141309Y0037228D03*
X0141309Y0037028D03*
X0141309Y0036828D03*
X0141309Y0036628D03*
X0141309Y0036428D03*
X0140909Y0037028D03*
X0141109Y0037428D03*
X0143709Y0034428D03*
X0143709Y0034228D03*
X0143709Y0034028D03*
X0143709Y0033828D03*
X0143709Y0033628D03*
X0143709Y0033428D03*
X0143709Y0033228D03*
X0141309Y0031028D03*
X0141309Y0030828D03*
X0141309Y0030628D03*
X0141309Y0030428D03*
X0140909Y0030428D03*
X0140909Y0030228D03*
X0140709Y0030228D03*
X0140509Y0030228D03*
X0140509Y0030428D03*
X0140509Y0030628D03*
X0140509Y0030828D03*
X0140909Y0030828D03*
X0140909Y0030628D03*
X0140909Y0031028D03*
X0140109Y0030828D03*
X0140109Y0030628D03*
X0140109Y0030428D03*
X0140109Y0030228D03*
X0139709Y0030228D03*
X0139709Y0030028D03*
X0139509Y0030028D03*
X0139309Y0030028D03*
X0139309Y0030228D03*
X0139309Y0030428D03*
X0139309Y0030628D03*
X0139709Y0030628D03*
X0139709Y0030428D03*
X0139709Y0030828D03*
X0139909Y0030828D03*
X0138909Y0030628D03*
X0138909Y0030428D03*
X0138909Y0030228D03*
X0138909Y0030028D03*
X0138909Y0029828D03*
X0138909Y0029628D03*
X0138909Y0029428D03*
X0138909Y0029228D03*
X0138909Y0029028D03*
X0138909Y0028828D03*
X0138909Y0028628D03*
X0138909Y0028428D03*
X0138909Y0028228D03*
X0138909Y0028028D03*
X0138909Y0027828D03*
X0138909Y0027628D03*
X0138909Y0027428D03*
X0138909Y0027228D03*
X0138909Y0027028D03*
X0138909Y0026828D03*
X0138909Y0026628D03*
X0139309Y0026628D03*
X0139309Y0026428D03*
X0139509Y0026428D03*
X0139709Y0026428D03*
X0139709Y0026628D03*
X0139709Y0026828D03*
X0139709Y0027028D03*
X0140109Y0027028D03*
X0140309Y0027028D03*
X0140509Y0027028D03*
X0140509Y0026828D03*
X0140509Y0026628D03*
X0140509Y0026428D03*
X0140509Y0026228D03*
X0140709Y0026228D03*
X0140909Y0026228D03*
X0140909Y0026428D03*
X0140909Y0026628D03*
X0140909Y0026828D03*
X0141309Y0026828D03*
X0141509Y0026828D03*
X0141709Y0026828D03*
X0141709Y0026628D03*
X0141709Y0026428D03*
X0141709Y0026228D03*
X0141709Y0026028D03*
X0142109Y0026028D03*
X0142109Y0025828D03*
X0142109Y0025628D03*
X0142509Y0025628D03*
X0142509Y0025428D03*
X0142509Y0025228D03*
X0142509Y0025028D03*
X0142509Y0024828D03*
X0142509Y0024628D03*
X0142909Y0024628D03*
X0142909Y0024428D03*
X0142909Y0024228D03*
X0142909Y0024028D03*
X0142909Y0023828D03*
X0142909Y0023628D03*
X0143309Y0023628D03*
X0143309Y0023428D03*
X0143309Y0023228D03*
X0143309Y0023028D03*
X0143309Y0022828D03*
X0143309Y0022628D03*
X0143309Y0022428D03*
X0143509Y0022428D03*
X0143309Y0022228D03*
X0142909Y0022228D03*
X0142909Y0022028D03*
X0142909Y0021828D03*
X0143109Y0021828D03*
X0142909Y0021628D03*
X0142509Y0021628D03*
X0142509Y0021428D03*
X0142509Y0021228D03*
X0142709Y0021228D03*
X0142509Y0021028D03*
X0142109Y0021028D03*
X0142109Y0020828D03*
X0142109Y0020628D03*
X0142109Y0020428D03*
X0142109Y0020028D03*
X0142109Y0019828D03*
X0142109Y0019628D03*
X0142109Y0019428D03*
X0142109Y0019228D03*
X0142109Y0019028D03*
X0142109Y0018828D03*
X0142309Y0018628D03*
X0142509Y0018628D03*
X0142509Y0018428D03*
X0142909Y0018428D03*
X0142909Y0018228D03*
X0142909Y0018028D03*
X0143109Y0017828D03*
X0143309Y0017828D03*
X0143309Y0017628D03*
X0143709Y0017628D03*
X0143709Y0017428D03*
X0143709Y0017828D03*
X0143709Y0018028D03*
X0143709Y0018228D03*
X0143709Y0018428D03*
X0143509Y0018628D03*
X0143309Y0018628D03*
X0143309Y0018428D03*
X0143309Y0018228D03*
X0143309Y0018028D03*
X0142909Y0018628D03*
X0142909Y0018828D03*
X0142909Y0019028D03*
X0142909Y0019228D03*
X0142709Y0019428D03*
X0142509Y0019428D03*
X0142509Y0019228D03*
X0142509Y0019028D03*
X0142509Y0018828D03*
X0143309Y0018828D03*
X0144109Y0018628D03*
X0144109Y0018428D03*
X0144109Y0018228D03*
X0144109Y0018028D03*
X0144109Y0017828D03*
X0144509Y0018028D03*
X0144509Y0018228D03*
X0144509Y0018428D03*
X0144509Y0018628D03*
X0144509Y0018828D03*
X0144909Y0018828D03*
X0144909Y0018628D03*
X0144909Y0018428D03*
X0145109Y0018428D03*
X0145309Y0018628D03*
X0145509Y0018628D03*
X0145709Y0018828D03*
X0145709Y0019028D03*
X0145709Y0019228D03*
X0145709Y0019428D03*
X0145709Y0019628D03*
X0145509Y0019628D03*
X0145309Y0019428D03*
X0145309Y0019228D03*
X0145309Y0019028D03*
X0145309Y0018828D03*
X0144909Y0019028D03*
X0144909Y0019228D03*
X0144909Y0018228D03*
X0146109Y0019228D03*
X0146109Y0019428D03*
X0146109Y0019628D03*
X0146109Y0019828D03*
X0146109Y0020028D03*
X0145909Y0019828D03*
X0146509Y0019828D03*
X0146509Y0019628D03*
X0146509Y0019428D03*
X0146909Y0019428D03*
X0146909Y0019628D03*
X0146909Y0019828D03*
X0146909Y0020028D03*
X0146909Y0020228D03*
X0146709Y0020228D03*
X0146509Y0020228D03*
X0146509Y0020028D03*
X0147309Y0020028D03*
X0147309Y0019828D03*
X0147309Y0019628D03*
X0147309Y0019428D03*
X0147309Y0019228D03*
X0147509Y0019228D03*
X0147709Y0019228D03*
X0147709Y0019428D03*
X0147709Y0019628D03*
X0147709Y0019828D03*
X0147709Y0020028D03*
X0148109Y0019828D03*
X0148109Y0019628D03*
X0148109Y0019428D03*
X0148109Y0019228D03*
X0148109Y0019028D03*
X0147909Y0019028D03*
X0148309Y0018828D03*
X0148509Y0018828D03*
X0148509Y0019028D03*
X0148509Y0019228D03*
X0148509Y0019428D03*
X0148509Y0019628D03*
X0148909Y0019428D03*
X0149109Y0019428D03*
X0149309Y0019228D03*
X0149509Y0019228D03*
X0149709Y0019028D03*
X0149909Y0019028D03*
X0150109Y0018828D03*
X0150109Y0018628D03*
X0150109Y0018428D03*
X0150109Y0018228D03*
X0150109Y0018028D03*
X0150109Y0017828D03*
X0150109Y0017628D03*
X0150109Y0017428D03*
X0150109Y0017228D03*
X0150109Y0017028D03*
X0150109Y0016828D03*
X0150109Y0016628D03*
X0150109Y0016428D03*
X0150109Y0016228D03*
X0150109Y0016028D03*
X0150109Y0015828D03*
X0150109Y0015628D03*
X0150109Y0015428D03*
X0150109Y0015228D03*
X0150109Y0015028D03*
X0150109Y0014828D03*
X0150309Y0014628D03*
X0150509Y0014628D03*
X0150509Y0014828D03*
X0150509Y0015028D03*
X0150509Y0015228D03*
X0150509Y0015428D03*
X0150509Y0015628D03*
X0150509Y0015828D03*
X0150509Y0016028D03*
X0150509Y0016228D03*
X0150509Y0016428D03*
X0150509Y0016628D03*
X0150509Y0016828D03*
X0150509Y0017028D03*
X0150509Y0017228D03*
X0150509Y0017428D03*
X0150509Y0017628D03*
X0149709Y0017628D03*
X0149709Y0017428D03*
X0149709Y0017228D03*
X0149709Y0017028D03*
X0149709Y0016828D03*
X0149709Y0017828D03*
X0149709Y0018028D03*
X0149709Y0018228D03*
X0149709Y0018428D03*
X0149709Y0018628D03*
X0149709Y0018828D03*
X0149309Y0018828D03*
X0149309Y0018628D03*
X0149309Y0018428D03*
X0148909Y0018628D03*
X0148909Y0018828D03*
X0148909Y0019028D03*
X0148909Y0019228D03*
X0149309Y0019028D03*
X0148709Y0018628D03*
X0150909Y0015428D03*
X0150909Y0015228D03*
X0150909Y0015028D03*
X0150909Y0014828D03*
X0150909Y0014628D03*
X0151109Y0014628D03*
X0151309Y0014628D03*
X0151309Y0014828D03*
X0151309Y0015028D03*
X0151309Y0015228D03*
X0151309Y0015428D03*
X0151509Y0015428D03*
X0151709Y0015428D03*
X0151709Y0015228D03*
X0151709Y0015028D03*
X0151709Y0014828D03*
X0151709Y0014628D03*
X0151909Y0014628D03*
X0152109Y0014628D03*
X0152109Y0014828D03*
X0152109Y0015028D03*
X0152109Y0015228D03*
X0152109Y0015428D03*
X0152309Y0015428D03*
X0152509Y0015428D03*
X0152509Y0015228D03*
X0152509Y0015028D03*
X0152509Y0014828D03*
X0152509Y0014628D03*
X0152709Y0014628D03*
X0152909Y0014628D03*
X0152909Y0014828D03*
X0152909Y0015028D03*
X0152909Y0015228D03*
X0152909Y0015428D03*
X0153109Y0015428D03*
X0153309Y0015428D03*
X0153309Y0015228D03*
X0153309Y0015028D03*
X0153309Y0014828D03*
X0153309Y0014628D03*
X0153509Y0014628D03*
X0153709Y0014628D03*
X0153709Y0014828D03*
X0153709Y0015028D03*
X0153709Y0015228D03*
X0153709Y0015428D03*
X0153709Y0015628D03*
X0153709Y0015828D03*
X0153709Y0016028D03*
X0153709Y0016228D03*
X0153709Y0016428D03*
X0153709Y0016628D03*
X0153709Y0016828D03*
X0153709Y0017028D03*
X0154109Y0017028D03*
X0154109Y0016828D03*
X0154109Y0016628D03*
X0154109Y0016428D03*
X0154109Y0016228D03*
X0154109Y0016028D03*
X0154109Y0015828D03*
X0154109Y0015628D03*
X0154109Y0015428D03*
X0154109Y0015228D03*
X0154109Y0015028D03*
X0154109Y0017228D03*
X0154109Y0017428D03*
X0154109Y0017628D03*
X0154109Y0017828D03*
X0154109Y0018028D03*
X0154109Y0018228D03*
X0154109Y0018428D03*
X0154109Y0018628D03*
X0154509Y0018628D03*
X0154509Y0018428D03*
X0154509Y0018228D03*
X0154509Y0018028D03*
X0154509Y0017828D03*
X0154509Y0017628D03*
X0154509Y0017428D03*
X0154509Y0017228D03*
X0154909Y0018428D03*
X0154909Y0018628D03*
X0154909Y0018828D03*
X0154909Y0019028D03*
X0155109Y0019228D03*
X0155309Y0019228D03*
X0155309Y0019028D03*
X0155309Y0018828D03*
X0155309Y0018628D03*
X0155709Y0018628D03*
X0155709Y0018828D03*
X0155709Y0019028D03*
X0155709Y0019228D03*
X0155709Y0019428D03*
X0155509Y0019428D03*
X0156109Y0019428D03*
X0156109Y0019228D03*
X0156109Y0019028D03*
X0156109Y0018828D03*
X0156509Y0019028D03*
X0156509Y0019228D03*
X0156509Y0019428D03*
X0156509Y0019628D03*
X0156509Y0019828D03*
X0156909Y0019828D03*
X0156909Y0019628D03*
X0156909Y0019428D03*
X0156909Y0019228D03*
X0157109Y0019228D03*
X0157309Y0019428D03*
X0157309Y0019628D03*
X0157309Y0019828D03*
X0157309Y0020028D03*
X0157709Y0020028D03*
X0157709Y0019828D03*
X0157709Y0019628D03*
X0157709Y0019428D03*
X0157909Y0019228D03*
X0158109Y0019228D03*
X0158109Y0019028D03*
X0158509Y0019028D03*
X0158509Y0018828D03*
X0158909Y0018828D03*
X0158909Y0018628D03*
X0159309Y0018628D03*
X0159309Y0018428D03*
X0159309Y0018228D03*
X0159709Y0018228D03*
X0159709Y0018028D03*
X0159909Y0017828D03*
X0160109Y0017828D03*
X0160109Y0017628D03*
X0160509Y0017628D03*
X0160509Y0017428D03*
X0160509Y0017828D03*
X0160509Y0018028D03*
X0160509Y0018228D03*
X0160509Y0018428D03*
X0160909Y0018428D03*
X0160909Y0018228D03*
X0160909Y0018028D03*
X0160909Y0017828D03*
X0160909Y0017628D03*
X0161309Y0018028D03*
X0161309Y0018228D03*
X0161509Y0018228D03*
X0161709Y0018428D03*
X0161709Y0018628D03*
X0161709Y0018828D03*
X0161709Y0019028D03*
X0161709Y0019228D03*
X0161709Y0019428D03*
X0162109Y0019428D03*
X0162109Y0019228D03*
X0162109Y0019028D03*
X0162309Y0019028D03*
X0162509Y0019228D03*
X0162509Y0019428D03*
X0162509Y0019628D03*
X0162509Y0019828D03*
X0162509Y0020028D03*
X0162509Y0020228D03*
X0162509Y0020428D03*
X0162509Y0020628D03*
X0162509Y0020828D03*
X0162509Y0021028D03*
X0162709Y0021028D03*
X0162509Y0021228D03*
X0162109Y0021228D03*
X0162109Y0021028D03*
X0162109Y0020828D03*
X0162109Y0020628D03*
X0161909Y0020828D03*
X0161709Y0021228D03*
X0161709Y0021428D03*
X0161709Y0021628D03*
X0161709Y0021828D03*
X0161709Y0022028D03*
X0161709Y0022228D03*
X0161909Y0022228D03*
X0161709Y0022428D03*
X0161309Y0022428D03*
X0161309Y0022228D03*
X0161309Y0022028D03*
X0161309Y0021828D03*
X0161109Y0022028D03*
X0160909Y0022428D03*
X0160909Y0022628D03*
X0160909Y0022828D03*
X0160909Y0023028D03*
X0160909Y0023228D03*
X0160909Y0023428D03*
X0160909Y0023628D03*
X0160909Y0023828D03*
X0161309Y0023828D03*
X0161309Y0023628D03*
X0161309Y0023428D03*
X0161509Y0023428D03*
X0161309Y0023228D03*
X0161309Y0023028D03*
X0161309Y0022828D03*
X0161309Y0022628D03*
X0160709Y0022628D03*
X0161509Y0021428D03*
X0162109Y0021428D03*
X0162109Y0021628D03*
X0162309Y0021628D03*
X0162109Y0021828D03*
X0162909Y0020628D03*
X0162909Y0020428D03*
X0163109Y0020428D03*
X0162909Y0020228D03*
X0162909Y0020028D03*
X0162909Y0019828D03*
X0163109Y0019828D03*
X0162909Y0019628D03*
X0162109Y0019628D03*
X0162109Y0019828D03*
X0162109Y0018828D03*
X0161309Y0018828D03*
X0161309Y0018628D03*
X0161309Y0018428D03*
X0160909Y0018628D03*
X0161309Y0019028D03*
X0160109Y0018628D03*
X0160109Y0018428D03*
X0160109Y0018228D03*
X0160109Y0018028D03*
X0159709Y0018428D03*
X0159709Y0018628D03*
X0159709Y0018828D03*
X0159909Y0018828D03*
X0159709Y0019028D03*
X0159309Y0019028D03*
X0159309Y0018828D03*
X0159309Y0019228D03*
X0158909Y0019228D03*
X0158909Y0019028D03*
X0158909Y0019428D03*
X0158509Y0019428D03*
X0158509Y0019228D03*
X0158509Y0019628D03*
X0158509Y0019828D03*
X0158109Y0019828D03*
X0158109Y0019628D03*
X0158109Y0019428D03*
X0158109Y0020028D03*
X0156109Y0019628D03*
X0154509Y0019028D03*
X0154509Y0018828D03*
X0153309Y0024028D03*
X0153309Y0024228D03*
X0153309Y0024428D03*
X0153309Y0024628D03*
X0153309Y0024828D03*
X0153709Y0024828D03*
X0153709Y0024628D03*
X0153709Y0024428D03*
X0153709Y0024228D03*
X0154109Y0024428D03*
X0154109Y0024628D03*
X0154109Y0024828D03*
X0154109Y0025028D03*
X0154109Y0025228D03*
X0154509Y0025228D03*
X0154509Y0025028D03*
X0154509Y0024828D03*
X0154509Y0024628D03*
X0154909Y0024828D03*
X0154909Y0025028D03*
X0154909Y0025228D03*
X0154909Y0025428D03*
X0154909Y0025628D03*
X0154909Y0025828D03*
X0155309Y0025828D03*
X0155309Y0025628D03*
X0155309Y0025428D03*
X0155309Y0025228D03*
X0155709Y0025628D03*
X0155709Y0025828D03*
X0155709Y0026028D03*
X0155709Y0026228D03*
X0155709Y0026428D03*
X0155709Y0026628D03*
X0155709Y0026828D03*
X0155709Y0027028D03*
X0156109Y0027028D03*
X0156109Y0026828D03*
X0156109Y0026628D03*
X0156109Y0026428D03*
X0156109Y0026228D03*
X0156109Y0026028D03*
X0156509Y0026028D03*
X0156509Y0026228D03*
X0156509Y0026428D03*
X0156509Y0026628D03*
X0156509Y0026828D03*
X0156909Y0026628D03*
X0157109Y0026628D03*
X0157309Y0026428D03*
X0157509Y0026428D03*
X0157709Y0026228D03*
X0157909Y0026228D03*
X0158109Y0026228D03*
X0158109Y0026028D03*
X0158109Y0025828D03*
X0158109Y0025628D03*
X0158109Y0025428D03*
X0158509Y0025428D03*
X0158509Y0025228D03*
X0158909Y0025228D03*
X0158909Y0025028D03*
X0159309Y0025028D03*
X0159309Y0024828D03*
X0159509Y0024828D03*
X0159709Y0024828D03*
X0159709Y0025028D03*
X0159709Y0025228D03*
X0159709Y0025428D03*
X0159309Y0025428D03*
X0159309Y0025228D03*
X0159309Y0025628D03*
X0158909Y0025628D03*
X0158909Y0025428D03*
X0158909Y0025828D03*
X0158509Y0025828D03*
X0158509Y0025628D03*
X0158509Y0026028D03*
X0157709Y0026028D03*
X0157709Y0025828D03*
X0157709Y0025628D03*
X0157309Y0025828D03*
X0157309Y0026028D03*
X0157309Y0026228D03*
X0156909Y0026228D03*
X0156909Y0026028D03*
X0156909Y0025828D03*
X0156909Y0026428D03*
X0155309Y0026428D03*
X0155309Y0026228D03*
X0155309Y0026028D03*
X0154509Y0025428D03*
X0153709Y0025028D03*
X0152909Y0024828D03*
X0152909Y0024628D03*
X0152909Y0024428D03*
X0152909Y0024228D03*
X0152909Y0024028D03*
X0153109Y0024028D03*
X0152509Y0024028D03*
X0152509Y0024228D03*
X0152509Y0024428D03*
X0152509Y0024628D03*
X0152109Y0024628D03*
X0152109Y0024428D03*
X0152109Y0024228D03*
X0152109Y0024028D03*
X0151709Y0024028D03*
X0151709Y0024228D03*
X0151709Y0024428D03*
X0151709Y0024628D03*
X0151309Y0024628D03*
X0151309Y0024428D03*
X0151309Y0024228D03*
X0151309Y0024028D03*
X0151509Y0024028D03*
X0150909Y0024228D03*
X0150909Y0024428D03*
X0150909Y0024628D03*
X0150909Y0024828D03*
X0151109Y0024828D03*
X0151309Y0024828D03*
X0150509Y0024828D03*
X0150509Y0024628D03*
X0150509Y0024428D03*
X0150509Y0024228D03*
X0150109Y0024428D03*
X0150109Y0024628D03*
X0150109Y0024828D03*
X0150109Y0025028D03*
X0150109Y0025228D03*
X0149909Y0025428D03*
X0149709Y0025428D03*
X0149709Y0025228D03*
X0149709Y0025028D03*
X0149709Y0024828D03*
X0149709Y0024628D03*
X0149309Y0025028D03*
X0149309Y0025228D03*
X0149309Y0025428D03*
X0149309Y0025628D03*
X0149309Y0025828D03*
X0148909Y0025828D03*
X0148909Y0025628D03*
X0148909Y0025428D03*
X0148909Y0025228D03*
X0148709Y0025428D03*
X0148509Y0025828D03*
X0148509Y0026028D03*
X0148509Y0026228D03*
X0148509Y0026428D03*
X0148509Y0026628D03*
X0148509Y0026828D03*
X0148509Y0027028D03*
X0148509Y0027228D03*
X0148109Y0027228D03*
X0148109Y0027028D03*
X0148109Y0026828D03*
X0148109Y0026628D03*
X0148109Y0026428D03*
X0148109Y0026228D03*
X0147909Y0026628D03*
X0147709Y0027228D03*
X0147709Y0027428D03*
X0147709Y0027628D03*
X0147709Y0027828D03*
X0147709Y0028028D03*
X0147709Y0028228D03*
X0147709Y0028428D03*
X0147709Y0028628D03*
X0147709Y0028828D03*
X0147709Y0029028D03*
X0147709Y0029228D03*
X0147709Y0029428D03*
X0147709Y0029628D03*
X0147709Y0029828D03*
X0147709Y0030028D03*
X0148109Y0030028D03*
X0148109Y0029828D03*
X0148109Y0029628D03*
X0148109Y0029428D03*
X0148109Y0029228D03*
X0148309Y0029228D03*
X0148109Y0029028D03*
X0148109Y0028828D03*
X0148109Y0028628D03*
X0148109Y0028428D03*
X0148109Y0028228D03*
X0148109Y0028028D03*
X0148109Y0027828D03*
X0148109Y0027628D03*
X0148109Y0027428D03*
X0148909Y0026428D03*
X0148909Y0026228D03*
X0148909Y0026028D03*
X0150509Y0025028D03*
X0147509Y0029028D03*
X0148109Y0030228D03*
X0148109Y0030428D03*
X0148109Y0030628D03*
X0148109Y0030828D03*
X0148509Y0030828D03*
X0148509Y0030628D03*
X0148509Y0030428D03*
X0148509Y0030228D03*
X0148509Y0030028D03*
X0148909Y0030828D03*
X0148909Y0031028D03*
X0148909Y0031228D03*
X0148909Y0031428D03*
X0148909Y0031628D03*
X0148909Y0031828D03*
X0149309Y0031828D03*
X0149309Y0031628D03*
X0149309Y0031428D03*
X0149509Y0031428D03*
X0149709Y0031628D03*
X0149709Y0031828D03*
X0149709Y0032028D03*
X0149709Y0032228D03*
X0149709Y0032428D03*
X0149509Y0032428D03*
X0149309Y0032228D03*
X0149309Y0032028D03*
X0150109Y0032028D03*
X0150109Y0032228D03*
X0150109Y0032428D03*
X0150109Y0032628D03*
X0150109Y0032828D03*
X0150309Y0032828D03*
X0150509Y0032828D03*
X0150509Y0032628D03*
X0150509Y0032428D03*
X0150509Y0032228D03*
X0150909Y0032428D03*
X0150909Y0032628D03*
X0150909Y0032828D03*
X0150909Y0033028D03*
X0150709Y0033028D03*
X0151309Y0033028D03*
X0151309Y0032828D03*
X0151309Y0032628D03*
X0151309Y0032428D03*
X0151509Y0032428D03*
X0151709Y0032428D03*
X0151709Y0032628D03*
X0151709Y0032828D03*
X0151709Y0033028D03*
X0151709Y0033228D03*
X0151909Y0033228D03*
X0152109Y0033228D03*
X0152109Y0033028D03*
X0152109Y0032828D03*
X0152109Y0032628D03*
X0152509Y0032628D03*
X0152509Y0032428D03*
X0152909Y0032428D03*
X0152909Y0032628D03*
X0152909Y0032828D03*
X0152909Y0033028D03*
X0152909Y0033228D03*
X0152709Y0033228D03*
X0152509Y0033228D03*
X0152509Y0033028D03*
X0152509Y0032828D03*
X0153309Y0032828D03*
X0153309Y0032628D03*
X0153309Y0032428D03*
X0153509Y0032228D03*
X0153709Y0032228D03*
X0153709Y0032428D03*
X0153709Y0032628D03*
X0153709Y0032828D03*
X0153709Y0033028D03*
X0153309Y0033028D03*
X0154109Y0032828D03*
X0154109Y0032628D03*
X0154109Y0032428D03*
X0154109Y0032228D03*
X0154109Y0032028D03*
X0153909Y0032028D03*
X0154509Y0032028D03*
X0154509Y0031828D03*
X0154509Y0031628D03*
X0154909Y0031628D03*
X0154909Y0031428D03*
X0154909Y0031228D03*
X0155109Y0031028D03*
X0155309Y0031028D03*
X0155309Y0030828D03*
X0155709Y0030828D03*
X0155709Y0030628D03*
X0155709Y0030428D03*
X0155709Y0030228D03*
X0155509Y0030428D03*
X0156109Y0030428D03*
X0156109Y0030228D03*
X0156109Y0030628D03*
X0156109Y0030828D03*
X0156109Y0031028D03*
X0156509Y0031028D03*
X0156509Y0030828D03*
X0156509Y0030628D03*
X0156509Y0030428D03*
X0156909Y0030628D03*
X0156909Y0030828D03*
X0156909Y0031028D03*
X0156909Y0031228D03*
X0156709Y0031228D03*
X0157109Y0031428D03*
X0157309Y0031428D03*
X0157309Y0031228D03*
X0157309Y0031028D03*
X0157309Y0030828D03*
X0157709Y0030828D03*
X0157709Y0031028D03*
X0157709Y0031228D03*
X0157709Y0031428D03*
X0157709Y0031628D03*
X0157509Y0031628D03*
X0158109Y0031628D03*
X0158109Y0031428D03*
X0158109Y0031228D03*
X0158109Y0031028D03*
X0158509Y0031228D03*
X0158709Y0031228D03*
X0158909Y0031428D03*
X0159109Y0031428D03*
X0159309Y0031628D03*
X0159509Y0031628D03*
X0159709Y0031628D03*
X0159709Y0031828D03*
X0159709Y0032028D03*
X0159709Y0032228D03*
X0159709Y0032428D03*
X0160109Y0032428D03*
X0160109Y0032228D03*
X0160109Y0032028D03*
X0160109Y0031828D03*
X0160509Y0032028D03*
X0160509Y0032228D03*
X0160509Y0032428D03*
X0160509Y0032628D03*
X0160509Y0032828D03*
X0160109Y0032628D03*
X0159309Y0032228D03*
X0159309Y0032028D03*
X0159309Y0031828D03*
X0158909Y0031828D03*
X0158909Y0031628D03*
X0158909Y0032028D03*
X0158509Y0032028D03*
X0158509Y0031828D03*
X0158509Y0031628D03*
X0158509Y0031428D03*
X0158109Y0031828D03*
X0155709Y0031628D03*
X0155709Y0031428D03*
X0155709Y0031228D03*
X0155709Y0031028D03*
X0155309Y0031228D03*
X0155309Y0031428D03*
X0155309Y0031628D03*
X0155309Y0031828D03*
X0155309Y0032028D03*
X0154909Y0032028D03*
X0154909Y0031828D03*
X0154909Y0032228D03*
X0154909Y0032428D03*
X0154509Y0032428D03*
X0154509Y0032228D03*
X0154509Y0032628D03*
X0149309Y0031228D03*
X0148509Y0031228D03*
X0148509Y0031028D03*
X0148509Y0031428D03*
X0142509Y0026428D03*
X0142509Y0026228D03*
X0142509Y0026028D03*
X0142509Y0025828D03*
X0142909Y0025828D03*
X0142909Y0025628D03*
X0142909Y0025428D03*
X0142909Y0025228D03*
X0142909Y0025028D03*
X0142909Y0024828D03*
X0143309Y0024828D03*
X0143309Y0024628D03*
X0143309Y0024428D03*
X0143309Y0024228D03*
X0143309Y0024028D03*
X0143309Y0023828D03*
X0143709Y0023828D03*
X0143709Y0023628D03*
X0143709Y0023428D03*
X0143709Y0023228D03*
X0143709Y0023028D03*
X0143709Y0022828D03*
X0142909Y0022828D03*
X0142909Y0022628D03*
X0142909Y0022428D03*
X0142509Y0022428D03*
X0142509Y0022228D03*
X0142509Y0022028D03*
X0142509Y0021828D03*
X0142109Y0021828D03*
X0142109Y0021628D03*
X0142109Y0021428D03*
X0142109Y0021228D03*
X0141709Y0021228D03*
X0141709Y0021028D03*
X0141709Y0020828D03*
X0141709Y0020628D03*
X0141709Y0020428D03*
X0141709Y0020228D03*
X0141709Y0020028D03*
X0141709Y0019828D03*
X0141709Y0019628D03*
X0141709Y0019428D03*
X0141709Y0019228D03*
X0141509Y0019428D03*
X0141309Y0019628D03*
X0141309Y0019828D03*
X0141309Y0020028D03*
X0141309Y0020228D03*
X0141309Y0020428D03*
X0141309Y0020628D03*
X0141309Y0020828D03*
X0140909Y0020228D03*
X0141709Y0021428D03*
X0142109Y0022028D03*
X0142909Y0023028D03*
X0142709Y0024028D03*
X0143709Y0024028D03*
X0143309Y0025028D03*
X0142309Y0025028D03*
X0142109Y0026228D03*
X0142109Y0026428D03*
X0142109Y0026628D03*
X0141309Y0026628D03*
X0141309Y0026428D03*
X0141309Y0026228D03*
X0140109Y0026428D03*
X0140109Y0026628D03*
X0140109Y0026828D03*
X0139309Y0026828D03*
X0139309Y0027028D03*
X0139309Y0027228D03*
X0138509Y0027228D03*
X0138509Y0027028D03*
X0138509Y0026828D03*
X0138509Y0026628D03*
X0138309Y0026628D03*
X0138109Y0026828D03*
X0138109Y0027028D03*
X0138109Y0027228D03*
X0138109Y0027428D03*
X0138109Y0027628D03*
X0138109Y0027828D03*
X0138109Y0028028D03*
X0138109Y0028228D03*
X0138109Y0028428D03*
X0138109Y0028628D03*
X0138109Y0028828D03*
X0138109Y0029028D03*
X0138109Y0029228D03*
X0138109Y0029428D03*
X0138109Y0029628D03*
X0138109Y0029828D03*
X0138109Y0030028D03*
X0138109Y0030228D03*
X0138109Y0030428D03*
X0138509Y0030428D03*
X0138509Y0030228D03*
X0138509Y0030028D03*
X0138509Y0029828D03*
X0138509Y0029628D03*
X0138509Y0029428D03*
X0138509Y0029228D03*
X0138509Y0029028D03*
X0138509Y0028828D03*
X0138509Y0028628D03*
X0138509Y0028428D03*
X0138509Y0028228D03*
X0138509Y0028028D03*
X0138509Y0027828D03*
X0138509Y0027628D03*
X0138509Y0027428D03*
X0138509Y0030628D03*
X0138709Y0030628D03*
X0142509Y0019628D03*
X0159909Y0024628D03*
X0160109Y0024628D03*
X0160109Y0024828D03*
X0160109Y0025028D03*
X0160109Y0025228D03*
X0160509Y0025228D03*
X0160509Y0025028D03*
X0160509Y0024828D03*
X0160509Y0024628D03*
X0160509Y0024428D03*
X0160309Y0024428D03*
X0160909Y0024428D03*
X0160909Y0024228D03*
X0161309Y0024228D03*
X0161309Y0024028D03*
X0161709Y0024028D03*
X0161709Y0023828D03*
X0161709Y0024228D03*
X0161709Y0024428D03*
X0161709Y0024628D03*
X0161909Y0024628D03*
X0161309Y0024628D03*
X0161309Y0024428D03*
X0161309Y0024828D03*
X0160909Y0024828D03*
X0160909Y0024628D03*
X0160909Y0025028D03*
X0161709Y0032628D03*
X0161709Y0032828D03*
X0161709Y0033028D03*
X0161909Y0033028D03*
X0161709Y0033228D03*
X0161709Y0033428D03*
X0162509Y0037628D03*
X0162509Y0037828D03*
X0161709Y0038428D03*
X0161709Y0038628D03*
X0160109Y0039428D03*
X0159709Y0039228D03*
X0159709Y0039028D03*
X0159709Y0038828D03*
X0156509Y0038228D03*
X0173309Y0039828D03*
X0173509Y0039828D03*
X0173709Y0039828D03*
X0173709Y0040028D03*
X0173709Y0040228D03*
X0173709Y0040428D03*
X0173709Y0040628D03*
X0173909Y0040628D03*
X0174109Y0040628D03*
X0174109Y0040428D03*
X0174109Y0040228D03*
X0174109Y0040028D03*
X0174109Y0039828D03*
X0174309Y0039828D03*
X0174509Y0039828D03*
X0174509Y0040028D03*
X0174509Y0040228D03*
X0174509Y0040428D03*
X0174509Y0040628D03*
X0174709Y0040628D03*
X0174909Y0040628D03*
X0174909Y0040428D03*
X0174909Y0040228D03*
X0174909Y0040028D03*
X0174909Y0039828D03*
X0175109Y0039828D03*
X0175309Y0039828D03*
X0175309Y0040028D03*
X0175309Y0040228D03*
X0175309Y0040428D03*
X0175309Y0040628D03*
X0175509Y0040628D03*
X0175709Y0040628D03*
X0175709Y0040428D03*
X0175709Y0040228D03*
X0175709Y0040028D03*
X0175709Y0039828D03*
X0175509Y0039028D03*
X0175309Y0039028D03*
X0175309Y0038828D03*
X0174909Y0038828D03*
X0174909Y0038628D03*
X0174909Y0038428D03*
X0174509Y0038628D03*
X0174509Y0038828D03*
X0174509Y0039028D03*
X0174509Y0039228D03*
X0174309Y0039228D03*
X0174909Y0039228D03*
X0175109Y0039228D03*
X0174909Y0039028D03*
X0173309Y0040028D03*
X0173309Y0040228D03*
X0173309Y0040428D03*
X0173309Y0040628D03*
X0175709Y0032228D03*
X0175709Y0032028D03*
X0175709Y0031828D03*
X0175709Y0031628D03*
X0175709Y0031428D03*
X0175709Y0031228D03*
X0175709Y0031028D03*
X0175709Y0030628D03*
X0175709Y0030428D03*
X0175709Y0030228D03*
X0175709Y0030028D03*
X0174909Y0030828D03*
X0174109Y0030628D03*
X0174109Y0030428D03*
X0174109Y0030228D03*
X0174109Y0030028D03*
X0173709Y0030028D03*
X0173709Y0030228D03*
X0173709Y0030428D03*
X0173709Y0030628D03*
X0173309Y0030628D03*
X0173309Y0030428D03*
X0173309Y0030228D03*
X0173309Y0030028D03*
X0169909Y0019428D03*
X0169709Y0019428D03*
X0169709Y0019228D03*
X0169709Y0019028D03*
X0169709Y0018828D03*
X0169709Y0018628D03*
X0169509Y0018628D03*
X0169309Y0018628D03*
X0169309Y0018828D03*
X0169309Y0019028D03*
X0169309Y0019228D03*
X0169309Y0019428D03*
X0169109Y0019428D03*
X0168909Y0019428D03*
X0168909Y0019228D03*
X0168909Y0019028D03*
X0168909Y0018828D03*
X0168909Y0018628D03*
X0168709Y0018628D03*
X0168509Y0018628D03*
X0168509Y0018828D03*
X0168509Y0019028D03*
X0168509Y0019228D03*
X0168509Y0019428D03*
X0168309Y0019428D03*
X0168109Y0019428D03*
X0168109Y0019228D03*
X0168109Y0019028D03*
X0168109Y0018828D03*
X0168109Y0018628D03*
X0167909Y0018628D03*
X0167709Y0018628D03*
X0167709Y0018828D03*
X0167709Y0019028D03*
X0167709Y0019228D03*
X0167709Y0019428D03*
X0167509Y0019428D03*
X0167309Y0019428D03*
X0167309Y0019228D03*
X0167309Y0019028D03*
X0167309Y0018828D03*
X0167309Y0018628D03*
X0169309Y0016628D03*
X0172909Y0018428D03*
D16*
X0169609Y0021528D03*
X0175609Y0022428D03*
X0166809Y0028928D03*
X0166409Y0034328D03*
X0166809Y0037728D03*
X0169409Y0037628D03*
X0169609Y0041528D03*
X0166409Y0041528D03*
X0173809Y0037628D03*
X0175609Y0037628D03*
D17*
X0172409Y0037778D03*
X0175609Y0031178D03*
X0169609Y0028978D03*
X0172409Y0022678D03*
X0172409Y0019078D03*
X0172609Y0016278D03*
X0169409Y0015278D03*
X0166609Y0015278D03*
X0166409Y0018178D03*
X0143409Y0033678D03*
X0141809Y0036878D03*
D18*
X0141609Y0036928D03*
X0166409Y0037728D03*
X0166409Y0045028D03*
X0166409Y0025428D03*
X0169609Y0025428D03*
X0175609Y0016128D03*
D19*
X0175509Y0015928D03*
X0175509Y0015528D03*
X0175509Y0015128D03*
X0175109Y0015328D03*
X0174809Y0015328D03*
X0175109Y0015728D03*
X0175109Y0016128D03*
X0175109Y0016528D03*
X0175109Y0016928D03*
X0175109Y0017328D03*
X0175509Y0017128D03*
X0175509Y0016728D03*
X0175509Y0016328D03*
X0174709Y0017128D03*
X0174709Y0017528D03*
X0174309Y0017328D03*
X0174309Y0017728D03*
X0173909Y0017528D03*
X0173909Y0017128D03*
X0173909Y0016728D03*
X0173909Y0016328D03*
X0173909Y0015928D03*
X0173909Y0015528D03*
X0173909Y0015128D03*
X0173509Y0014928D03*
X0173509Y0015328D03*
X0173109Y0015128D03*
X0173109Y0015528D03*
X0172709Y0015328D03*
X0172709Y0015728D03*
X0172709Y0016128D03*
X0172709Y0016528D03*
X0172709Y0016928D03*
X0172709Y0017328D03*
X0173109Y0017128D03*
X0173109Y0017528D03*
X0173509Y0017328D03*
X0173509Y0017728D03*
X0172709Y0018528D03*
X0172709Y0018928D03*
X0172709Y0019328D03*
X0172709Y0019728D03*
X0172709Y0020128D03*
X0173109Y0019928D03*
X0173109Y0019528D03*
X0173509Y0019728D03*
X0173509Y0020128D03*
X0173909Y0019928D03*
X0174309Y0019728D03*
X0174309Y0020128D03*
X0174709Y0019928D03*
X0175109Y0019728D03*
X0175109Y0020128D03*
X0175509Y0019928D03*
X0175109Y0021328D03*
X0175109Y0021728D03*
X0175109Y0022128D03*
X0175109Y0022528D03*
X0175109Y0022928D03*
X0175109Y0023328D03*
X0175109Y0023728D03*
X0175509Y0023528D03*
X0175509Y0023128D03*
X0175509Y0022728D03*
X0175509Y0022328D03*
X0175509Y0021928D03*
X0175509Y0021528D03*
X0174709Y0021528D03*
X0174309Y0021328D03*
X0174309Y0021728D03*
X0173909Y0021528D03*
X0173909Y0021928D03*
X0173909Y0022328D03*
X0173909Y0022728D03*
X0173909Y0023128D03*
X0173909Y0023528D03*
X0174309Y0023328D03*
X0174309Y0023728D03*
X0174709Y0023528D03*
X0174709Y0023928D03*
X0174709Y0025128D03*
X0174709Y0025528D03*
X0174709Y0025928D03*
X0174709Y0026328D03*
X0175109Y0026128D03*
X0175109Y0025728D03*
X0175109Y0025328D03*
X0175509Y0025528D03*
X0175509Y0025928D03*
X0174309Y0026128D03*
X0173909Y0026328D03*
X0173509Y0026528D03*
X0173509Y0026928D03*
X0173509Y0027328D03*
X0173909Y0027528D03*
X0174309Y0027328D03*
X0174309Y0027728D03*
X0174709Y0027528D03*
X0174709Y0027928D03*
X0174709Y0028328D03*
X0175109Y0028128D03*
X0175109Y0027728D03*
X0175509Y0027928D03*
X0175509Y0028328D03*
X0174309Y0028528D03*
X0173909Y0028328D03*
X0173909Y0028728D03*
X0173509Y0028528D03*
X0173509Y0028928D03*
X0173109Y0028728D03*
X0173109Y0029128D03*
X0172709Y0028928D03*
X0172309Y0028728D03*
X0172309Y0029128D03*
X0172709Y0030128D03*
X0172709Y0030528D03*
X0172709Y0030928D03*
X0172709Y0031328D03*
X0172709Y0031728D03*
X0172709Y0032128D03*
X0172709Y0032528D03*
X0173109Y0032328D03*
X0173109Y0032728D03*
X0173509Y0032528D03*
X0173909Y0032328D03*
X0173909Y0032728D03*
X0174309Y0032528D03*
X0174709Y0032328D03*
X0174709Y0032728D03*
X0175109Y0032528D03*
X0175109Y0032128D03*
X0175109Y0031728D03*
X0175109Y0031328D03*
X0175109Y0030928D03*
X0175109Y0030528D03*
X0175109Y0030128D03*
X0175509Y0030328D03*
X0175509Y0030728D03*
X0175509Y0031128D03*
X0175509Y0031528D03*
X0175509Y0031928D03*
X0175509Y0032328D03*
X0174709Y0030728D03*
X0174709Y0030328D03*
X0174309Y0030128D03*
X0174309Y0030528D03*
X0173909Y0030328D03*
X0173509Y0030128D03*
X0173509Y0030528D03*
X0173109Y0030328D03*
X0173109Y0030728D03*
X0172309Y0030728D03*
X0172309Y0030328D03*
X0171909Y0030128D03*
X0171909Y0030528D03*
X0171509Y0030328D03*
X0171109Y0030128D03*
X0171109Y0030528D03*
X0170709Y0030328D03*
X0169509Y0030128D03*
X0169509Y0029728D03*
X0169509Y0029328D03*
X0169509Y0028928D03*
X0169509Y0028528D03*
X0169509Y0028128D03*
X0169509Y0027728D03*
X0169109Y0027528D03*
X0169109Y0027928D03*
X0169109Y0028328D03*
X0168709Y0027728D03*
X0168309Y0027528D03*
X0168309Y0027928D03*
X0168309Y0028328D03*
X0168309Y0028728D03*
X0168309Y0029128D03*
X0167909Y0028928D03*
X0167909Y0028528D03*
X0167909Y0028128D03*
X0167909Y0029328D03*
X0167909Y0029728D03*
X0167509Y0029528D03*
X0167509Y0029928D03*
X0167109Y0029728D03*
X0167109Y0030128D03*
X0166709Y0029928D03*
X0166709Y0029528D03*
X0166709Y0029128D03*
X0166709Y0028728D03*
X0166709Y0028328D03*
X0166709Y0027928D03*
X0166309Y0028128D03*
X0166309Y0028528D03*
X0166309Y0028928D03*
X0166309Y0029328D03*
X0166309Y0029728D03*
X0168809Y0030028D03*
X0169109Y0029928D03*
X0169109Y0029528D03*
X0169109Y0030328D03*
X0169909Y0029128D03*
X0169909Y0028728D03*
X0172309Y0027128D03*
X0172309Y0026728D03*
X0172709Y0026528D03*
X0172709Y0026928D03*
X0172709Y0027328D03*
X0173109Y0027128D03*
X0173109Y0026728D03*
X0173109Y0026328D03*
X0173509Y0025328D03*
X0173509Y0024928D03*
X0173909Y0025128D03*
X0174309Y0025328D03*
X0173109Y0025128D03*
X0173109Y0024728D03*
X0172709Y0024528D03*
X0172709Y0024928D03*
X0172309Y0024728D03*
X0172709Y0023728D03*
X0172709Y0023328D03*
X0172709Y0022928D03*
X0172709Y0022528D03*
X0172709Y0022128D03*
X0172709Y0021728D03*
X0172709Y0021328D03*
X0173109Y0021528D03*
X0173509Y0021328D03*
X0173509Y0021728D03*
X0172309Y0021928D03*
X0172309Y0022328D03*
X0172309Y0022728D03*
X0172309Y0023128D03*
X0172309Y0023528D03*
X0169909Y0022328D03*
X0169909Y0021928D03*
X0169509Y0021728D03*
X0169509Y0021328D03*
X0169509Y0020928D03*
X0169509Y0020528D03*
X0169909Y0020328D03*
X0169909Y0020728D03*
X0169109Y0020728D03*
X0169109Y0020328D03*
X0168709Y0020528D03*
X0168709Y0020928D03*
X0169109Y0021128D03*
X0168309Y0020728D03*
X0168309Y0020328D03*
X0167909Y0020528D03*
X0167909Y0020928D03*
X0167509Y0020728D03*
X0167509Y0020328D03*
X0167109Y0020528D03*
X0167109Y0020928D03*
X0166709Y0020728D03*
X0166709Y0020328D03*
X0166309Y0020528D03*
X0166309Y0020928D03*
X0166309Y0019328D03*
X0166309Y0018928D03*
X0166709Y0018728D03*
X0166709Y0018328D03*
X0166709Y0017928D03*
X0166709Y0017528D03*
X0167009Y0017428D03*
X0166309Y0017328D03*
X0166309Y0017728D03*
X0166309Y0018128D03*
X0167109Y0018528D03*
X0167109Y0018928D03*
X0167109Y0019328D03*
X0167509Y0019128D03*
X0167509Y0018728D03*
X0167909Y0018928D03*
X0167909Y0019328D03*
X0168309Y0019128D03*
X0168309Y0018728D03*
X0168709Y0018928D03*
X0168709Y0019328D03*
X0169109Y0019128D03*
X0169109Y0018728D03*
X0169509Y0018928D03*
X0169509Y0019328D03*
X0169909Y0019128D03*
X0169909Y0018728D03*
X0172309Y0018728D03*
X0172309Y0018328D03*
X0172309Y0017928D03*
X0172309Y0017128D03*
X0172309Y0016728D03*
X0172309Y0016328D03*
X0172309Y0015928D03*
X0172309Y0015528D03*
X0169909Y0015528D03*
X0169909Y0015128D03*
X0169509Y0014928D03*
X0169509Y0014528D03*
X0169109Y0014328D03*
X0169109Y0014728D03*
X0169509Y0015328D03*
X0169509Y0015728D03*
X0169509Y0016128D03*
X0169109Y0015928D03*
X0169109Y0016328D03*
X0168709Y0016128D03*
X0168709Y0016528D03*
X0168309Y0016328D03*
X0168309Y0016728D03*
X0167909Y0016528D03*
X0167509Y0016328D03*
X0167509Y0016728D03*
X0167109Y0016528D03*
X0167109Y0016128D03*
X0166709Y0015928D03*
X0166709Y0015528D03*
X0166709Y0015128D03*
X0166709Y0014728D03*
X0166709Y0014328D03*
X0167109Y0014528D03*
X0166309Y0014528D03*
X0166309Y0014928D03*
X0166309Y0015328D03*
X0166309Y0015728D03*
X0166309Y0016128D03*
X0166709Y0016328D03*
X0166709Y0019128D03*
X0167109Y0022528D03*
X0167109Y0022928D03*
X0167509Y0022728D03*
X0167509Y0023128D03*
X0167909Y0022928D03*
X0167909Y0022528D03*
X0168309Y0022728D03*
X0168309Y0023128D03*
X0168709Y0022928D03*
X0168709Y0022528D03*
X0169109Y0022328D03*
X0169109Y0022728D03*
X0169509Y0022528D03*
X0169509Y0022128D03*
X0168709Y0024128D03*
X0168709Y0024528D03*
X0169109Y0024328D03*
X0169109Y0024728D03*
X0169109Y0025128D03*
X0169509Y0024928D03*
X0169509Y0024528D03*
X0169909Y0025128D03*
X0169909Y0025528D03*
X0169509Y0025328D03*
X0169509Y0025728D03*
X0169509Y0026128D03*
X0169109Y0025928D03*
X0169109Y0026328D03*
X0169109Y0026728D03*
X0168709Y0026528D03*
X0168309Y0026328D03*
X0168309Y0026728D03*
X0167909Y0026528D03*
X0167509Y0026328D03*
X0167509Y0026728D03*
X0167109Y0026528D03*
X0167109Y0026128D03*
X0166709Y0025928D03*
X0166709Y0025528D03*
X0166709Y0025128D03*
X0166709Y0024728D03*
X0166709Y0024328D03*
X0167109Y0024128D03*
X0167109Y0024528D03*
X0167509Y0024328D03*
X0167909Y0024128D03*
X0167909Y0024528D03*
X0168309Y0024328D03*
X0168309Y0023928D03*
X0166709Y0023128D03*
X0166709Y0022728D03*
X0166309Y0022528D03*
X0166309Y0022928D03*
X0166309Y0024928D03*
X0166309Y0025328D03*
X0166309Y0025728D03*
X0166309Y0026128D03*
X0166709Y0026328D03*
X0161909Y0024328D03*
X0161509Y0024128D03*
X0161509Y0023728D03*
X0161109Y0023528D03*
X0161109Y0023128D03*
X0161109Y0022728D03*
X0161109Y0022328D03*
X0161509Y0022128D03*
X0161509Y0021728D03*
X0161909Y0021528D03*
X0161909Y0021128D03*
X0162309Y0020928D03*
X0162309Y0020528D03*
X0162309Y0020128D03*
X0162309Y0019728D03*
X0162309Y0019328D03*
X0162709Y0019528D03*
X0162709Y0019928D03*
X0162709Y0020328D03*
X0162709Y0020728D03*
X0163109Y0020128D03*
X0161909Y0019528D03*
X0161909Y0019128D03*
X0161909Y0018728D03*
X0161509Y0018528D03*
X0161509Y0018928D03*
X0161109Y0018728D03*
X0161109Y0018328D03*
X0161109Y0017928D03*
X0160709Y0017728D03*
X0160709Y0018128D03*
X0160309Y0017928D03*
X0160309Y0018328D03*
X0159909Y0018128D03*
X0159909Y0018528D03*
X0159509Y0018328D03*
X0159509Y0018728D03*
X0159109Y0018528D03*
X0159109Y0018928D03*
X0159109Y0019328D03*
X0158709Y0019128D03*
X0158709Y0018728D03*
X0158309Y0019328D03*
X0158309Y0019728D03*
X0158709Y0019528D03*
X0157909Y0019528D03*
X0157909Y0019928D03*
X0157509Y0019728D03*
X0157109Y0019528D03*
X0157109Y0019928D03*
X0156709Y0019728D03*
X0156709Y0019328D03*
X0156309Y0019128D03*
X0156309Y0019528D03*
X0155909Y0019328D03*
X0155909Y0018928D03*
X0155509Y0018728D03*
X0155509Y0019128D03*
X0155109Y0018928D03*
X0155109Y0018528D03*
X0154709Y0018328D03*
X0154709Y0018728D03*
X0154309Y0018528D03*
X0154309Y0018128D03*
X0154309Y0017728D03*
X0154309Y0017328D03*
X0154309Y0016928D03*
X0154309Y0016528D03*
X0154309Y0016128D03*
X0153909Y0015928D03*
X0153909Y0015528D03*
X0153909Y0015128D03*
X0153909Y0014728D03*
X0153509Y0014928D03*
X0153509Y0015328D03*
X0153509Y0015728D03*
X0153109Y0015128D03*
X0153109Y0014728D03*
X0152709Y0014928D03*
X0152709Y0015328D03*
X0152309Y0015128D03*
X0152309Y0014728D03*
X0151909Y0014928D03*
X0151909Y0015328D03*
X0151509Y0015128D03*
X0151509Y0014728D03*
X0151109Y0014928D03*
X0151109Y0015328D03*
X0150709Y0015128D03*
X0150709Y0014728D03*
X0150309Y0014928D03*
X0150309Y0015328D03*
X0150309Y0015728D03*
X0150309Y0016128D03*
X0150309Y0016528D03*
X0150309Y0016928D03*
X0150309Y0017328D03*
X0150309Y0017728D03*
X0150309Y0018128D03*
X0149909Y0017928D03*
X0149909Y0017528D03*
X0149909Y0017128D03*
X0149909Y0016728D03*
X0149909Y0016328D03*
X0149909Y0015928D03*
X0150709Y0015928D03*
X0150709Y0015528D03*
X0150709Y0016328D03*
X0149909Y0018328D03*
X0149909Y0018728D03*
X0149509Y0018528D03*
X0149509Y0018128D03*
X0149109Y0018728D03*
X0149109Y0019128D03*
X0149509Y0018928D03*
X0148709Y0018928D03*
X0148709Y0019328D03*
X0148309Y0019128D03*
X0148309Y0019528D03*
X0147909Y0019328D03*
X0147909Y0019728D03*
X0147509Y0019528D03*
X0147509Y0019928D03*
X0147109Y0019728D03*
X0147109Y0020128D03*
X0146709Y0019928D03*
X0146709Y0019528D03*
X0146309Y0019328D03*
X0146309Y0019728D03*
X0145909Y0019528D03*
X0145909Y0019128D03*
X0145509Y0018928D03*
X0145509Y0019328D03*
X0145109Y0019128D03*
X0145109Y0018728D03*
X0144709Y0018528D03*
X0144709Y0018928D03*
X0144309Y0018328D03*
X0144309Y0017928D03*
X0143909Y0017728D03*
X0143909Y0018128D03*
X0143509Y0017928D03*
X0143509Y0018328D03*
X0143109Y0018128D03*
X0143109Y0018528D03*
X0143109Y0018928D03*
X0142709Y0018728D03*
X0142709Y0018328D03*
X0142309Y0018928D03*
X0142309Y0019328D03*
X0142309Y0019728D03*
X0141909Y0019528D03*
X0141909Y0019128D03*
X0141509Y0019728D03*
X0141509Y0020128D03*
X0141509Y0020528D03*
X0141509Y0020928D03*
X0141909Y0020728D03*
X0141909Y0020328D03*
X0141909Y0019928D03*
X0141109Y0019928D03*
X0141109Y0020328D03*
X0141909Y0021128D03*
X0141909Y0021528D03*
X0142309Y0021328D03*
X0142309Y0020928D03*
X0142709Y0021528D03*
X0142709Y0021928D03*
X0142709Y0022328D03*
X0142709Y0022728D03*
X0143109Y0022528D03*
X0143109Y0022128D03*
X0143509Y0022728D03*
X0143509Y0023128D03*
X0143509Y0023528D03*
X0143509Y0023928D03*
X0143509Y0024328D03*
X0143109Y0024128D03*
X0143109Y0023728D03*
X0143109Y0023328D03*
X0143109Y0022928D03*
X0142309Y0022128D03*
X0142309Y0021728D03*
X0142709Y0024328D03*
X0142709Y0024728D03*
X0142709Y0025128D03*
X0142709Y0025528D03*
X0142709Y0025928D03*
X0142309Y0025728D03*
X0142309Y0025328D03*
X0143109Y0025328D03*
X0143109Y0024928D03*
X0143109Y0024528D03*
X0142309Y0026128D03*
X0142309Y0026528D03*
X0141909Y0026328D03*
X0141509Y0026128D03*
X0141509Y0026528D03*
X0141109Y0026328D03*
X0141109Y0026728D03*
X0140709Y0026528D03*
X0140709Y0026928D03*
X0140309Y0026728D03*
X0140309Y0026328D03*
X0139909Y0026528D03*
X0139909Y0026928D03*
X0139509Y0026728D03*
X0139509Y0027128D03*
X0139109Y0026928D03*
X0138709Y0026728D03*
X0138709Y0027128D03*
X0138709Y0027528D03*
X0138709Y0027928D03*
X0138709Y0028328D03*
X0138709Y0028728D03*
X0138709Y0029128D03*
X0138709Y0029528D03*
X0138709Y0029928D03*
X0138709Y0030328D03*
X0139109Y0030128D03*
X0139109Y0030528D03*
X0139509Y0030328D03*
X0139509Y0030728D03*
X0139909Y0030528D03*
X0139909Y0030128D03*
X0140309Y0030328D03*
X0140309Y0030728D03*
X0140709Y0030528D03*
X0140709Y0030928D03*
X0141109Y0030728D03*
X0141509Y0030528D03*
X0141509Y0030928D03*
X0141909Y0030728D03*
X0141909Y0031128D03*
X0142309Y0030928D03*
X0142309Y0031328D03*
X0142309Y0031728D03*
X0142309Y0032128D03*
X0142709Y0031928D03*
X0142709Y0031528D03*
X0142709Y0031128D03*
X0143109Y0032128D03*
X0143109Y0032528D03*
X0143109Y0032928D03*
X0143109Y0033328D03*
X0143109Y0033728D03*
X0143109Y0034128D03*
X0143109Y0034528D03*
X0143109Y0034928D03*
X0142709Y0034728D03*
X0142709Y0035128D03*
X0142709Y0035528D03*
X0142309Y0035328D03*
X0142309Y0035728D03*
X0142309Y0036128D03*
X0141909Y0035928D03*
X0141909Y0036328D03*
X0141909Y0036728D03*
X0141909Y0037128D03*
X0141909Y0037528D03*
X0141909Y0037928D03*
X0142309Y0037728D03*
X0142309Y0038128D03*
X0142309Y0038528D03*
X0142709Y0038328D03*
X0142709Y0037928D03*
X0143109Y0038528D03*
X0143109Y0038928D03*
X0143109Y0039328D03*
X0143509Y0039128D03*
X0143509Y0038728D03*
X0143909Y0038928D03*
X0143909Y0039328D03*
X0144309Y0039128D03*
X0144309Y0038728D03*
X0144709Y0038528D03*
X0144709Y0038928D03*
X0145109Y0038728D03*
X0145109Y0038328D03*
X0145109Y0037928D03*
X0145509Y0037728D03*
X0145509Y0038128D03*
X0145909Y0037928D03*
X0145909Y0037528D03*
X0146309Y0037328D03*
X0146309Y0037728D03*
X0146709Y0037528D03*
X0146709Y0037128D03*
X0147109Y0037328D03*
X0147109Y0037728D03*
X0147509Y0037528D03*
X0147509Y0037928D03*
X0147909Y0037728D03*
X0147909Y0038128D03*
X0148309Y0037928D03*
X0148309Y0037528D03*
X0148709Y0037728D03*
X0148709Y0038128D03*
X0149109Y0037928D03*
X0149109Y0038328D03*
X0149509Y0038128D03*
X0149509Y0038528D03*
X0149509Y0038928D03*
X0149909Y0038728D03*
X0149909Y0038328D03*
X0150309Y0038928D03*
X0150309Y0039328D03*
X0150309Y0039728D03*
X0150309Y0040128D03*
X0150309Y0040528D03*
X0150309Y0040928D03*
X0150309Y0041328D03*
X0150309Y0041728D03*
X0150309Y0042128D03*
X0150709Y0041928D03*
X0150709Y0041528D03*
X0150709Y0041128D03*
X0150709Y0040728D03*
X0149909Y0040728D03*
X0149909Y0040328D03*
X0149909Y0039928D03*
X0149909Y0039528D03*
X0149909Y0039128D03*
X0149909Y0041128D03*
X0150709Y0042328D03*
X0151109Y0042128D03*
X0151509Y0041928D03*
X0151509Y0042328D03*
X0151909Y0042128D03*
X0152309Y0041928D03*
X0152309Y0042328D03*
X0152709Y0042128D03*
X0153109Y0041928D03*
X0153109Y0042328D03*
X0153509Y0042128D03*
X0153509Y0041728D03*
X0153509Y0041328D03*
X0153909Y0041128D03*
X0153909Y0040728D03*
X0153909Y0040328D03*
X0153909Y0039928D03*
X0153909Y0039528D03*
X0154309Y0039328D03*
X0154309Y0038928D03*
X0154309Y0038528D03*
X0154709Y0038328D03*
X0154709Y0038728D03*
X0155109Y0038528D03*
X0155109Y0038128D03*
X0155509Y0037928D03*
X0155509Y0038328D03*
X0155909Y0038128D03*
X0155909Y0037728D03*
X0156309Y0037528D03*
X0156309Y0037928D03*
X0156709Y0037728D03*
X0157109Y0037528D03*
X0157509Y0037328D03*
X0157509Y0037728D03*
X0157909Y0037528D03*
X0157909Y0037128D03*
X0158309Y0037328D03*
X0158309Y0037728D03*
X0158309Y0038128D03*
X0158709Y0037928D03*
X0158709Y0038328D03*
X0159109Y0038128D03*
X0159109Y0038528D03*
X0159509Y0038328D03*
X0159509Y0038728D03*
X0159909Y0038528D03*
X0159909Y0038928D03*
X0159909Y0039328D03*
X0160309Y0039128D03*
X0160309Y0038728D03*
X0160709Y0038928D03*
X0160709Y0039328D03*
X0161109Y0039128D03*
X0161109Y0038728D03*
X0161109Y0038328D03*
X0161509Y0038128D03*
X0161509Y0038528D03*
X0161909Y0038328D03*
X0161909Y0037928D03*
X0161909Y0037528D03*
X0162309Y0037328D03*
X0162309Y0036928D03*
X0162309Y0036528D03*
X0162309Y0036128D03*
X0162309Y0035728D03*
X0161909Y0035528D03*
X0161909Y0035128D03*
X0161509Y0034928D03*
X0161509Y0034528D03*
X0161109Y0034328D03*
X0161109Y0033928D03*
X0161109Y0033528D03*
X0161109Y0033128D03*
X0161109Y0032728D03*
X0161109Y0032328D03*
X0161509Y0032528D03*
X0161509Y0032928D03*
X0161509Y0033328D03*
X0161909Y0032728D03*
X0160709Y0032528D03*
X0160309Y0032328D03*
X0159909Y0032128D03*
X0159909Y0032528D03*
X0159509Y0032328D03*
X0159509Y0031928D03*
X0159109Y0031728D03*
X0159109Y0032128D03*
X0158709Y0031928D03*
X0158709Y0031528D03*
X0158309Y0031328D03*
X0158309Y0031728D03*
X0157909Y0031528D03*
X0157909Y0031128D03*
X0157509Y0030928D03*
X0157509Y0031328D03*
X0157109Y0031128D03*
X0157109Y0030728D03*
X0156709Y0030528D03*
X0156709Y0030928D03*
X0156309Y0030728D03*
X0156309Y0030328D03*
X0155909Y0030528D03*
X0155909Y0030928D03*
X0155909Y0031328D03*
X0155509Y0031128D03*
X0155509Y0030728D03*
X0155109Y0031328D03*
X0155109Y0031728D03*
X0155109Y0032128D03*
X0154709Y0031928D03*
X0154709Y0031528D03*
X0154309Y0032128D03*
X0154309Y0032528D03*
X0154709Y0032328D03*
X0153909Y0032328D03*
X0153909Y0032728D03*
X0153509Y0032528D03*
X0153509Y0032928D03*
X0153109Y0032728D03*
X0152709Y0032528D03*
X0152709Y0032928D03*
X0152309Y0032728D03*
X0152309Y0033128D03*
X0151909Y0032928D03*
X0151509Y0032728D03*
X0151509Y0033128D03*
X0151109Y0032928D03*
X0151109Y0032528D03*
X0150709Y0032328D03*
X0150709Y0032728D03*
X0150309Y0032528D03*
X0150309Y0032128D03*
X0149909Y0031928D03*
X0149909Y0032328D03*
X0149509Y0032128D03*
X0149509Y0031728D03*
X0149109Y0031528D03*
X0149109Y0031128D03*
X0148709Y0030928D03*
X0148709Y0030528D03*
X0148309Y0030328D03*
X0148309Y0029928D03*
X0148309Y0029528D03*
X0147909Y0029328D03*
X0147909Y0028928D03*
X0147909Y0028528D03*
X0147909Y0028128D03*
X0147909Y0027728D03*
X0147909Y0027328D03*
X0147909Y0026928D03*
X0148309Y0026728D03*
X0148309Y0026328D03*
X0148709Y0026128D03*
X0148709Y0025728D03*
X0149109Y0025528D03*
X0149109Y0025128D03*
X0149509Y0024928D03*
X0149509Y0025328D03*
X0149909Y0025128D03*
X0149909Y0024728D03*
X0150309Y0024528D03*
X0150309Y0024928D03*
X0150709Y0024728D03*
X0150709Y0024328D03*
X0151109Y0024128D03*
X0151109Y0024528D03*
X0151509Y0024328D03*
X0151909Y0024128D03*
X0151909Y0024528D03*
X0152309Y0024328D03*
X0152709Y0024128D03*
X0152709Y0024528D03*
X0153109Y0024328D03*
X0153109Y0024728D03*
X0153509Y0024528D03*
X0153509Y0024928D03*
X0153909Y0024728D03*
X0153909Y0024328D03*
X0154309Y0024528D03*
X0154309Y0024928D03*
X0154309Y0025328D03*
X0154709Y0025128D03*
X0154709Y0024728D03*
X0155109Y0025328D03*
X0155109Y0025728D03*
X0155109Y0026128D03*
X0155509Y0025928D03*
X0155509Y0025528D03*
X0155909Y0026128D03*
X0155909Y0026528D03*
X0155909Y0026928D03*
X0156309Y0026728D03*
X0156309Y0026328D03*
X0156709Y0026128D03*
X0156709Y0026528D03*
X0157109Y0026328D03*
X0157109Y0025928D03*
X0157509Y0025728D03*
X0157509Y0026128D03*
X0157909Y0025928D03*
X0157909Y0025528D03*
X0158309Y0025728D03*
X0158709Y0025528D03*
X0159109Y0025328D03*
X0159509Y0025128D03*
X0159509Y0025528D03*
X0159909Y0025328D03*
X0159909Y0024928D03*
X0160309Y0024728D03*
X0160309Y0025128D03*
X0160709Y0024928D03*
X0160709Y0024528D03*
X0161109Y0024328D03*
X0161109Y0023928D03*
X0160709Y0023328D03*
X0160709Y0022928D03*
X0161509Y0022528D03*
X0161909Y0021928D03*
X0162309Y0021328D03*
X0161509Y0024528D03*
X0161109Y0024728D03*
X0155509Y0026328D03*
X0154709Y0025528D03*
X0149109Y0025928D03*
X0148709Y0026528D03*
X0148309Y0027128D03*
X0148309Y0027528D03*
X0147509Y0028328D03*
X0147509Y0028728D03*
X0147909Y0029728D03*
X0147909Y0030128D03*
X0148309Y0030728D03*
X0148309Y0031128D03*
X0148709Y0031328D03*
X0149109Y0031928D03*
X0143509Y0033128D03*
X0143509Y0033528D03*
X0143509Y0033928D03*
X0143509Y0034328D03*
X0142709Y0032728D03*
X0142709Y0032328D03*
X0141509Y0036528D03*
X0141509Y0036928D03*
X0141509Y0037328D03*
X0141509Y0037728D03*
X0141109Y0037128D03*
X0141109Y0036728D03*
X0142709Y0038728D03*
X0143509Y0039528D03*
X0153909Y0041528D03*
X0153909Y0041928D03*
X0153909Y0042328D03*
X0154309Y0040928D03*
X0154309Y0040528D03*
X0154309Y0040128D03*
X0154309Y0039728D03*
X0157909Y0037928D03*
X0160309Y0039528D03*
X0162309Y0037728D03*
X0162709Y0037528D03*
X0162709Y0037128D03*
X0162709Y0036728D03*
X0162709Y0036328D03*
X0163109Y0036928D03*
X0161909Y0035928D03*
X0161509Y0035328D03*
X0161109Y0035128D03*
X0161109Y0034728D03*
X0160709Y0034528D03*
X0160709Y0034128D03*
X0160709Y0033728D03*
X0155509Y0031528D03*
X0166309Y0033328D03*
X0166309Y0033728D03*
X0166309Y0034128D03*
X0166309Y0034528D03*
X0166309Y0034928D03*
X0166309Y0035328D03*
X0166709Y0035128D03*
X0166709Y0034728D03*
X0166709Y0034328D03*
X0166709Y0033928D03*
X0166709Y0033528D03*
X0166709Y0033128D03*
X0167109Y0032928D03*
X0167109Y0033328D03*
X0167509Y0033128D03*
X0167509Y0032728D03*
X0167909Y0032928D03*
X0168309Y0032728D03*
X0168309Y0033128D03*
X0168709Y0032928D03*
X0169109Y0032728D03*
X0169109Y0033128D03*
X0169509Y0032928D03*
X0169909Y0032728D03*
X0169909Y0033128D03*
X0169509Y0034928D03*
X0169509Y0035328D03*
X0169909Y0035128D03*
X0169909Y0035528D03*
X0169109Y0035528D03*
X0169109Y0035128D03*
X0168709Y0034928D03*
X0168709Y0035328D03*
X0168309Y0035128D03*
X0168309Y0035528D03*
X0167909Y0035328D03*
X0167909Y0034928D03*
X0167509Y0035128D03*
X0167509Y0035528D03*
X0167109Y0035328D03*
X0167109Y0034928D03*
X0166709Y0035528D03*
X0167109Y0036528D03*
X0167109Y0036928D03*
X0167509Y0036728D03*
X0167509Y0036328D03*
X0167909Y0036528D03*
X0167909Y0036928D03*
X0167909Y0037328D03*
X0167909Y0037728D03*
X0167909Y0038128D03*
X0167909Y0038528D03*
X0167909Y0038928D03*
X0168309Y0038728D03*
X0168309Y0038328D03*
X0168309Y0037928D03*
X0168309Y0037528D03*
X0168309Y0037128D03*
X0168309Y0036728D03*
X0168309Y0036328D03*
X0169109Y0036728D03*
X0169109Y0037128D03*
X0169509Y0036928D03*
X0169509Y0036528D03*
X0169509Y0037328D03*
X0169509Y0037728D03*
X0169509Y0038128D03*
X0169509Y0038528D03*
X0169109Y0038328D03*
X0169109Y0038728D03*
X0168709Y0038928D03*
X0168309Y0039128D03*
X0168309Y0039928D03*
X0168309Y0040328D03*
X0168709Y0040128D03*
X0168709Y0040528D03*
X0169109Y0040328D03*
X0169109Y0040728D03*
X0169509Y0040528D03*
X0169509Y0040928D03*
X0169509Y0041328D03*
X0169509Y0041728D03*
X0169509Y0042128D03*
X0169509Y0042528D03*
X0169909Y0042328D03*
X0169909Y0042728D03*
X0170309Y0042528D03*
X0170309Y0042128D03*
X0170709Y0042328D03*
X0170709Y0042728D03*
X0171109Y0042528D03*
X0171109Y0042128D03*
X0171509Y0042328D03*
X0171509Y0042728D03*
X0171909Y0042528D03*
X0171909Y0042128D03*
X0172309Y0041928D03*
X0172309Y0041528D03*
X0172309Y0041128D03*
X0172309Y0040728D03*
X0172309Y0040328D03*
X0172709Y0040128D03*
X0172709Y0040528D03*
X0172709Y0040928D03*
X0172709Y0041328D03*
X0172709Y0041728D03*
X0172709Y0042128D03*
X0172709Y0042528D03*
X0173109Y0042328D03*
X0173109Y0042728D03*
X0173509Y0042528D03*
X0173509Y0042128D03*
X0173909Y0042328D03*
X0173909Y0042728D03*
X0174309Y0042528D03*
X0174309Y0042128D03*
X0174709Y0042328D03*
X0174709Y0042728D03*
X0175109Y0042528D03*
X0175109Y0042128D03*
X0175509Y0042328D03*
X0175509Y0042728D03*
X0175109Y0040528D03*
X0175109Y0040128D03*
X0175509Y0039928D03*
X0175509Y0040328D03*
X0174709Y0040328D03*
X0174709Y0039928D03*
X0174309Y0040128D03*
X0174309Y0040528D03*
X0173909Y0040328D03*
X0173909Y0039928D03*
X0173509Y0040128D03*
X0173509Y0040528D03*
X0173109Y0040328D03*
X0173109Y0039928D03*
X0173909Y0038728D03*
X0173909Y0038328D03*
X0173909Y0037928D03*
X0173909Y0037528D03*
X0173909Y0037128D03*
X0173909Y0036728D03*
X0174309Y0036528D03*
X0174309Y0036928D03*
X0174709Y0036728D03*
X0175109Y0036528D03*
X0175109Y0036928D03*
X0175109Y0037328D03*
X0175109Y0037728D03*
X0175109Y0038128D03*
X0175109Y0038528D03*
X0175109Y0038928D03*
X0175509Y0038728D03*
X0175509Y0038328D03*
X0175509Y0037928D03*
X0175509Y0037528D03*
X0175509Y0037128D03*
X0175509Y0036728D03*
X0175109Y0035328D03*
X0175109Y0034928D03*
X0175509Y0035128D03*
X0174709Y0035128D03*
X0174309Y0034928D03*
X0174309Y0035328D03*
X0173909Y0035128D03*
X0173509Y0034928D03*
X0173509Y0035328D03*
X0173109Y0035128D03*
X0173109Y0034728D03*
X0172709Y0034528D03*
X0172709Y0034128D03*
X0172709Y0033728D03*
X0172709Y0033328D03*
X0172309Y0033128D03*
X0172309Y0033528D03*
X0172309Y0033928D03*
X0172309Y0034328D03*
X0172309Y0034728D03*
X0172309Y0035128D03*
X0172709Y0034928D03*
X0172709Y0035328D03*
X0172709Y0036528D03*
X0172709Y0036928D03*
X0172709Y0037328D03*
X0172709Y0037728D03*
X0172709Y0038128D03*
X0172709Y0038528D03*
X0172309Y0038328D03*
X0172309Y0037928D03*
X0172309Y0037528D03*
X0172309Y0037128D03*
X0172309Y0036728D03*
X0173109Y0036728D03*
X0173509Y0036528D03*
X0173509Y0036928D03*
X0174309Y0038528D03*
X0174309Y0038928D03*
X0174709Y0038728D03*
X0174709Y0039128D03*
X0172309Y0038728D03*
X0169909Y0037928D03*
X0169909Y0037528D03*
X0169909Y0040728D03*
X0169909Y0041128D03*
X0169109Y0041928D03*
X0169109Y0042328D03*
X0169109Y0042728D03*
X0168709Y0042528D03*
X0168709Y0042128D03*
X0168309Y0042328D03*
X0168309Y0042728D03*
X0167909Y0042528D03*
X0167909Y0042128D03*
X0167509Y0042328D03*
X0167509Y0042728D03*
X0167109Y0042528D03*
X0167109Y0042128D03*
X0166709Y0041928D03*
X0166709Y0041528D03*
X0166709Y0041128D03*
X0166709Y0040728D03*
X0166709Y0040328D03*
X0167109Y0040128D03*
X0167109Y0040528D03*
X0167509Y0040328D03*
X0167509Y0039928D03*
X0167909Y0040128D03*
X0167909Y0040528D03*
X0167509Y0039128D03*
X0167509Y0038728D03*
X0167109Y0038528D03*
X0167109Y0038928D03*
X0166709Y0038728D03*
X0166709Y0038328D03*
X0166709Y0037928D03*
X0166709Y0037528D03*
X0166709Y0037128D03*
X0166709Y0036728D03*
X0166309Y0037328D03*
X0166309Y0037728D03*
X0166309Y0038128D03*
X0166309Y0038528D03*
X0166309Y0040528D03*
X0166309Y0040928D03*
X0166309Y0041328D03*
X0166309Y0041728D03*
X0166309Y0042128D03*
X0166309Y0042528D03*
X0166709Y0042328D03*
X0166709Y0042728D03*
X0167109Y0043728D03*
X0167109Y0044128D03*
X0167509Y0043928D03*
X0167509Y0043528D03*
X0167909Y0043728D03*
X0167909Y0044128D03*
X0168309Y0043928D03*
X0168309Y0043528D03*
X0168709Y0043728D03*
X0168709Y0044128D03*
X0169109Y0043928D03*
X0169109Y0044328D03*
X0169109Y0044728D03*
X0169509Y0044528D03*
X0169509Y0044128D03*
X0169909Y0044728D03*
X0169909Y0045128D03*
X0169509Y0044928D03*
X0169509Y0045328D03*
X0169509Y0045728D03*
X0169109Y0045528D03*
X0169109Y0045928D03*
X0168709Y0046128D03*
X0168309Y0045928D03*
X0167909Y0046128D03*
X0167509Y0045928D03*
X0167109Y0045728D03*
X0167109Y0046128D03*
X0166709Y0045928D03*
X0166709Y0045528D03*
X0166709Y0045128D03*
X0166709Y0044728D03*
X0166709Y0044328D03*
X0166709Y0043928D03*
X0166309Y0044528D03*
X0166309Y0044928D03*
X0166309Y0045328D03*
X0166309Y0045728D03*
X0172309Y0042728D03*
X0172309Y0042328D03*
X0172309Y0032328D03*
X0172309Y0031928D03*
X0172309Y0031528D03*
X0172309Y0031128D03*
X0172309Y0019928D03*
X0172309Y0019528D03*
X0172309Y0019128D03*
X0169109Y0013128D03*
X0169109Y0012728D03*
X0169509Y0012528D03*
X0169509Y0012128D03*
X0169509Y0011728D03*
X0169509Y0011328D03*
X0169509Y0010928D03*
X0169109Y0011128D03*
X0169109Y0011528D03*
X0168309Y0011528D03*
X0168309Y0011128D03*
X0168309Y0010728D03*
X0167909Y0010928D03*
X0167909Y0011328D03*
X0167909Y0011728D03*
X0167909Y0012128D03*
X0167909Y0012528D03*
X0167909Y0012928D03*
X0167909Y0013328D03*
X0168309Y0013128D03*
X0168309Y0012728D03*
X0168309Y0012328D03*
X0168309Y0011928D03*
X0167509Y0011128D03*
X0167509Y0010728D03*
X0167109Y0010928D03*
X0167109Y0011328D03*
X0166709Y0011128D03*
X0166709Y0011528D03*
X0166709Y0011928D03*
X0166709Y0012328D03*
X0166709Y0012728D03*
X0166709Y0013128D03*
X0167109Y0012928D03*
X0167109Y0013328D03*
X0167509Y0013128D03*
X0167509Y0013528D03*
X0168309Y0013528D03*
X0168709Y0013328D03*
X0169509Y0012928D03*
X0169909Y0012328D03*
X0169909Y0011928D03*
X0166309Y0011728D03*
X0166309Y0012128D03*
X0166309Y0012528D03*
X0166309Y0012928D03*
X0153909Y0016328D03*
X0153909Y0016728D03*
X0153909Y0017128D03*
X0153909Y0017528D03*
X0153909Y0017928D03*
X0142709Y0019128D03*
X0138309Y0026928D03*
X0138309Y0027328D03*
X0138309Y0027728D03*
X0138309Y0028128D03*
X0138309Y0028528D03*
X0138309Y0028928D03*
X0138309Y0029328D03*
X0138309Y0029728D03*
X0138309Y0030128D03*
D20*
X0138309Y0030478D03*
X0141109Y0030378D03*
X0141109Y0031078D03*
X0142309Y0030578D03*
X0143109Y0031778D03*
X0143509Y0032778D03*
X0142709Y0033078D03*
X0142709Y0034378D03*
X0142309Y0034978D03*
X0141909Y0035578D03*
X0141509Y0036178D03*
X0142309Y0036478D03*
X0142709Y0035878D03*
X0143109Y0035278D03*
X0143509Y0034678D03*
X0142309Y0037378D03*
X0143109Y0038178D03*
X0144709Y0038178D03*
X0145509Y0038478D03*
X0147109Y0036978D03*
X0147509Y0037178D03*
X0147909Y0037378D03*
X0148309Y0038278D03*
X0148709Y0038478D03*
X0149109Y0038678D03*
X0149509Y0039278D03*
X0150309Y0042478D03*
X0151109Y0042478D03*
X0151909Y0042478D03*
X0152709Y0042478D03*
X0153509Y0042478D03*
X0153909Y0039178D03*
X0156309Y0038278D03*
X0156709Y0038078D03*
X0157109Y0037878D03*
X0156709Y0037378D03*
X0157109Y0037178D03*
X0158709Y0037578D03*
X0159509Y0039078D03*
X0160709Y0039678D03*
X0161509Y0038878D03*
X0162309Y0038078D03*
X0163109Y0037278D03*
X0161909Y0036278D03*
X0161509Y0035678D03*
X0161509Y0033678D03*
X0162009Y0032778D03*
X0160709Y0032878D03*
X0160309Y0032678D03*
X0160709Y0032178D03*
X0160309Y0031978D03*
X0159909Y0031778D03*
X0156309Y0031078D03*
X0155909Y0030178D03*
X0155509Y0031878D03*
X0154309Y0031778D03*
X0153109Y0032378D03*
X0153109Y0033078D03*
X0151909Y0032578D03*
X0149909Y0032678D03*
X0148709Y0031678D03*
X0147909Y0030478D03*
X0148309Y0027878D03*
X0148309Y0025978D03*
X0149509Y0025678D03*
X0151509Y0024678D03*
X0152309Y0024678D03*
X0152309Y0023978D03*
X0153509Y0024178D03*
X0153909Y0025078D03*
X0155109Y0024978D03*
X0155909Y0025778D03*
X0155509Y0026678D03*
X0158309Y0026078D03*
X0158709Y0025878D03*
X0159109Y0025678D03*
X0158709Y0025178D03*
X0159109Y0024978D03*
X0158309Y0025378D03*
X0162009Y0024378D03*
X0166309Y0024578D03*
X0167509Y0023978D03*
X0169109Y0023078D03*
X0169509Y0022878D03*
X0169109Y0021978D03*
X0169109Y0021478D03*
X0169909Y0021578D03*
X0172309Y0021578D03*
X0173109Y0021878D03*
X0173109Y0021178D03*
X0173909Y0021178D03*
X0174709Y0021178D03*
X0174709Y0021878D03*
X0175509Y0021178D03*
X0175509Y0020278D03*
X0174709Y0020278D03*
X0173909Y0020278D03*
X0173109Y0020278D03*
X0172309Y0020278D03*
X0172709Y0018178D03*
X0172709Y0014978D03*
X0173109Y0014778D03*
X0173909Y0014778D03*
X0175109Y0014978D03*
X0169909Y0011578D03*
X0169509Y0013278D03*
X0169109Y0013478D03*
X0168709Y0013678D03*
X0168709Y0012978D03*
X0167909Y0013678D03*
X0167209Y0014478D03*
X0166709Y0013978D03*
X0168809Y0014478D03*
X0169509Y0014178D03*
X0169109Y0015578D03*
X0169109Y0016678D03*
X0168709Y0016878D03*
X0167909Y0016878D03*
X0166709Y0017178D03*
X0166309Y0016978D03*
X0161509Y0019278D03*
X0160709Y0018478D03*
X0160309Y0017578D03*
X0159509Y0019078D03*
X0158309Y0018978D03*
X0157509Y0019378D03*
X0157509Y0020078D03*
X0154709Y0019078D03*
X0154309Y0018878D03*
X0150309Y0018478D03*
X0147109Y0019378D03*
X0146309Y0020078D03*
X0144309Y0018678D03*
X0143909Y0018478D03*
X0144709Y0018178D03*
X0143509Y0017578D03*
X0141909Y0025978D03*
X0141909Y0026678D03*
X0142709Y0026278D03*
X0139109Y0026578D03*
X0139109Y0027278D03*
X0166709Y0027578D03*
X0167109Y0028078D03*
X0167909Y0027778D03*
X0168709Y0028078D03*
X0168709Y0027378D03*
X0168709Y0026878D03*
X0168709Y0026178D03*
X0169509Y0026478D03*
X0169909Y0025878D03*
X0167909Y0026878D03*
X0166709Y0026678D03*
X0168309Y0029478D03*
X0167909Y0030078D03*
X0167509Y0030278D03*
X0169909Y0029478D03*
X0170709Y0029978D03*
X0170709Y0030678D03*
X0171509Y0030678D03*
X0171509Y0029978D03*
X0172309Y0029978D03*
X0173109Y0029978D03*
X0173909Y0029978D03*
X0173909Y0030678D03*
X0174709Y0029978D03*
X0175509Y0029978D03*
X0174709Y0028678D03*
X0175109Y0028478D03*
X0174309Y0028178D03*
X0173909Y0027178D03*
X0174309Y0026478D03*
X0173509Y0026178D03*
X0173909Y0025478D03*
X0174309Y0024978D03*
X0174309Y0024078D03*
X0173909Y0023878D03*
X0173009Y0023378D03*
X0172309Y0024378D03*
X0172309Y0025078D03*
X0173109Y0027478D03*
X0172709Y0028578D03*
X0172709Y0029278D03*
X0169909Y0028378D03*
X0175509Y0027578D03*
X0175109Y0024078D03*
X0175509Y0023878D03*
X0174309Y0032178D03*
X0174309Y0032878D03*
X0173509Y0032878D03*
X0173509Y0032178D03*
X0173909Y0034778D03*
X0174709Y0034778D03*
X0175509Y0034778D03*
X0175509Y0036378D03*
X0174709Y0036378D03*
X0173909Y0036378D03*
X0173109Y0036378D03*
X0173009Y0038578D03*
X0172709Y0038878D03*
X0173109Y0040678D03*
X0173109Y0041978D03*
X0169909Y0041478D03*
X0169109Y0041578D03*
X0169109Y0041078D03*
X0169509Y0040178D03*
X0169109Y0039978D03*
X0169109Y0039078D03*
X0168709Y0038578D03*
X0167909Y0039278D03*
X0166309Y0036978D03*
X0169909Y0037178D03*
X0169509Y0033278D03*
X0168709Y0033278D03*
X0167909Y0033278D03*
X0166709Y0032778D03*
X0166309Y0044178D03*
X0168709Y0045778D03*
X0169109Y0045178D03*
X0169909Y0045478D03*
X0169509Y0046078D03*
X0166309Y0011378D03*
D21*
X0166809Y0015328D03*
X0169209Y0015328D03*
X0169409Y0021628D03*
X0175409Y0022528D03*
X0172609Y0031328D03*
X0166609Y0034228D03*
X0161009Y0033628D03*
X0166609Y0041428D03*
X0169409Y0041428D03*
X0172609Y0041428D03*
X0174009Y0037728D03*
X0175409Y0037728D03*
X0149809Y0039528D03*
X0149809Y0017728D03*
D22*
X0166809Y0012178D03*
X0169209Y0012178D03*
X0169409Y0012078D03*
X0175209Y0016178D03*
X0173809Y0022478D03*
X0172609Y0022678D03*
X0169209Y0025378D03*
X0166809Y0025378D03*
X0166609Y0028778D03*
X0172409Y0031278D03*
X0175409Y0031278D03*
X0172609Y0037778D03*
X0169209Y0037778D03*
X0172409Y0041478D03*
X0169209Y0044978D03*
X0166809Y0044978D03*
D23*
X0166609Y0045028D03*
X0169409Y0045028D03*
X0172409Y0034228D03*
X0167809Y0029028D03*
X0168009Y0028828D03*
X0168209Y0028628D03*
X0166409Y0028828D03*
X0166609Y0025428D03*
X0169409Y0025428D03*
X0166609Y0018228D03*
X0175409Y0016128D03*
X0150609Y0015828D03*
X0141809Y0020328D03*
X0143409Y0023528D03*
X0142809Y0025028D03*
X0142809Y0032228D03*
X0150609Y0041328D03*
X0154409Y0039428D03*
D24*
X0153809Y0041078D03*
X0166809Y0041378D03*
X0169209Y0041378D03*
X0172809Y0041378D03*
X0174209Y0037778D03*
X0175209Y0037778D03*
X0175209Y0031378D03*
X0172809Y0031378D03*
X0169409Y0028978D03*
X0166809Y0034178D03*
X0161009Y0023578D03*
X0169209Y0021678D03*
X0174009Y0022578D03*
X0153809Y0016078D03*
X0142009Y0020378D03*
D25*
X0144609Y0018528D03*
X0145209Y0018928D03*
X0149409Y0018728D03*
X0149809Y0025028D03*
X0149409Y0025328D03*
X0149209Y0025528D03*
X0154409Y0025028D03*
X0154609Y0025128D03*
X0158009Y0019628D03*
X0158209Y0019528D03*
X0158409Y0019328D03*
X0158609Y0019228D03*
X0159009Y0018928D03*
X0159209Y0018828D03*
X0159609Y0018528D03*
X0159809Y0018428D03*
X0160209Y0018128D03*
X0160609Y0017928D03*
X0167009Y0013128D03*
X0167009Y0011228D03*
X0169009Y0013128D03*
X0173009Y0019828D03*
X0172809Y0021728D03*
X0175009Y0021628D03*
X0175209Y0028028D03*
X0174809Y0030428D03*
X0173009Y0030428D03*
X0173009Y0032428D03*
X0175009Y0036828D03*
X0172009Y0037828D03*
X0173009Y0040328D03*
X0173009Y0042328D03*
X0169009Y0044028D03*
X0169009Y0045928D03*
X0167009Y0045928D03*
X0167009Y0040428D03*
X0167009Y0036828D03*
X0160609Y0039228D03*
X0160409Y0039228D03*
X0160009Y0038928D03*
X0159809Y0038828D03*
X0159409Y0038528D03*
X0159009Y0038228D03*
X0158809Y0038128D03*
X0158409Y0037828D03*
X0158209Y0037728D03*
X0158009Y0037628D03*
X0154409Y0032228D03*
X0154209Y0032328D03*
X0154009Y0032428D03*
X0149609Y0032028D03*
X0149409Y0031828D03*
X0149409Y0038428D03*
X0146009Y0037728D03*
X0145409Y0038128D03*
X0143809Y0039228D03*
X0141209Y0037028D03*
X0142009Y0030928D03*
X0142009Y0026228D03*
X0167009Y0026328D03*
X0169009Y0026328D03*
X0169009Y0024428D03*
D26*
X0174209Y0022628D03*
X0175209Y0022628D03*
X0161209Y0033828D03*
X0142009Y0036828D03*
D27*
X0148809Y0031228D03*
X0149009Y0025728D03*
X0155009Y0025428D03*
X0156009Y0030728D03*
X0155209Y0031528D03*
X0155009Y0031728D03*
X0161609Y0033028D03*
X0173009Y0026928D03*
X0175009Y0028028D03*
X0175009Y0025728D03*
X0175009Y0030528D03*
X0175009Y0032228D03*
X0166209Y0017728D03*
X0143409Y0018128D03*
X0143209Y0018328D03*
X0143009Y0018528D03*
X0142809Y0018728D03*
X0142609Y0018928D03*
X0142409Y0019128D03*
X0142209Y0019328D03*
D28*
X0148809Y0025978D03*
X0155209Y0025678D03*
X0160809Y0023078D03*
X0161809Y0021678D03*
X0162009Y0021378D03*
X0162209Y0021078D03*
X0162809Y0020178D03*
X0169809Y0021978D03*
X0174809Y0025778D03*
X0173209Y0026878D03*
X0174809Y0027978D03*
X0168409Y0028078D03*
X0166209Y0033878D03*
X0166209Y0037778D03*
X0166209Y0041078D03*
X0169809Y0041078D03*
X0162809Y0036978D03*
X0161409Y0034978D03*
X0160809Y0034078D03*
X0150809Y0041878D03*
X0143409Y0039078D03*
X0143209Y0038878D03*
X0143009Y0038678D03*
X0142809Y0038478D03*
X0142609Y0038278D03*
X0142409Y0038078D03*
X0142209Y0037878D03*
D29*
X0142209Y0031228D03*
X0148609Y0030928D03*
X0148609Y0026228D03*
X0141409Y0020228D03*
X0150809Y0015328D03*
X0154609Y0018328D03*
X0161409Y0022228D03*
X0161609Y0021928D03*
X0166209Y0025428D03*
X0174609Y0025728D03*
X0174609Y0028028D03*
X0162209Y0036128D03*
X0162009Y0035828D03*
X0161809Y0035528D03*
X0161609Y0035228D03*
X0155809Y0030828D03*
X0155409Y0031328D03*
X0155809Y0026328D03*
X0155409Y0025928D03*
X0154609Y0038828D03*
X0166209Y0045028D03*
X0166209Y0012228D03*
D30*
X0169809Y0012128D03*
X0161409Y0024028D03*
X0174409Y0025728D03*
X0169809Y0037628D03*
X0142809Y0035028D03*
X0142609Y0035328D03*
X0142209Y0035828D03*
X0142809Y0022228D03*
X0142609Y0021928D03*
X0142409Y0021628D03*
X0142209Y0021328D03*
D31*
X0161809Y0024328D03*
X0173609Y0026428D03*
X0173609Y0027328D03*
X0174209Y0027528D03*
X0172809Y0038528D03*
X0169009Y0014528D03*
D32*
X0168209Y0012178D03*
X0168009Y0012178D03*
X0167809Y0012178D03*
X0173609Y0016278D03*
X0173809Y0016278D03*
X0174009Y0016278D03*
X0174209Y0016278D03*
X0169209Y0028978D03*
X0161209Y0023378D03*
X0167809Y0037778D03*
X0168009Y0037778D03*
X0168209Y0037778D03*
D33*
X0169609Y0037628D03*
X0173609Y0037428D03*
X0166809Y0018328D03*
X0172409Y0016228D03*
X0142609Y0031828D03*
D34*
X0154409Y0017778D03*
X0162409Y0020278D03*
X0166609Y0012178D03*
X0169609Y0012078D03*
X0172609Y0019178D03*
X0173609Y0022278D03*
X0172609Y0034278D03*
X0166609Y0037778D03*
X0162409Y0036878D03*
D35*
X0161409Y0033178D03*
X0155609Y0031078D03*
X0155609Y0026178D03*
X0166209Y0015278D03*
X0169809Y0015278D03*
X0172209Y0018578D03*
X0169809Y0025378D03*
X0173409Y0026878D03*
X0172209Y0031678D03*
X0172209Y0033778D03*
X0172209Y0041078D03*
X0169809Y0044978D03*
X0142409Y0035578D03*
X0141409Y0036978D03*
X0142209Y0025978D03*
D36*
X0142609Y0025378D03*
X0147609Y0028578D03*
X0166409Y0015278D03*
X0169609Y0015278D03*
X0172809Y0019278D03*
X0172209Y0022678D03*
X0172809Y0034378D03*
X0172209Y0037778D03*
X0169609Y0044978D03*
D37*
X0166209Y0028878D03*
X0172209Y0016278D03*
X0148409Y0026678D03*
X0143609Y0023378D03*
X0148409Y0030578D03*
X0143609Y0033778D03*
D38*
X0141009Y0037078D03*
X0167009Y0027978D03*
X0172009Y0026878D03*
X0169009Y0036878D03*
X0169009Y0011278D03*
D39*
X0162609Y0020228D03*
X0169809Y0028928D03*
X0162609Y0036928D03*
X0153609Y0041628D03*
X0149609Y0038928D03*
X0142409Y0031528D03*
D40*
X0142409Y0025678D03*
X0141609Y0020278D03*
X0149609Y0018278D03*
X0153609Y0015578D03*
X0166409Y0012178D03*
X0167609Y0029378D03*
D41*
X0163209Y0037078D03*
X0160609Y0023078D03*
D42*
X0163209Y0020128D03*
X0160609Y0034128D03*
X0141009Y0020128D03*
D43*
X0143209Y0023628D03*
X0154209Y0040028D03*
D44*
X0143209Y0033578D03*
X0154209Y0017178D03*
D45*
X0150009Y0017078D03*
X0154009Y0040578D03*
D46*
X0150009Y0040128D03*
X0138209Y0028628D03*
X0154009Y0016628D03*
D47*
X0150409Y0016378D03*
X0150409Y0040778D03*
D48*
X0150209Y0040478D03*
X0143009Y0033478D03*
X0138809Y0028578D03*
D49*
X0138609Y0028628D03*
X0143009Y0023728D03*
X0150209Y0016728D03*
D50*
X0148209Y0028628D03*
D51*
X0148009Y0028578D03*
D52*
X0147809Y0028628D03*
D53*
X0139009Y0028628D03*
D54*
X0138409Y0028578D03*
D55*
X0097309Y0035820D02*
X0097309Y0037321D01*
X0096808Y0036821D01*
X0096308Y0037321D01*
X0096308Y0035820D01*
X0095836Y0035820D02*
X0095335Y0035820D01*
X0095585Y0035820D02*
X0095585Y0037321D01*
X0095335Y0037321D02*
X0095836Y0037321D01*
X0094853Y0037071D02*
X0094853Y0036070D01*
X0094603Y0035820D01*
X0094103Y0035820D01*
X0093853Y0036070D01*
X0093380Y0035820D02*
X0092630Y0035820D01*
X0092379Y0036070D01*
X0092379Y0036320D01*
X0092630Y0036571D01*
X0093380Y0036571D01*
X0093853Y0037071D02*
X0094103Y0037321D01*
X0094603Y0037321D01*
X0094853Y0037071D01*
X0093380Y0037321D02*
X0092630Y0037321D01*
X0092379Y0037071D01*
X0092379Y0036821D01*
X0092630Y0036571D01*
X0091907Y0037321D02*
X0091406Y0037321D01*
X0091657Y0037321D02*
X0091657Y0035820D01*
X0091907Y0035820D02*
X0091406Y0035820D01*
X0090925Y0035820D02*
X0090925Y0036821D01*
X0090424Y0037321D01*
X0089924Y0036821D01*
X0089924Y0035820D01*
X0089451Y0036070D02*
X0089201Y0035820D01*
X0088701Y0035820D01*
X0088451Y0036070D01*
X0088451Y0036320D01*
X0088701Y0036571D01*
X0089201Y0036571D01*
X0089451Y0036821D01*
X0089451Y0037071D01*
X0089201Y0037321D01*
X0088701Y0037321D01*
X0088451Y0037071D01*
X0089924Y0036571D02*
X0090925Y0036571D01*
X0093380Y0035820D02*
X0093380Y0037321D01*
D56*
X0182747Y0043153D02*
X0183715Y0042185D01*
X0184682Y0043153D01*
X0184682Y0045088D01*
X0185694Y0045088D02*
X0187629Y0045088D01*
X0187629Y0043637D01*
X0186661Y0044120D01*
X0186177Y0044120D01*
X0185694Y0043637D01*
X0185694Y0042669D01*
X0186177Y0042185D01*
X0187145Y0042185D01*
X0187629Y0042669D01*
X0188640Y0043637D02*
X0190575Y0043637D01*
X0189608Y0044604D02*
X0189608Y0042669D01*
X0182747Y0043153D02*
X0182747Y0045088D01*
X0182936Y0020777D02*
X0184387Y0020777D01*
X0184387Y0017874D01*
X0182936Y0017874D01*
X0182452Y0018358D01*
X0182452Y0020293D01*
X0182936Y0020777D01*
X0185398Y0020777D02*
X0185398Y0017874D01*
X0187333Y0020777D01*
X0187333Y0017874D01*
X0188345Y0018358D02*
X0188345Y0019326D01*
X0189312Y0019326D01*
X0188345Y0020293D02*
X0188829Y0020777D01*
X0189796Y0020777D01*
X0190280Y0020293D01*
X0190280Y0018358D01*
X0189796Y0017874D01*
X0188829Y0017874D01*
X0188345Y0018358D01*
D57*
X0109131Y0028059D02*
X0109131Y0034358D01*
X0109117Y0034417D01*
X0109100Y0034475D01*
X0109079Y0034532D01*
X0109055Y0034588D01*
X0109027Y0034642D01*
X0108997Y0034694D01*
X0108963Y0034745D01*
X0108926Y0034793D01*
X0108887Y0034839D01*
X0108844Y0034882D01*
X0108800Y0034923D01*
X0108752Y0034961D01*
X0108703Y0034996D01*
X0108651Y0035028D01*
X0108598Y0035057D01*
X0108543Y0035083D01*
X0108487Y0035105D01*
X0108429Y0035124D01*
X0108370Y0035140D01*
X0108311Y0035151D01*
X0108251Y0035160D01*
X0108190Y0035164D01*
X0108130Y0035165D01*
X0108069Y0035162D01*
X0108009Y0035156D01*
X0107949Y0035146D01*
X0102438Y0035146D02*
X0102376Y0035156D01*
X0102313Y0035162D01*
X0102250Y0035165D01*
X0102187Y0035164D01*
X0102124Y0035158D01*
X0102062Y0035149D01*
X0102000Y0035136D01*
X0101939Y0035119D01*
X0101880Y0035098D01*
X0101822Y0035073D01*
X0101765Y0035045D01*
X0101711Y0035013D01*
X0101658Y0034978D01*
X0101608Y0034940D01*
X0101560Y0034899D01*
X0101515Y0034855D01*
X0101473Y0034808D01*
X0101434Y0034758D01*
X0101398Y0034706D01*
X0101366Y0034652D01*
X0101336Y0034597D01*
X0101311Y0034539D01*
X0101289Y0034480D01*
X0101271Y0034419D01*
X0101256Y0034358D01*
X0101257Y0034358D02*
X0101257Y0028059D01*
X0100764Y0028059D02*
X0100764Y0034358D01*
X0100765Y0034358D02*
X0100751Y0034417D01*
X0100734Y0034475D01*
X0100713Y0034532D01*
X0100689Y0034588D01*
X0100661Y0034642D01*
X0100631Y0034694D01*
X0100597Y0034745D01*
X0100560Y0034793D01*
X0100521Y0034839D01*
X0100478Y0034882D01*
X0100434Y0034923D01*
X0100386Y0034961D01*
X0100337Y0034996D01*
X0100285Y0035028D01*
X0100232Y0035057D01*
X0100177Y0035083D01*
X0100121Y0035105D01*
X0100063Y0035124D01*
X0100004Y0035140D01*
X0099945Y0035151D01*
X0099885Y0035160D01*
X0099824Y0035164D01*
X0099764Y0035165D01*
X0099703Y0035162D01*
X0099643Y0035156D01*
X0099583Y0035146D01*
X0094072Y0035146D02*
X0094010Y0035156D01*
X0093947Y0035162D01*
X0093884Y0035165D01*
X0093821Y0035164D01*
X0093758Y0035158D01*
X0093696Y0035149D01*
X0093634Y0035136D01*
X0093573Y0035119D01*
X0093514Y0035098D01*
X0093456Y0035073D01*
X0093399Y0035045D01*
X0093345Y0035013D01*
X0093292Y0034978D01*
X0093242Y0034940D01*
X0093194Y0034899D01*
X0093149Y0034855D01*
X0093107Y0034808D01*
X0093068Y0034758D01*
X0093032Y0034706D01*
X0093000Y0034652D01*
X0092970Y0034597D01*
X0092945Y0034539D01*
X0092923Y0034480D01*
X0092905Y0034419D01*
X0092890Y0034358D01*
X0092890Y0028059D01*
X0092398Y0028059D02*
X0092398Y0034358D01*
X0092399Y0034358D02*
X0092385Y0034417D01*
X0092368Y0034475D01*
X0092347Y0034532D01*
X0092323Y0034588D01*
X0092295Y0034642D01*
X0092265Y0034694D01*
X0092231Y0034745D01*
X0092194Y0034793D01*
X0092155Y0034839D01*
X0092112Y0034882D01*
X0092068Y0034923D01*
X0092020Y0034961D01*
X0091971Y0034996D01*
X0091919Y0035028D01*
X0091866Y0035057D01*
X0091811Y0035083D01*
X0091755Y0035105D01*
X0091697Y0035124D01*
X0091638Y0035140D01*
X0091579Y0035151D01*
X0091519Y0035160D01*
X0091458Y0035164D01*
X0091398Y0035165D01*
X0091337Y0035162D01*
X0091277Y0035156D01*
X0091217Y0035146D01*
X0085706Y0035146D02*
X0085644Y0035156D01*
X0085581Y0035162D01*
X0085518Y0035165D01*
X0085455Y0035164D01*
X0085392Y0035158D01*
X0085330Y0035149D01*
X0085268Y0035136D01*
X0085207Y0035119D01*
X0085148Y0035098D01*
X0085090Y0035073D01*
X0085033Y0035045D01*
X0084979Y0035013D01*
X0084926Y0034978D01*
X0084876Y0034940D01*
X0084828Y0034899D01*
X0084783Y0034855D01*
X0084741Y0034808D01*
X0084702Y0034758D01*
X0084666Y0034706D01*
X0084634Y0034652D01*
X0084604Y0034597D01*
X0084579Y0034539D01*
X0084557Y0034480D01*
X0084539Y0034419D01*
X0084524Y0034358D01*
X0084524Y0028059D01*
X0083934Y0028059D02*
X0083934Y0034358D01*
X0083920Y0034417D01*
X0083903Y0034475D01*
X0083882Y0034532D01*
X0083858Y0034588D01*
X0083830Y0034642D01*
X0083800Y0034694D01*
X0083766Y0034745D01*
X0083729Y0034793D01*
X0083690Y0034839D01*
X0083647Y0034882D01*
X0083603Y0034923D01*
X0083555Y0034961D01*
X0083506Y0034996D01*
X0083454Y0035028D01*
X0083401Y0035057D01*
X0083346Y0035083D01*
X0083290Y0035105D01*
X0083232Y0035124D01*
X0083173Y0035140D01*
X0083114Y0035151D01*
X0083054Y0035160D01*
X0082993Y0035164D01*
X0082933Y0035165D01*
X0082872Y0035162D01*
X0082812Y0035156D01*
X0082752Y0035146D01*
X0077241Y0035146D02*
X0077179Y0035156D01*
X0077116Y0035162D01*
X0077053Y0035165D01*
X0076990Y0035164D01*
X0076927Y0035158D01*
X0076865Y0035149D01*
X0076803Y0035136D01*
X0076742Y0035119D01*
X0076683Y0035098D01*
X0076625Y0035073D01*
X0076568Y0035045D01*
X0076514Y0035013D01*
X0076461Y0034978D01*
X0076411Y0034940D01*
X0076363Y0034899D01*
X0076318Y0034855D01*
X0076276Y0034808D01*
X0076237Y0034758D01*
X0076201Y0034706D01*
X0076169Y0034652D01*
X0076139Y0034597D01*
X0076114Y0034539D01*
X0076092Y0034480D01*
X0076074Y0034419D01*
X0076059Y0034358D01*
X0076060Y0034358D02*
X0076060Y0028059D01*
X0076059Y0028059D02*
X0076074Y0027998D01*
X0076092Y0027937D01*
X0076114Y0027878D01*
X0076139Y0027820D01*
X0076169Y0027765D01*
X0076201Y0027711D01*
X0076237Y0027659D01*
X0076276Y0027609D01*
X0076318Y0027562D01*
X0076363Y0027518D01*
X0076411Y0027477D01*
X0076461Y0027439D01*
X0076514Y0027404D01*
X0076568Y0027372D01*
X0076625Y0027344D01*
X0076683Y0027319D01*
X0076742Y0027298D01*
X0076803Y0027281D01*
X0076865Y0027268D01*
X0076927Y0027259D01*
X0076990Y0027253D01*
X0077053Y0027252D01*
X0077116Y0027255D01*
X0077179Y0027261D01*
X0077241Y0027271D01*
X0082752Y0027271D02*
X0082812Y0027261D01*
X0082872Y0027255D01*
X0082933Y0027252D01*
X0082993Y0027253D01*
X0083054Y0027257D01*
X0083114Y0027266D01*
X0083173Y0027277D01*
X0083232Y0027293D01*
X0083290Y0027312D01*
X0083346Y0027334D01*
X0083401Y0027360D01*
X0083454Y0027389D01*
X0083506Y0027421D01*
X0083555Y0027456D01*
X0083603Y0027494D01*
X0083647Y0027535D01*
X0083690Y0027578D01*
X0083729Y0027624D01*
X0083766Y0027672D01*
X0083800Y0027723D01*
X0083830Y0027775D01*
X0083858Y0027829D01*
X0083882Y0027885D01*
X0083903Y0027942D01*
X0083920Y0028000D01*
X0083934Y0028059D01*
X0084524Y0028059D02*
X0084539Y0027998D01*
X0084557Y0027937D01*
X0084579Y0027878D01*
X0084604Y0027820D01*
X0084634Y0027765D01*
X0084666Y0027711D01*
X0084702Y0027659D01*
X0084741Y0027609D01*
X0084783Y0027562D01*
X0084828Y0027518D01*
X0084876Y0027477D01*
X0084926Y0027439D01*
X0084979Y0027404D01*
X0085033Y0027372D01*
X0085090Y0027344D01*
X0085148Y0027319D01*
X0085207Y0027298D01*
X0085268Y0027281D01*
X0085330Y0027268D01*
X0085392Y0027259D01*
X0085455Y0027253D01*
X0085518Y0027252D01*
X0085581Y0027255D01*
X0085644Y0027261D01*
X0085706Y0027271D01*
X0091217Y0027271D02*
X0091277Y0027261D01*
X0091337Y0027255D01*
X0091398Y0027252D01*
X0091458Y0027253D01*
X0091519Y0027257D01*
X0091579Y0027266D01*
X0091638Y0027277D01*
X0091697Y0027293D01*
X0091755Y0027312D01*
X0091811Y0027334D01*
X0091866Y0027360D01*
X0091919Y0027389D01*
X0091971Y0027421D01*
X0092020Y0027456D01*
X0092068Y0027494D01*
X0092112Y0027535D01*
X0092155Y0027578D01*
X0092194Y0027624D01*
X0092231Y0027672D01*
X0092265Y0027723D01*
X0092295Y0027775D01*
X0092323Y0027829D01*
X0092347Y0027885D01*
X0092368Y0027942D01*
X0092385Y0028000D01*
X0092399Y0028059D01*
X0092890Y0028059D02*
X0092905Y0027998D01*
X0092923Y0027937D01*
X0092945Y0027878D01*
X0092970Y0027820D01*
X0093000Y0027765D01*
X0093032Y0027711D01*
X0093068Y0027659D01*
X0093107Y0027609D01*
X0093149Y0027562D01*
X0093194Y0027518D01*
X0093242Y0027477D01*
X0093292Y0027439D01*
X0093345Y0027404D01*
X0093399Y0027372D01*
X0093456Y0027344D01*
X0093514Y0027319D01*
X0093573Y0027298D01*
X0093634Y0027281D01*
X0093696Y0027268D01*
X0093758Y0027259D01*
X0093821Y0027253D01*
X0093884Y0027252D01*
X0093947Y0027255D01*
X0094010Y0027261D01*
X0094072Y0027271D01*
X0099583Y0027271D02*
X0099643Y0027261D01*
X0099703Y0027255D01*
X0099764Y0027252D01*
X0099824Y0027253D01*
X0099885Y0027257D01*
X0099945Y0027266D01*
X0100004Y0027277D01*
X0100063Y0027293D01*
X0100121Y0027312D01*
X0100177Y0027334D01*
X0100232Y0027360D01*
X0100285Y0027389D01*
X0100337Y0027421D01*
X0100386Y0027456D01*
X0100434Y0027494D01*
X0100478Y0027535D01*
X0100521Y0027578D01*
X0100560Y0027624D01*
X0100597Y0027672D01*
X0100631Y0027723D01*
X0100661Y0027775D01*
X0100689Y0027829D01*
X0100713Y0027885D01*
X0100734Y0027942D01*
X0100751Y0028000D01*
X0100765Y0028059D01*
X0101256Y0028059D02*
X0101271Y0027998D01*
X0101289Y0027937D01*
X0101311Y0027878D01*
X0101336Y0027820D01*
X0101366Y0027765D01*
X0101398Y0027711D01*
X0101434Y0027659D01*
X0101473Y0027609D01*
X0101515Y0027562D01*
X0101560Y0027518D01*
X0101608Y0027477D01*
X0101658Y0027439D01*
X0101711Y0027404D01*
X0101765Y0027372D01*
X0101822Y0027344D01*
X0101880Y0027319D01*
X0101939Y0027298D01*
X0102000Y0027281D01*
X0102062Y0027268D01*
X0102124Y0027259D01*
X0102187Y0027253D01*
X0102250Y0027252D01*
X0102313Y0027255D01*
X0102376Y0027261D01*
X0102438Y0027271D01*
X0107949Y0027271D02*
X0108009Y0027261D01*
X0108069Y0027255D01*
X0108130Y0027252D01*
X0108190Y0027253D01*
X0108251Y0027257D01*
X0108311Y0027266D01*
X0108370Y0027277D01*
X0108429Y0027293D01*
X0108487Y0027312D01*
X0108543Y0027334D01*
X0108598Y0027360D01*
X0108651Y0027389D01*
X0108703Y0027421D01*
X0108752Y0027456D01*
X0108800Y0027494D01*
X0108844Y0027535D01*
X0108887Y0027578D01*
X0108926Y0027624D01*
X0108963Y0027672D01*
X0108997Y0027723D01*
X0109027Y0027775D01*
X0109055Y0027829D01*
X0109079Y0027885D01*
X0109100Y0027942D01*
X0109117Y0028000D01*
X0109131Y0028059D01*
M02*
