G75*
%MOIN*%
%OFA0B0*%
%FSLAX25Y25*%
%IPPOS*%
%LPD*%
%AMOC8*
5,1,8,0,0,1.08239X$1,22.5*
%
%ADD10C,0.09461*%
%ADD11R,0.05918X0.06706*%
%ADD12R,0.04737X0.22454*%
%ADD13R,0.07099X0.14186*%
%ADD14R,0.01981X0.03674*%
%ADD15R,0.03674X0.01981*%
%ADD16R,0.10643X0.10643*%
%ADD17R,0.03556X0.04343*%
%ADD18R,0.04343X0.03556*%
%ADD19R,0.06706X0.05918*%
%ADD20R,0.06115X0.02375*%
%ADD21R,0.07099X0.09068*%
%ADD22R,0.08280X0.07887*%
%ADD23R,0.08280X0.08280*%
%ADD24R,0.02769X0.01587*%
%ADD25R,0.01587X0.02769*%
%ADD26R,0.03162X0.03162*%
%ADD27R,0.10643X0.05524*%
%ADD28R,0.03800X0.11800*%
%ADD29R,0.02769X0.02572*%
%ADD30R,0.04343X0.04146*%
%ADD31R,0.05524X0.04737*%
%ADD32C,0.04146*%
%ADD33R,0.07887X0.07887*%
%ADD34R,0.02178X0.02178*%
%ADD35R,0.01981X0.04343*%
%ADD36R,0.04343X0.01981*%
%ADD37R,0.04343X0.05524*%
%ADD38R,0.04343X0.03950*%
%ADD39C,0.01380*%
%ADD40R,0.01181X0.02362*%
%ADD41R,0.06693X0.09646*%
%ADD42R,0.02992X0.01378*%
%ADD43R,0.03950X0.01981*%
%ADD44R,0.01981X0.03950*%
%ADD45R,0.17532X0.17532*%
%ADD46R,0.06312X0.05524*%
%ADD47C,0.05906*%
%ADD48C,0.06706*%
%ADD49R,0.10643X0.08477*%
%ADD50C,0.06000*%
%ADD51C,0.06800*%
%ADD52R,0.03950X0.01587*%
%ADD53R,0.01587X0.03950*%
%ADD54C,0.07400*%
%ADD55C,0.08200*%
%ADD56R,0.03950X0.03950*%
%ADD57C,0.02362*%
%ADD58C,0.03839*%
%ADD59C,0.04639*%
%ADD60C,0.03150*%
%ADD61C,0.03950*%
%ADD62C,0.02559*%
%ADD63C,0.02480*%
D10*
X0186296Y0010343D03*
X0186296Y0152075D03*
D11*
X0164150Y0112705D03*
X0157457Y0112705D03*
X0134229Y0113886D03*
X0127536Y0113886D03*
X0159031Y0089036D03*
X0165724Y0089036D03*
X0165597Y0077844D03*
X0158904Y0077844D03*
X0159323Y0049448D03*
X0166015Y0049448D03*
D12*
X0166658Y0022843D03*
X0158784Y0022843D03*
D13*
X0149335Y0029929D03*
X0176106Y0029929D03*
D14*
X0154283Y0055796D03*
X0152315Y0055796D03*
X0150346Y0055796D03*
X0148378Y0055796D03*
X0146409Y0055796D03*
X0146409Y0071269D03*
X0148378Y0071269D03*
X0150346Y0071269D03*
X0152315Y0071269D03*
X0154283Y0071269D03*
D15*
X0158082Y0067469D03*
X0158082Y0065501D03*
X0158082Y0063532D03*
X0158082Y0061564D03*
X0158082Y0059595D03*
X0142610Y0059595D03*
X0142610Y0061564D03*
X0142610Y0063532D03*
X0142610Y0065501D03*
X0142610Y0067469D03*
D16*
X0150346Y0063532D03*
D17*
X0131965Y0053748D03*
X0126847Y0053748D03*
X0123009Y0047547D03*
X0117890Y0047547D03*
X0110016Y0047547D03*
X0104898Y0047547D03*
X0128323Y0095874D03*
X0133442Y0095874D03*
X0133442Y0103059D03*
X0133442Y0107291D03*
X0128323Y0107291D03*
X0128323Y0103059D03*
X0142398Y0124220D03*
X0147516Y0124220D03*
X0178225Y0132488D03*
X0183343Y0132488D03*
X0182457Y0095599D03*
X0182521Y0091215D03*
X0182585Y0086830D03*
X0177467Y0086830D03*
X0177403Y0091215D03*
X0177339Y0095599D03*
D18*
X0147403Y0083946D03*
X0147403Y0078828D03*
X0138658Y0081307D03*
X0138658Y0076189D03*
X0114052Y0076583D03*
X0114052Y0081701D03*
X0100272Y0081799D03*
X0100272Y0076681D03*
X0092201Y0066150D03*
X0087871Y0066150D03*
X0083540Y0066150D03*
X0083540Y0061031D03*
X0087871Y0061031D03*
X0092201Y0061031D03*
X0099879Y0061622D03*
X0104111Y0061622D03*
X0104111Y0056504D03*
X0099879Y0056504D03*
X0099386Y0047744D03*
X0099386Y0042626D03*
X0093678Y0042626D03*
X0093678Y0047744D03*
X0087182Y0047744D03*
X0087182Y0042626D03*
X0080489Y0042626D03*
X0080489Y0047744D03*
X0077831Y0061031D03*
X0077831Y0066150D03*
X0087969Y0084850D03*
X0087969Y0089969D03*
X0089642Y0098236D03*
X0089642Y0103354D03*
X0089642Y0111819D03*
X0089642Y0116937D03*
X0099288Y0116937D03*
X0099288Y0122055D03*
X0120843Y0124220D03*
X0120843Y0119102D03*
X0145922Y0050598D03*
X0150307Y0050598D03*
X0150307Y0045480D03*
X0145922Y0045480D03*
X0127339Y0032094D03*
X0123009Y0032094D03*
X0123009Y0026976D03*
X0127339Y0026976D03*
D19*
X0105194Y0027862D03*
X0105194Y0034555D03*
X0096827Y0034555D03*
X0096827Y0027862D03*
X0088461Y0027862D03*
X0088461Y0034555D03*
X0079997Y0034555D03*
X0079997Y0027862D03*
X0094170Y0075008D03*
X0094170Y0081701D03*
X0083442Y0111130D03*
X0083442Y0117823D03*
X0165851Y0066677D03*
X0165851Y0059984D03*
D20*
X0177738Y0060736D03*
X0177738Y0063295D03*
X0177738Y0065854D03*
X0177738Y0068413D03*
X0177738Y0058177D03*
D21*
X0178230Y0051091D03*
X0178230Y0075500D03*
D22*
X0188269Y0079043D03*
X0188269Y0047547D03*
D23*
X0188269Y0058571D03*
X0188269Y0068020D03*
D24*
X0047221Y0068020D03*
X0047221Y0069594D03*
X0047221Y0071169D03*
X0047221Y0072744D03*
X0047221Y0074319D03*
X0047221Y0075894D03*
X0039446Y0074319D03*
X0039446Y0072744D03*
X0039446Y0071169D03*
X0047221Y0066445D03*
X0047221Y0064870D03*
X0047221Y0063295D03*
X0047221Y0061720D03*
X0047221Y0060146D03*
X0047221Y0058571D03*
X0047221Y0056996D03*
X0024386Y0056996D03*
X0024386Y0058571D03*
X0024386Y0060146D03*
X0024386Y0061720D03*
X0024386Y0063295D03*
X0024386Y0064870D03*
X0024386Y0066445D03*
X0024386Y0068020D03*
X0024386Y0069594D03*
D25*
X0027930Y0069102D03*
X0029505Y0069102D03*
X0031079Y0069102D03*
X0032654Y0069102D03*
X0034229Y0069102D03*
X0035804Y0069102D03*
X0037379Y0069102D03*
X0038953Y0077862D03*
X0040528Y0077862D03*
X0042103Y0077862D03*
X0043678Y0077862D03*
X0045253Y0077862D03*
X0045253Y0055028D03*
X0043678Y0055028D03*
X0042103Y0055028D03*
X0040528Y0055028D03*
X0038953Y0055028D03*
X0037379Y0055028D03*
X0035804Y0055028D03*
X0034229Y0055028D03*
X0032654Y0055028D03*
X0031079Y0055028D03*
X0029505Y0055028D03*
X0027930Y0055028D03*
X0026355Y0055028D03*
D26*
X0031867Y0062508D03*
X0039741Y0062508D03*
X0036493Y0073335D03*
X0036493Y0077272D03*
X0024977Y0077272D03*
X0024977Y0073335D03*
D27*
X0146532Y0095189D03*
X0146532Y0107189D03*
D28*
X0082516Y0134724D03*
X0077516Y0134724D03*
X0072516Y0134724D03*
X0067516Y0134724D03*
X0062516Y0134724D03*
X0062516Y0150724D03*
X0067516Y0150724D03*
X0072516Y0150724D03*
X0077516Y0150724D03*
X0082516Y0150724D03*
D29*
X0188953Y0092921D03*
X0188953Y0089575D03*
D30*
X0190331Y0085835D03*
X0190331Y0096661D03*
D31*
X0176946Y0105618D03*
X0176946Y0115461D03*
X0176946Y0125303D03*
D32*
X0187182Y0121366D03*
X0187182Y0109555D03*
D33*
X0128028Y0078157D03*
D34*
X0123107Y0073236D03*
X0132949Y0073236D03*
X0132949Y0083079D03*
X0123107Y0083079D03*
D35*
X0125075Y0084260D03*
X0127044Y0084260D03*
X0129012Y0084260D03*
X0130981Y0084260D03*
X0130981Y0072055D03*
X0129012Y0072055D03*
X0127044Y0072055D03*
X0125075Y0072055D03*
D36*
X0121926Y0075205D03*
X0121926Y0077173D03*
X0121926Y0079142D03*
X0121926Y0081110D03*
X0134131Y0081110D03*
X0134131Y0079142D03*
X0134131Y0077173D03*
X0134131Y0075205D03*
D37*
X0125863Y0066346D03*
D38*
X0132162Y0067134D03*
X0132162Y0059654D03*
X0125863Y0059654D03*
D39*
X0159367Y0097547D03*
X0159367Y0099516D03*
X0159367Y0101484D03*
X0159367Y0103453D03*
X0159367Y0105421D03*
X0168540Y0105421D03*
X0168540Y0103453D03*
X0168540Y0101484D03*
X0168540Y0099516D03*
X0168540Y0097547D03*
D40*
X0165036Y0095087D03*
X0162871Y0095087D03*
X0162871Y0107882D03*
X0165036Y0107882D03*
D41*
X0163953Y0101484D03*
D42*
X0157871Y0101484D03*
X0157871Y0099516D03*
X0157871Y0097547D03*
X0157871Y0103453D03*
X0157871Y0105421D03*
X0170036Y0105421D03*
X0170036Y0103453D03*
X0170036Y0101484D03*
X0170036Y0099516D03*
X0170036Y0097547D03*
D43*
X0117595Y0098433D03*
X0117595Y0096465D03*
X0117595Y0094496D03*
X0117595Y0092528D03*
X0117595Y0090559D03*
X0117595Y0100402D03*
X0117595Y0102370D03*
X0117595Y0104339D03*
X0117595Y0106307D03*
X0117595Y0108276D03*
X0094760Y0108276D03*
X0094760Y0106307D03*
X0094760Y0104339D03*
X0094760Y0102370D03*
X0094760Y0100402D03*
X0094760Y0098433D03*
X0094760Y0096465D03*
X0094760Y0094496D03*
X0094760Y0092528D03*
X0094760Y0090559D03*
D44*
X0097320Y0088000D03*
X0099288Y0088000D03*
X0101257Y0088000D03*
X0103225Y0088000D03*
X0105194Y0088000D03*
X0107162Y0088000D03*
X0109131Y0088000D03*
X0111099Y0088000D03*
X0113068Y0088000D03*
X0115036Y0088000D03*
X0115036Y0110835D03*
X0113068Y0110835D03*
X0111099Y0110835D03*
X0109131Y0110835D03*
X0107162Y0110835D03*
X0105194Y0110835D03*
X0103225Y0110835D03*
X0101257Y0110835D03*
X0099288Y0110835D03*
X0097320Y0110835D03*
D45*
X0106178Y0099417D03*
D46*
X0106178Y0119102D03*
X0106178Y0125402D03*
X0114052Y0125402D03*
X0114052Y0119102D03*
D47*
X0114524Y0141661D03*
X0124524Y0141661D03*
X0134524Y0141661D03*
X0144524Y0141661D03*
X0154524Y0141661D03*
X0154524Y0151661D03*
X0144524Y0151661D03*
X0134524Y0151661D03*
X0124524Y0151661D03*
X0114524Y0151661D03*
D48*
X0114524Y0151661D03*
X0124524Y0151661D03*
X0134524Y0151661D03*
X0144524Y0151661D03*
X0154524Y0151661D03*
X0154524Y0141661D03*
X0144524Y0141661D03*
X0134524Y0141661D03*
X0124524Y0141661D03*
X0114524Y0141661D03*
D49*
X0115725Y0039476D03*
X0115725Y0027469D03*
X0134623Y0027469D03*
X0134623Y0039476D03*
D50*
X0130292Y0018000D03*
X0120292Y0018000D03*
X0110292Y0018000D03*
X0100292Y0018000D03*
X0090292Y0018000D03*
X0080292Y0018000D03*
X0070331Y0018000D03*
X0060331Y0018000D03*
X0060331Y0028000D03*
X0070331Y0028000D03*
X0070331Y0038000D03*
X0060331Y0038000D03*
X0060331Y0048000D03*
X0070331Y0048000D03*
X0070331Y0058000D03*
X0060331Y0058000D03*
X0060331Y0068000D03*
X0070331Y0068000D03*
X0070331Y0078000D03*
X0060331Y0078000D03*
X0060331Y0088000D03*
X0070331Y0088000D03*
X0070331Y0098000D03*
X0060331Y0098000D03*
X0060331Y0108000D03*
X0070331Y0108000D03*
X0070331Y0118000D03*
X0060331Y0118000D03*
X0060331Y0008000D03*
X0070331Y0008000D03*
X0080292Y0008000D03*
X0090292Y0008000D03*
X0100292Y0008000D03*
X0110292Y0008000D03*
X0120292Y0008000D03*
X0130292Y0008000D03*
D51*
X0130292Y0008000D03*
X0120292Y0008000D03*
X0110292Y0008000D03*
X0100292Y0008000D03*
X0090292Y0008000D03*
X0080292Y0008000D03*
X0070331Y0008000D03*
X0060331Y0008000D03*
X0060331Y0018000D03*
X0070331Y0018000D03*
X0080292Y0018000D03*
X0090292Y0018000D03*
X0100292Y0018000D03*
X0110292Y0018000D03*
X0120292Y0018000D03*
X0130292Y0018000D03*
X0070331Y0028000D03*
X0060331Y0028000D03*
X0060331Y0038000D03*
X0070331Y0038000D03*
X0070331Y0048000D03*
X0060331Y0048000D03*
X0060331Y0058000D03*
X0070331Y0058000D03*
X0070331Y0068000D03*
X0060331Y0068000D03*
X0060331Y0078000D03*
X0070331Y0078000D03*
X0070331Y0088000D03*
X0060331Y0088000D03*
X0060331Y0098000D03*
X0070331Y0098000D03*
X0070331Y0108000D03*
X0060331Y0108000D03*
X0060331Y0118000D03*
X0070331Y0118000D03*
D52*
X0108146Y0062705D03*
X0108146Y0061130D03*
X0108146Y0059555D03*
X0108146Y0057980D03*
X0108146Y0056406D03*
X0108146Y0054831D03*
X0121532Y0054831D03*
X0121532Y0056406D03*
X0121532Y0057980D03*
X0121532Y0059555D03*
X0121532Y0061130D03*
X0121532Y0062705D03*
D53*
X0118776Y0065461D03*
X0117201Y0065461D03*
X0115627Y0065461D03*
X0114052Y0065461D03*
X0112477Y0065461D03*
X0110902Y0065461D03*
X0110902Y0052075D03*
X0112477Y0052075D03*
X0114052Y0052075D03*
X0115627Y0052075D03*
X0117201Y0052075D03*
X0118776Y0052075D03*
D54*
X0186198Y0036386D03*
X0186198Y0026386D03*
D55*
X0186198Y0026386D03*
X0186198Y0036386D03*
D56*
X0147910Y0119791D03*
X0142005Y0119791D03*
D57*
X0020646Y0005815D03*
X0030489Y0005815D03*
X0040331Y0005815D03*
X0050174Y0005815D03*
X0050174Y0015559D03*
X0050174Y0025008D03*
X0050174Y0035047D03*
X0053717Y0044374D03*
X0043973Y0046713D03*
X0041788Y0049299D03*
X0041611Y0044374D03*
X0039249Y0041937D03*
X0036838Y0044546D03*
X0034446Y0041957D03*
X0032103Y0044536D03*
X0029761Y0041799D03*
X0027406Y0044488D03*
X0024386Y0050894D03*
X0020646Y0054831D03*
X0020646Y0061720D03*
X0020646Y0066051D03*
X0020646Y0069496D03*
X0027536Y0066051D03*
X0032654Y0066051D03*
X0027536Y0061524D03*
X0027453Y0058094D03*
X0032654Y0059555D03*
X0039741Y0059555D03*
X0044367Y0063295D03*
X0051060Y0062902D03*
X0051060Y0056406D03*
X0042694Y0071539D03*
X0042300Y0074795D03*
X0048304Y0081594D03*
X0050469Y0086524D03*
X0046532Y0094004D03*
X0040430Y0085835D03*
X0041512Y0082587D03*
X0036788Y0082980D03*
X0036788Y0088295D03*
X0036788Y0094004D03*
X0027536Y0094004D03*
X0020646Y0094004D03*
X0020646Y0109752D03*
X0036788Y0114949D03*
X0044859Y0122055D03*
X0046532Y0115264D03*
X0053127Y0107291D03*
X0054898Y0103157D03*
X0046532Y0104929D03*
X0052044Y0125795D03*
X0052044Y0132587D03*
X0052044Y0136130D03*
X0052142Y0139673D03*
X0046532Y0141248D03*
X0036788Y0135894D03*
X0020646Y0141248D03*
X0020646Y0156602D03*
X0036788Y0156602D03*
X0046434Y0156602D03*
X0058638Y0150598D03*
X0086591Y0150598D03*
X0090233Y0156602D03*
X0090233Y0141248D03*
X0090233Y0130520D03*
X0094662Y0121760D03*
X0095351Y0117035D03*
X0104800Y0114575D03*
X0108442Y0114575D03*
X0111788Y0114575D03*
X0115233Y0114575D03*
X0118186Y0113000D03*
X0120843Y0115067D03*
X0121237Y0108866D03*
X0112083Y0105323D03*
X0106178Y0105323D03*
X0100272Y0105323D03*
X0100272Y0099417D03*
X0100272Y0093512D03*
X0106178Y0093512D03*
X0106178Y0099417D03*
X0112083Y0099417D03*
X0112083Y0093512D03*
X0121335Y0094004D03*
X0124977Y0088098D03*
X0122320Y0086047D03*
X0128323Y0089476D03*
X0137674Y0090559D03*
X0138658Y0084358D03*
X0128028Y0078157D03*
X0117989Y0077862D03*
X0118087Y0081110D03*
X0117398Y0085539D03*
X0110509Y0080913D03*
X0107457Y0077173D03*
X0103225Y0071661D03*
X0107654Y0065165D03*
X0114150Y0069102D03*
X0117595Y0069102D03*
X0122320Y0068118D03*
X0114052Y0073433D03*
X0135705Y0066150D03*
X0135213Y0062902D03*
X0135705Y0059555D03*
X0140627Y0055717D03*
X0135312Y0053748D03*
X0133737Y0046465D03*
X0127339Y0043709D03*
X0122615Y0041740D03*
X0125371Y0035933D03*
X0114052Y0045480D03*
X0108540Y0044004D03*
X0104997Y0043906D03*
X0108638Y0039673D03*
X0099386Y0039197D03*
X0093678Y0039197D03*
X0087182Y0039197D03*
X0080390Y0039197D03*
X0087280Y0051287D03*
X0093973Y0051287D03*
X0099288Y0051287D03*
X0104111Y0053354D03*
X0092178Y0057701D03*
X0087965Y0057681D03*
X0083540Y0057685D03*
X0077757Y0057602D03*
X0077831Y0069890D03*
X0083540Y0069890D03*
X0088757Y0074417D03*
X0089150Y0078748D03*
X0083146Y0086720D03*
X0084426Y0089969D03*
X0092497Y0087606D03*
X0078127Y0078748D03*
X0080292Y0100598D03*
X0086198Y0102862D03*
X0078225Y0111327D03*
X0083442Y0122252D03*
X0099583Y0126976D03*
X0126355Y0124220D03*
X0138658Y0119693D03*
X0138855Y0124220D03*
X0154209Y0124122D03*
X0154209Y0120972D03*
X0154209Y0117823D03*
X0157556Y0117823D03*
X0157556Y0120972D03*
X0157556Y0124122D03*
X0164150Y0124122D03*
X0167595Y0124122D03*
X0167595Y0120972D03*
X0167595Y0117823D03*
X0164150Y0117823D03*
X0164150Y0120972D03*
X0169760Y0108669D03*
X0163953Y0104929D03*
X0163953Y0101386D03*
X0163953Y0098039D03*
X0156079Y0094791D03*
X0152635Y0089181D03*
X0150961Y0083965D03*
X0153914Y0079535D03*
X0151257Y0077567D03*
X0149091Y0075106D03*
X0147846Y0066032D03*
X0150346Y0063532D03*
X0147846Y0061032D03*
X0152846Y0061032D03*
X0152846Y0066032D03*
X0165922Y0071563D03*
X0171335Y0071465D03*
X0172418Y0064772D03*
X0172320Y0061031D03*
X0171827Y0055815D03*
X0179308Y0044594D03*
X0142103Y0046268D03*
X0126847Y0050205D03*
X0138264Y0073039D03*
X0137871Y0099417D03*
X0128225Y0099516D03*
X0121434Y0100402D03*
X0173993Y0101091D03*
X0173993Y0095579D03*
X0173993Y0091215D03*
X0173993Y0086819D03*
X0178914Y0081799D03*
X0186001Y0092823D03*
X0188461Y0132390D03*
X0020646Y0125500D03*
X0020646Y0038295D03*
X0020646Y0021760D03*
D58*
X0165823Y0054929D03*
X0165627Y0083472D03*
D59*
X0165627Y0083472D03*
X0165823Y0054929D03*
D60*
X0154603Y0049516D03*
D61*
X0154603Y0049516D03*
D62*
X0139446Y0069847D03*
X0103717Y0064870D03*
X0099879Y0064969D03*
X0053969Y0073827D03*
X0051453Y0076287D03*
X0051158Y0079732D03*
X0051060Y0071366D03*
D63*
X0135944Y0069496D03*
M02*
